<svg viewBox="0 0 1431 400" xmlns="http://www.w3.org/2000/svg"><g><g><g><g><g><line x1="58" y1="378" x2="53" y2="378" style="visibility: inherit;" fill="rgb(0, 0, 0)" stroke="rgb(204, 204, 204)" stroke-width="1px"></line><line x1="58" y1="324" x2="53" y2="324" style="visibility: inherit;" fill="rgb(0, 0, 0)" stroke="rgb(204, 204, 204)" stroke-width="1px"></line><line x1="58" y1="270" x2="53" y2="270" style="visibility: inherit;" fill="rgb(0, 0, 0)" stroke="rgb(204, 204, 204)" stroke-width="1px"></line><line x1="58" y1="216" x2="53" y2="216" style="visibility: inherit;" fill="rgb(0, 0, 0)" stroke="rgb(204, 204, 204)" stroke-width="1px"></line><line x1="58" y1="162" x2="53" y2="162" style="visibility: inherit;" fill="rgb(0, 0, 0)" stroke="rgb(204, 204, 204)" stroke-width="1px"></line><line x1="58" y1="108" x2="53" y2="108" style="visibility: inherit;" fill="rgb(0, 0, 0)" stroke="rgb(204, 204, 204)" stroke-width="1px"></line><line x1="58" y1="54" x2="53" y2="54" style="visibility: inherit;" fill="rgb(0, 0, 0)" stroke="rgb(204, 204, 204)" stroke-width="1px"></line><line x1="58" y1="0" x2="53" y2="0" style="visibility: inherit;" fill="rgb(0, 0, 0)" stroke="rgb(204, 204, 204)" stroke-width="1px"></line></g><g transform="translate(48, 0)"><text x="0" y="378" dx="0em" dy="0.3em" style="text-anchor: end; visibility: hidden; font-family: &quot;Helvetica Neue&quot;, sans-serif; font-size: 12px; font-weight: 200;" fill="rgb(50, 49, 63)" stroke="none" stroke-width="1px">-0.5</text><text x="0" y="324" dx="0em" dy="0.3em" style="text-anchor: end; visibility: inherit; font-family: &quot;Helvetica Neue&quot;, sans-serif; font-size: 12px; font-weight: 200;" fill="rgb(50, 49, 63)" stroke="none" stroke-width="1px">0</text><text x="0" y="270" dx="0em" dy="0.3em" style="text-anchor: end; visibility: inherit; font-family: &quot;Helvetica Neue&quot;, sans-serif; font-size: 12px; font-weight: 200;" fill="rgb(50, 49, 63)" stroke="none" stroke-width="1px">0.5</text><text x="0" y="216" dx="0em" dy="0.3em" style="text-anchor: end; visibility: inherit; font-family: &quot;Helvetica Neue&quot;, sans-serif; font-size: 12px; font-weight: 200;" fill="rgb(50, 49, 63)" stroke="none" stroke-width="1px">1</text><text x="0" y="162" dx="0em" dy="0.3em" style="text-anchor: end; visibility: inherit; font-family: &quot;Helvetica Neue&quot;, sans-serif; font-size: 12px; font-weight: 200;" fill="rgb(50, 49, 63)" stroke="none" stroke-width="1px">1.5</text><text x="0" y="108" dx="0em" dy="0.3em" style="text-anchor: end; visibility: inherit; font-family: &quot;Helvetica Neue&quot;, sans-serif; font-size: 12px; font-weight: 200;" fill="rgb(50, 49, 63)" stroke="none" stroke-width="1px">2</text><text x="0" y="54" dx="0em" dy="0.3em" style="text-anchor: end; visibility: inherit; font-family: &quot;Helvetica Neue&quot;, sans-serif; font-size: 12px; font-weight: 200;" fill="rgb(50, 49, 63)" stroke="none" stroke-width="1px">2.5</text><text x="0" y="0" dx="0em" dy="0.3em" style="text-anchor: end; visibility: hidden; font-family: &quot;Helvetica Neue&quot;, sans-serif; font-size: 12px; font-weight: 200;" fill="rgb(50, 49, 63)" stroke="none" stroke-width="1px">3</text></g><line x1="58" y1="0" x2="58" y2="378" fill="rgb(0, 0, 0)" stroke="rgb(204, 204, 204)" stroke-width="1px"></line></g></g><g transform="translate(58, 0)" clip-path="url(#clip_0)"><clipPath id="clip_0"><rect width="1373" height="378"></rect></clipPath><g><g><g><line x1="0" y1="0" x2="0" y2="378" fill="rgb(0, 0, 0)" stroke="rgb(60, 60, 60)" stroke-width="1px" opacity="0.25"></line><line x1="114.41666666666666" y1="0" x2="114.41666666666666" y2="378" fill="rgb(0, 0, 0)" stroke="rgb(60, 60, 60)" stroke-width="1px" opacity="0.25"></line><line x1="228.83333333333331" y1="0" x2="228.83333333333331" y2="378" fill="rgb(0, 0, 0)" stroke="rgb(60, 60, 60)" stroke-width="1px" opacity="0.25"></line><line x1="343.25" y1="0" x2="343.25" y2="378" fill="rgb(0, 0, 0)" stroke="rgb(60, 60, 60)" stroke-width="1px" opacity="0.25"></line><line x1="457.66666666666663" y1="0" x2="457.66666666666663" y2="378" fill="rgb(0, 0, 0)" stroke="rgb(60, 60, 60)" stroke-width="1px" opacity="0.25"></line><line x1="572.0833333333334" y1="0" x2="572.0833333333334" y2="378" fill="rgb(0, 0, 0)" stroke="rgb(60, 60, 60)" stroke-width="1px" opacity="0.25"></line><line x1="686.5" y1="0" x2="686.5" y2="378" fill="rgb(0, 0, 0)" stroke="rgb(60, 60, 60)" stroke-width="1px" opacity="0.25"></line><line x1="800.9166666666667" y1="0" x2="800.9166666666667" y2="378" fill="rgb(0, 0, 0)" stroke="rgb(60, 60, 60)" stroke-width="1px" opacity="0.25"></line><line x1="915.3333333333333" y1="0" x2="915.3333333333333" y2="378" fill="rgb(0, 0, 0)" stroke="rgb(60, 60, 60)" stroke-width="1px" opacity="0.25"></line><line x1="1029.75" y1="0" x2="1029.75" y2="378" fill="rgb(0, 0, 0)" stroke="rgb(60, 60, 60)" stroke-width="1px" opacity="0.25"></line><line x1="1144.1666666666667" y1="0" x2="1144.1666666666667" y2="378" fill="rgb(0, 0, 0)" stroke="rgb(60, 60, 60)" stroke-width="1px" opacity="0.25"></line><line x1="1258.5833333333333" y1="0" x2="1258.5833333333333" y2="378" fill="rgb(0, 0, 0)" stroke="rgb(60, 60, 60)" stroke-width="1px" opacity="0.25"></line><line x1="1373" y1="0" x2="1373" y2="378" fill="rgb(0, 0, 0)" stroke="rgb(60, 60, 60)" stroke-width="1px" opacity="0.25"></line></g><g><line x1="0" y1="378" x2="1373" y2="378" fill="rgb(0, 0, 0)" stroke="rgb(60, 60, 60)" stroke-width="1px" opacity="0.25"></line><line x1="0" y1="324" x2="1373" y2="324" fill="rgb(0, 0, 0)" stroke="rgb(60, 60, 60)" stroke-width="1px" opacity="0.25"></line><line x1="0" y1="270" x2="1373" y2="270" fill="rgb(0, 0, 0)" stroke="rgb(60, 60, 60)" stroke-width="1px" opacity="0.25"></line><line x1="0" y1="216" x2="1373" y2="216" fill="rgb(0, 0, 0)" stroke="rgb(60, 60, 60)" stroke-width="1px" opacity="0.25"></line><line x1="0" y1="162" x2="1373" y2="162" fill="rgb(0, 0, 0)" stroke="rgb(60, 60, 60)" stroke-width="1px" opacity="0.25"></line><line x1="0" y1="108" x2="1373" y2="108" fill="rgb(0, 0, 0)" stroke="rgb(60, 60, 60)" stroke-width="1px" opacity="0.25"></line><line x1="0" y1="54" x2="1373" y2="54" fill="rgb(0, 0, 0)" stroke="rgb(60, 60, 60)" stroke-width="1px" opacity="0.25"></line><line x1="0" y1="0" x2="1373" y2="0" fill="rgb(0, 0, 0)" stroke="rgb(60, 60, 60)" stroke-width="1px" opacity="0.25"></line></g></g></g><g><g><line x1="0" y1="324" x2="1373" y2="324" fill="rgb(0, 0, 0)" stroke="rgb(153, 153, 153)" stroke-width="1.5px"></line></g></g><g><g><line x1="114.41666666666666" y1="0" x2="114.41666666666666" y2="378" fill="rgb(0, 0, 0)" stroke="rgb(153, 153, 153)" stroke-width="1.5px"></line></g></g><g><g><g><g><g><path stroke="rgb(255, 112, 67)" stroke-width="2px" d="M115.56083333333333,74.45313549041748L118.53566666666666,74.85747849941254L119.90866666666666,74.58898882963217L123.57,74.96896688377154L124.02766666666668,75.31129302025505L124.71416666666667,75.56848114440828L125.17183333333332,75.9163079411855L126.54483333333333,76.49338980118665L127.23133333333332,76.82413317090368L130.66383333333332,77.48254155161607L131.35033333333334,78.10334678943292L135.927,80.20058973351172L137.75766666666667,82.94123792806056L138.44416666666666,84.82557685567826L138.673,86.34151023750121L140.27483333333333,89.14926780658965L143.24966666666666,96.6009572752181L146.2245,108.39321005038693L148.74166666666667,126.65725400202447L149.88583333333332,143.51971905698306L150.57233333333332,155.51223661092862L152.63183333333333,172.36731990429217L152.86066666666667,181.40967042977667L155.149,194.68553668040133L156.29316666666665,199.64171844591525L156.75083333333333,206.51140367922645L156.97966666666667,209.7760050565754L157.895,211.35248048978164L159.72566666666665,216.25983824273354L161.55633333333333,216.18333613337842L161.78516666666667,220.03310495099205L162.92933333333335,222.83919951289255L165.4465,224.42035623572298L166.8195,228.57427034467074L167.96366666666668,227.46084655808426L168.65016666666668,229.27233534229842L171.39616666666666,229.09320190541183L172.76916666666665,232.81737373657396L173.91333333333336,235.29342755861805L175.51516666666666,236.4519187536689L176.4305,237.02221994009773L176.88816666666665,239.5538814342711L181.23600000000002,241.29485451490447L182.38016666666667,240.70719873484185L182.609,242.50466658835148L183.75316666666666,242.9590483317929L184.8973333333333,245.8052513487306L185.35500000000002,245.27249349874054L187.18566666666666,244.12539576124666L187.4145,244.3308586039054L189.93166666666667,246.57579110611027L191.9911666666667,250.12704490751196L193.82183333333333,250.33795694786448L197.48316666666668,248.8848263995521L198.39849999999998,251.58216146091826L200.68683333333334,253.0031072822827L210.75549999999998,252.96182454393016L210.98433333333335,253.93395088175376L212.815,256.2018376234738L214.8745,256.3212210204344L215.33216666666667,256.08252419627553L215.561,256.4488751745036L216.2475,255.7941294107324L217.6205,255.95654556712427L219.68,257.6135371539648L220.3665,258.67505598149626L220.59533333333334,258.5438452725526L222.88366666666667,258.39344850569466L226.77383333333333,258.27100076311524L227.2315,257.9161937119585L230.43516666666667,259.81982988608013L231.57933333333332,261.1085014014967L232.037,261.64043939528034L232.72350000000003,260.83982584725123L234.55416666666667,261.9356387487072L235.92716666666666,263.5375224131953L236.38483333333332,263.8539645778305L237.0713333333333,262.23997951192655L238.44433333333333,260.7399574794948L239.58849999999998,261.75163487664344L241.87683333333334,263.15454928917575L243.24983333333333,264.04354258086016L244.62283333333335,265.15541765514456L245.53816666666668,264.7625894869771L246.91116666666667,263.54847166093623L247.36883333333333,264.012436420634L248.05533333333335,264.91677591259156L248.513,266.08427422675413L248.74183333333335,264.7975730504568L249.886,265.7956918481574L250.11483333333334,265.09767859003455L252.17433333333335,263.6434950400681L254.005,261.932971833306L255.14916666666664,264.7062700499043L256.29333333333335,266.73750476294424L256.751,266.91864268930954L259.497,267.8179393825066L261.09883333333335,268.62432552678183L261.32766666666663,267.9071936208176L261.78533333333337,267.77073352325965L262.243,267.3803742455781L262.47183333333334,269.14007037444946L262.9295,269.56324420907526L265.6755,269.6764702948238L266.362,267.49942017509375L267.27733333333333,266.375002675735L267.9638333333333,268.95235079138456L268.6503333333333,267.91978865628823L269.5656666666667,265.59112976649635L269.7945,266.1730750957682L270.70983333333334,267.36702998635496L271.854,269.7430332670052L274.3711666666667,271.2071521860027L275.973,270.65241240153694L277.8036666666667,270.8569029729961L278.719,269.449739108169L279.40549999999996,269.40089557748075L279.6343333333333,267.5698428045573L279.8631666666667,268.0056630069531L281.465,271.7238496359895L282.83799999999997,270.3927193770832L283.5245,270.9724322968737L284.43983333333335,270.497119713665L285.35516666666666,270.3218838505989L286.27049999999997,270.28596649962935L286.4993333333333,270.24745766161845L287.4146666666667,271.0383401384292L289.4741666666667,270.2004338544808L290.3895,272.5158454681756L290.61833333333334,272.93332253130205L290.8471666666667,273.1786846770759L291.30483333333336,272.9192601951311L291.5336666666667,272.90548749639686L292.9066666666667,273.3224295370227L293.822,274.2718981499938L294.05083333333334,275.4614064929168L294.50849999999997,273.1575941704083L294.96616666666665,274.4277750290852L295.6526666666667,273.6104503892315L295.8815,271.9882530941041L296.11033333333336,271.27893489441107L297.02566666666667,269.83354793692126L297.941,270.46071731272036L299.0851666666667,272.58932969106854L299.314,273.3168983288623L299.54283333333336,274.6251261131774L304.806,273.71480197291436L305.72133333333335,273.1961063538841L306.17900000000003,275.6497795578749L307.3231666666667,275.29354777317707L312.81516666666664,274.8453441523401L313.2728333333333,274.9552327193551L314.41700000000003,274.87094498859244L314.87466666666666,276.5433225702429L315.79,275.3221258205881L316.24766666666665,274.2602685381597L318.0783333333333,273.20842328605806L319.4513333333333,274.73776854835603L320.3666666666667,275.03534124948175L321.9685,276.7085670868015L322.4261666666667,277.41650902268026L323.7991666666667,276.8061560811802L324.2568333333333,277.2529253019216L324.9433333333333,274.8855516823126L325.62983333333335,273.3448993153568L327.46049999999997,274.0010637156484L327.6893333333333,275.7865211315344L328.37583333333333,276.5181056110496L329.97766666666666,276.79253818085397L330.6641666666667,278.77692247325547L332.7236666666667,276.7907382541559L333.639,277.90799512229336L334.3255,278.492270933163L334.5543333333333,279.81054953728426L336.61383333333333,279.28338906761593L336.8426666666667,280.10651448724616L337.758,278.24785339449613L338.21566666666666,277.5969445444034L338.4445,277.7675568423799L339.35983333333337,277.98876582158397L339.58866666666665,277.7475856934356L340.2751666666667,278.6900348659973L340.504,278.90045242289426L342.33466666666664,279.3702128218396L343.25,277.8059861354103L343.7076666666667,278.9430717761559L344.1653333333333,278.5356630882765L344.3941666666667,278.18755028254657L346.4536666666667,277.76626194481173L347.1401666666667,278.8429912863023L348.9708333333333,276.4873769365458L349.4285,277.259746461076L351.71683333333334,278.8629233294502L353.31866666666673,278.7961486490831L356.2935,279.01912614776285L357.6665,280.91291468783373L358.353,280.56217757132146L358.81066666666663,282.0888256982952L359.726,281.8432614300245L360.6413333333333,283.2853789027687L361.099,281.23682668782214L362.24316666666664,280.73350755558573L362.47200000000004,281.13609161487915L364.5315,280.0301229865056L365.90450000000004,278.3399106449307L366.81983333333335,279.574712502147L367.04866666666663,281.05068582724647L369.33700000000005,281.5129477168984L370.48116666666664,282.5562304488341L373.68483333333336,282.20202950427057L374.14250000000004,281.0163859116383L378.71916666666664,279.2239502184002L378.94800000000004,280.5512708611732L379.86333333333334,283.01588481589823L380.0921666666666,282.10302826121256L380.321,281.1368356487441L384.44000000000005,281.50933990128567L387.186,284.4599576547606L387.4148333333333,283.4732307287969L388.78783333333337,281.4262987430643L389.2455,282.3278293881268L390.38966666666664,281.6944255991847L390.8473333333333,282.0854304411453L396.33933333333334,281.71020845046297L396.79699999999997,281.61731674355656L399.0853333333334,280.84892736722463L399.77183333333335,281.680474298295L401.60249999999996,281.1286674601415L402.289,280.36387015954136L402.97549999999995,282.6505961988895L405.9503333333334,283.71144107428364L407.55216666666666,282.6076827254723L408.92516666666666,283.95598241131484L410.527,283.55763085151307L411.9,284.9213007418191L414.1883333333334,285.2963485317156L415.3325,283.52299416045696L415.5613333333333,281.6507242440006L416.2478333333333,281.8481678437484L417.6208333333333,282.52999703116967L418.07849999999996,282.49898653046944L418.765,282.41073763857275L419.4515,284.22691676908727L420.138,283.8734623306632L420.3668333333333,282.589434749701L424.4858333333333,284.8780007641425L427.9183333333333,284.92863408809365L431.3508333333333,284.50873899510776L432.0373333333333,283.1189406398015L432.2661666666667,280.7626088907168L432.7238333333333,283.25585797130145L432.9526666666667,282.47699376761364L437.7581666666667,283.2597605992523L437.987,283.53601712043087L439.13116666666673,284.6772784355581L439.8176666666667,284.41589607973697L440.733,286.8418524156797L441.1906666666667,286.27279571835925L442.106,286.2484464415594L443.0213333333333,286.5786882739475L443.9366666666666,286.5572518647438L449.6575,287.510256918712L449.8863333333333,285.50636553313944L452.4035,286.04508647648464L454.2341666666666,284.7627066691397L454.463,284.33560676095954L455.14950000000005,285.5074840707664L455.6071666666666,285.0936382009437L455.836,284.24003378116197L457.8955,284.818540570516L459.49733333333336,286.10967621647035L462.92983333333336,285.8890657987757L463.15866666666665,286.43059619465845L463.84516666666667,286.8741011154615L468.19300000000004,286.2073116023518L469.33716666666663,288.8689022373663L469.56600000000003,288.1547327227298L470.02366666666666,287.55969287079L471.62550000000005,288.425574738511L473.2273333333333,285.6209199182561L473.45616666666666,286.10877355053253L475.5156666666667,287.3740821845187L476.431,286.03757806818805L476.88866666666667,286.2827348959513L477.804,287.4306684644262L479.8635,285.85150544114356L481.4653333333334,285.9604010121074L481.69416666666666,285.8062405309705L482.83833333333337,287.75935905704665L484.669,288.1035051913844L486.7285,287.5754465443961L486.95733333333334,287.9032723535938L487.87266666666665,287.45002567945977L489.01683333333335,284.87519481288825L489.7033333333334,285.54689742629193L490.161,286.3407739252118L490.84749999999997,286.9606477886598L491.534,286.6289428514338L492.44933333333336,287.46576540721037L494.28,288.09002862604007L496.1106666666667,286.9379289760086L497.026,287.94576791607693L497.7125,288.989831278821L497.9413333333334,288.3902311266065L499.31433333333337,288.5789613211513L501.3738333333333,287.98605191018345L502.2891666666667,285.9948866087566L502.518,286.6386254142743L502.7468333333333,289.1417392916096L503.2045,287.3383802429803L503.89099999999996,287.1831624422054L505.4928333333333,286.42455768070107L507.5523333333333,287.3416537253945L509.84066666666666,287.9402323132091L510.756,289.46783211024604L511.2136666666667,288.83255812044143L511.9001666666667,289.6476181776237L513.0443333333333,290.5670496243782L513.2731666666667,288.4485634099571L513.7308333333333,287.35714964456133L513.9596666666666,288.33652370206573L514.1885,285.96428843159714L515.3326666666667,287.81376540553117L518.5363333333333,286.97653605873313L520.5958333333333,288.67610708674744L521.9688333333334,287.0931636798439L523.5706666666667,288.00994731831895L523.7995,286.8097435107728L525.859,286.81421419804695L527.4608333333333,288.6336318780506L530.2068333333333,288.0559537011101L531.8086666666667,288.76044228063313L532.2663333333334,289.62105862132483L533.1816666666666,289.825505112599L535.47,290.30925413071554L535.6988333333334,289.08369796335364L536.3853333333333,292.171431355832L537.5295,291.0358077366102L538.4448333333333,288.14032881730486L541.4196666666667,288.2611054973226L542.1061666666667,287.3359764335407L543.4791666666666,287.0258975456865L543.708,287.4285800713725L543.9368333333333,288.0660849248425L547.5981666666667,289.27176679581737L551.7171666666667,288.4941902959963L553.0901666666666,289.9579388144386L554.692,290.9921341325505L556.065,290.87789513979334L556.9803333333333,290.4571656841873L557.438,289.5962163244986L557.8956666666667,289.90386336060186L559.2686666666666,288.8756356299628L559.9551666666666,289.1753733194297L560.4128333333333,291.48490576961194L561.0993333333333,292.3761387647304L561.7858333333334,292.09739675409276L562.4723333333334,293.0668528454702L564.5318333333333,292.6952741370917L564.9895,291.7577799931955L567.7355,291.16798162316036L567.9643333333333,291.3104327193186L568.1931666666667,291.65863283105404L571.3968333333333,292.02969693915674L572.3121666666667,290.4039247499503L573.2275,288.526260737574L574.1428333333333,289.34017403363936L574.3716666666667,289.05600461625903L575.0581666666667,288.7496089533797L575.5158333333334,290.5770382163424L575.9735,290.11789994701735L577.8041666666667,290.8988708809912L578.2618333333334,290.87036114668246L578.9483333333334,291.2890335901701L579.6348333333334,290.3724139800146L580.3213333333333,291.26649891558134L580.779,289.6980127526691L581.4655,288.16579008301323L585.8133333333334,289.66499576687943L588.5593333333333,291.1574667556294L588.7881666666667,292.5416654266839L589.0169999999999,293.30705072390583L589.4746666666667,292.75637742225854L589.7035,292.1670381328138L590.1611666666666,293.1773404181404L590.6188333333333,293.0085092962029L591.5341666666667,293.3264926779414L592.4495,292.35726164031894L593.5936666666666,291.8277312651209L594.0513333333333,293.4878353437741L595.6531666666667,292.00249310499186L596.3396666666667,292.6133200893745L597.4838333333333,293.69011457979354L598.3991666666667,292.9904630674104L599.5433333333333,292.08519275743845L600.001,293.2642907128279L600.2298333333333,293.18689178380635L602.747,291.23991765352054L603.6623333333333,292.03179753882864L604.3488333333333,293.1158066574525L605.0353333333333,293.219452189433L605.2641666666667,293.3644129079744L605.9506666666667,294.5548226620057L606.1795,292.26494334848513L606.6371666666666,291.9388166350829L607.7813333333334,291.71786904827997L608.0101666666667,291.71436066923286L609.612,292.3147252768144L609.8408333333333,292.82231318771034L610.7561666666667,292.31926782023424L611.2138333333334,290.95240835601993L611.6715,291.2153892770702L612.5868333333333,292.4582403811988L614.8751666666667,293.3884595580802L615.3328333333333,290.577993604416L615.7905000000001,292.0233016329255L616.0193333333333,289.52938458426274L616.9346666666667,290.83365967931434L617.6211666666667,291.50038034356885L619.4518333333333,291.8561897673443L620.3671666666667,292.9693192242524L623.5708333333333,292.3937728642786L624.4861666666667,291.78409983154324L624.9438333333334,291.98482747933974L626.0880000000001,293.1294876817567L626.3168333333333,292.2321243812861L626.7745,292.4854095298184L627.2321666666667,292.854025430568L627.461,294.2420807761478L627.9186666666667,295.1853806544857L628.3763333333334,293.96004493054846L628.6051666666666,294.29107822786034L630.207,293.0905378211156L630.8935,292.8274499624142L632.0376666666666,292.55740795428574L636.3855,292.3675311201514L638.6738333333334,292.2071006651938L640.0468333333333,291.68083965517405L640.7333333333333,292.53665006004167L641.4198333333334,294.30459129716394L642.1063333333334,294.7104970687952L642.3351666666666,292.8487673803762L642.5640000000001,293.12693744925235L644.8523333333334,293.5958236099933L645.0811666666666,295.4643821025881L645.31,293.5972323003407L645.7676666666666,294.212575410783L648.5136666666666,292.18994263111335L648.7425,291.9013027864622L649.2001666666666,294.06943436371847L651.0308333333334,294.00412285272813L653.0903333333333,293.3350459810766L656.9805,293.39727869490815L660.1841666666667,292.7567949227097L661.0994999999999,292.7376193959476L661.3283333333334,293.5744680380202L661.786,292.0805618176089L663.6166666666667,292.26282531078016L664.0743333333334,292.4167501333675L664.9896666666667,294.0088817240787L667.278,292.7502336002584L669.1086666666666,292.110067719054L669.3375,292.07640330423817L671.8546666666667,293.0607507254476L673.6853333333333,291.9983734146234L675.0583333333333,293.8890002641366L675.2871666666667,294.2550702615551L675.7448333333333,294.31975224757025L676.2025,293.35126020398036L677.3466666666667,294.46659351519526L681.6945,294.18238406855926L683.0675,293.9758262484018L683.2963333333333,294.56208557181026L685.5846666666666,293.55270205910483L686.0423333333333,292.5721931158035L686.9576666666666,292.7792318164425L687.1864999999999,293.8509679018925L689.7036666666667,293.1913636314553L690.3901666666667,293.68033608124745L691.7631666666667,293.2127275009518L692.9073333333334,294.5746913635472L693.365,294.70643996499416L693.8226666666666,292.3651345211413L694.2803333333334,294.71889276731883L696.3398333333333,295.0019658293061L697.2551666666667,295.5038276604255L698.1705,294.5058329159879L698.6281666666667,293.68887591689014L699.3146666666667,294.1986579914641L701.3741666666667,295.1146727096886L701.6030000000001,293.34128339838094L703.8913333333334,293.6402930721706L704.349,293.87797190577186L707.095,294.64783245224L707.3238333333334,294.88929694830324L707.5526666666666,292.9698759194549L708.4680000000001,294.08143822409727L709.3833333333334,295.84249029194126L710.7563333333334,295.4628925897766L710.9851666666667,294.7126014577203L711.6716666666666,295.2688950268539L714.6465,295.4498921136923L715.333,294.41043366794986L716.0195,294.47569020870446L716.2483333333332,295.1645262258239L718.0790000000001,295.0214853296868L719.452,294.9462630277987L720.825,294.73834573782176L721.9691666666668,295.43104898665365L726.317,295.8461430772186L727.2323333333333,295.62291659736877L727.69,294.9770414222732L728.8341666666668,295.3558551901254L729.9783333333332,295.93209927282766L732.9531666666668,296.4592746317508L733.8684999999999,296.56197730422747L734.5550000000001,297.5613090498491L737.9875,296.4230606736686L740.5046666666667,295.96335984360854L740.7334999999999,294.81278343851375L741.4200000000001,296.2292460432947L742.793,296.1724161524356L744.3948333333334,294.6418863426912L744.6236666666666,294.69341103382516L744.8525,294.83704042522675L745.0813333333333,295.5190482621704L745.3101666666666,296.5718015960046L747.3696666666667,296.5094442445748L752.6328333333333,294.66433253757435L752.8616666666667,295.4673197679059L753.0905,295.1774109609328L754.6923333333333,296.5001235012652L757.2094999999999,296.42365379359967L757.6671666666666,296.6532871915498L760.4131666666666,295.4637574311256L760.642,294.51156329847333L761.3285,293.5494214995918L761.7861666666666,294.19429547215805L762.0150000000001,295.6677610553819L762.4726666666667,294.8914523886155L766.8205,295.9484211901731L767.9646666666667,296.4498144566957L768.6511666666667,295.5883022654023L769.3376666666667,295.3501416985969L771.3971666666666,297.14832161335823L771.6260000000001,297.39609602969097L773.4566666666667,297.133776306398L773.6855,296.5407632585092L775.0585,295.7939099547698L775.7449999999999,296.7404528902432L777.1179999999999,298.13807859697704L777.5756666666667,297.61868528532244L778.0333333333333,295.60218403343714L778.7198333333334,295.6176262235901L781.9235,297.01771561719545L782.3811666666667,296.45776043187124L782.6099999999999,296.61266633183084L782.8388333333334,296.9364727515598L785.3559999999999,296.9886216270101L787.6443333333333,297.3024750201208L789.4749999999999,295.99594004442116L793.3651666666666,297.12045561963214L794.967,296.4907429915302L795.1958333333334,296.26453189263543L795.8823333333333,295.9753798735726L798.1706666666668,296.6047283227794L799.5436666666667,297.58795358035286L800.459,299.82155972297977L801.6031666666667,298.0236920689106L802.0608333333332,296.6792692765331L802.5185,296.23209254889105L802.9761666666667,297.2597955760265L803.4338333333333,296.25931829791693L804.3491666666666,297.04343930829424L804.578,295.67388262718237L805.2645,295.4092751882631L806.6375,296.5681104983186L807.0951666666666,296.4320316031751L807.7816666666668,296.3694901773439L809.6123333333334,297.3345422213737L810.0699999999999,297.4139493623652L810.2988333333333,296.8934412669705L810.5276666666667,297.55874623486795L812.3583333333333,297.2864761688078L815.7908333333332,298.16549222098377L816.2485,298.18598044172876L816.7061666666666,296.34887845668766L817.1638333333333,297.90880133720384L817.6215000000001,297.79584440000144L819.6809999999999,298.8472562814193L820.5963333333334,296.2671966662667L823.5711666666666,295.13223868075977L824.4865000000001,296.82752812781314L828.8343333333333,297.0260752968692L832.2668333333332,296.93484674291034L832.4956666666666,298.04373492238653L833.8686666666666,297.2611210670336L834.0975000000001,297.7320244983592L834.5551666666667,298.1958280966138L835.2416666666666,300.23406015428634L836.3858333333333,298.19243837948284L837.3011666666666,297.6577629182079L837.7588333333333,296.8827686746918L841.4201666666667,295.9283028864862L843.0219999999999,297.10741789484035L843.9373333333334,297.1061715325356L845.5391666666667,295.1250799203301L845.768,296.10219650890735L847.3698333333333,296.977640994944L848.0563333333333,297.557731609677L853.5483333333334,297.3501644498913L854.2348333333333,297.4959624985938L855.8366666666666,297.9860224473527L856.5231666666667,297.9343630878956L856.752,297.74138178878013L857.2096666666666,297.20154027016747L857.4385000000001,296.535546850394L859.0403333333334,296.9271569676582L862.0151666666667,296.5519518153301L863.1593333333334,296.2660876331586L865.2188333333334,297.7631788622057L865.6764999999999,296.2049972755143L866.1341666666667,297.4550320948618L867.736,299.1183985856448L870.7108333333333,299.142486929135L871.1684999999999,298.91517741634635L872.5414999999999,297.63831300231334L874.3721666666667,299.6074205559046L875.7451666666667,299.4054027510614L875.974,299.4491968460637L876.2028333333333,298.4317787830686L877.1181666666668,297.9296278205308L878.2623333333335,296.9146374730344L879.8641666666667,297.37543846774554L881.6948333333333,297.3053070641068L882.6101666666667,297.0804075680081L883.5255,297.62220594179064L883.9831666666668,296.05430372292653L886.5003333333334,295.8710448249272L886.958,297.9417473020608L887.4156666666667,297.6433362688097L888.1021666666667,297.2797360733433L889.2463333333333,298.9585393139889L891.9923333333332,298.0972245138389L893.1365,297.2422404051722L894.2806666666667,298.10567506318694L898.3996666666667,297.7175066957796L899.315,296.8565593534663L900.0015,297.58578777157993L901.1456666666667,298.0763520946725L902.7475,297.4200151771679L903.6628333333333,296.6720275408253L904.1205,296.60260188139824L905.4934999999999,297.955707618936L905.7223333333333,297.33860339483266L907.0953333333333,298.1528455600777L908.6971666666667,298.1896641603493L910.0701666666668,297.4010396213164L910.7566666666667,298.0038733846444L912.1296666666667,299.5314996460973L914.6468333333333,299.0679391753613L915.1045,299.1519809324705L917.3928333333333,297.3393974637487L918.0793333333332,298.1512788018881L918.537,298.76292626150246L919.6811666666666,297.7770713811385L923.3425,298.79153968365597L923.8001666666665,297.2926642028785L924.9443333333332,297.9365332799134L925.1731666666666,300.6820923016654L926.0885,299.8019274429194L926.5461666666666,299.5350040170975L928.148,298.8945493682281L929.7498333333334,300.04905624294616L932.4958333333334,297.8255829042455L933.6400000000001,296.5905754105008L936.3860000000001,296.42670590494606L936.6148333333334,297.88156475314224L937.9878333333334,298.664462123446L938.2166666666667,298.6754713500335L941.4203333333334,299.27610206871L942.3356666666667,298.7401403204725L942.7933333333333,298.283437229164L943.2510000000001,299.24671367226097L943.9375,298.95096003662377L944.6239999999999,299.1029927709748L946.6835,299.54510135525766L948.0565,299.86504623338163L948.5141666666666,299.7789236607824L951.0313333333334,300.14474131480904L951.2601666666666,299.86633752474813L952.6331666666666,300.1977837961294L954.2349999999999,301.13656917103395L959.727,300.815572732021L961.0999999999999,302.03457212050535L961.5576666666667,300.85328464269503L966.3631666666666,300.7051464114181L967.0496666666667,299.9036702748294L967.9649999999999,298.68498227811784L968.1938333333334,299.4460467208441L968.4226666666667,298.5614993398795L969.7956666666668,301.0149217739945L970.4821666666667,298.92792956204687L970.9398333333334,298.98119132620974L972.9993333333333,299.8938208156996L974.6011666666667,299.4504415830477L975.7453333333333,299.8517027998271L977.5759999999999,300.14713475133794L978.4913333333334,300.8822627128709L979.4066666666668,300.3163878000706L982.3815000000001,299.5446804450112L982.8391666666666,298.6725114396904L983.5256666666668,298.2393586523351L986.2716666666668,299.10658828538755L987.187,299.2704682119018L988.3311666666666,299.6991604189471L988.7888333333333,301.0248268378017L991.0771666666667,299.6595238645218L991.5348333333333,298.76312021013155L991.9925000000001,298.4172351336244L994.9673333333334,298.52638006065865L998.6286666666667,300.1426226368819L999.7728333333333,302.4364297194048L1001.3746666666666,302.2948767782906L1007.0955,300.09218285332076L1007.3243333333334,299.82309235244963L1007.5531666666667,300.0882090634702L1008.6973333333334,300.2148383084892L1009.155,302.14078498029465L1011.4433333333334,301.51392660226674L1013.274,300.86682241968066L1014.6469999999999,300.59526947624533L1014.8758333333333,300.28993816069993L1015.7911666666666,300.3073688202633L1018.3083333333334,299.6957984837016L1019.6813333333333,300.38752332163574L1021.0543333333334,300.83136257429555L1021.7408333333333,301.0381056362369L1025.1733333333334,301.5826154168831L1026.0886666666665,301.10399232008376L1027.6905000000002,301.1321329456468L1028.6058333333333,301.64596606385106L1029.75,301.5364779775822L1030.8941666666667,301.44294379624625L1031.8094999999998,301.9349060921246L1032.0383333333334,301.08485789706555L1034.5555,300.50272798305895L1034.7843333333333,301.32371606687394L1037.3015,301.21541255867294L1037.7591666666667,301.4492371210803L1037.988,301.0651460486262L1039.5898333333332,301.2821018932825L1040.0475,301.52528995505367L1040.2763333333335,298.7711346759283L1040.5051666666668,297.51611398541235L1040.734,297.3465579920012L1042.107,298.24494803982964L1047.1413333333335,299.21456866883034L1051.0315,299.83050509347197L1052.1756666666665,299.252568245254L1052.4044999999999,300.23778684158447L1052.8621666666668,301.1703492594917L1054.6928333333333,301.2965455885625L1057.4388333333334,300.56618640636776L1067.9651666666666,300.4800500977956L1069.1093333333333,300.78092773609893L1071.1688333333334,301.6142475596281L1071.3976666666667,300.7641725058086L1073.9148333333333,301.41229524104165L1074.1436666666666,301.9124453657172L1074.6013333333333,301.6725990410627L1075.059,301.54957771515734L1075.7455,302.87394425997667L1075.9743333333333,302.39590064125974L1076.432,302.9288255658014L1081.6951666666666,303.4031581572451L1082.8393333333333,302.31709526132096L1083.5258333333334,302.1066714653405L1084.2123333333334,302.3207167702337L1085.3564999999999,301.40770184501525L1087.8736666666666,302.85533730688405L1089.9331666666667,301.5453528911037L1090.6196666666667,301.43023335636633L1090.8485,302.3429119330703L1092.9080000000001,300.9259299362933L1094.281,301.77738413365097L1097.9423333333332,301.1711685249294L1099.3153333333332,300.55225036079196L1100.2306666666666,301.8622235151202L1100.9171666666666,300.15822694850385L1102.2901666666667,301.0989832767989L1102.7478333333333,301.5202225619045L1104.8073333333332,301.0523082836561L1105.7226666666668,301.8746769681032L1107.0956666666666,303.460170308021L1108.2398333333333,303.45905015424927L1109.6128333333334,304.25332687828563L1111.6723333333332,304.41040898879544L1113.2741666666666,303.1628812642108L1114.1895,303.703645425511L1116.249,300.67648870794335L1119.6815,301.5805931988261L1121.2833333333333,300.6099945368112L1121.9698333333333,302.2176600731457L1122.4275,303.2080086014894L1122.6563333333334,302.7731770719425L1123.5716666666667,301.85731168063495L1123.8005,301.0717327324868L1124.0293333333334,302.09922543336876L1126.7753333333333,302.4491317937966L1128.1483333333333,302.38514525116653L1128.3771666666667,302.12063087475997L1128.8348333333333,302.4376993504328L1130.2078333333334,302.2175676063992L1130.8943333333334,301.83753078200203L1132.2673333333332,302.51401651512253L1133.1826666666668,301.5202905214469L1134.7845,302.2659156010532L1137.0728333333334,301.8405097059002L1138.4458333333334,301.26274963209573L1139.3611666666666,302.7507663964602L1140.0476666666666,303.70721690651015L1141.8783333333333,303.24268544194837L1142.336,303.84209304140654L1145.3108333333332,303.20021191291005L1146.2261666666666,304.1835087242841L1146.455,303.9967195095491L1150.8028333333332,304.3063194931669L1151.0316666666668,303.17686473018665L1151.7181666666665,303.1262185256883L1153.32,301.15350249297643L1153.7776666666666,301.00471417240635L1155.6083333333333,300.9012462862273L1156.066,301.6218719105685L1156.2948333333334,301.2910259974458L1159.2696666666668,301.7918707616602L1159.7273333333333,302.31448383852694L1159.9561666666666,301.43674404457124L1162.0156666666667,299.62463411709615L1162.7021666666667,300.5179340423402L1165.2193333333335,301.4189798105512L1165.9058333333332,301.50781555585587L1166.3635000000002,301.63692910440284L1166.8211666666666,301.89618276934334L1169.5671666666667,302.4388388835222L1173.4573333333333,302.1803877617616L1174.6015,303.5984674373685L1176.8898333333334,302.43394093986865L1178.2628333333332,302.35273028180904L1179.8646666666666,302.6910357044095L1181.2376666666667,302.38403210437025L1181.6953333333333,303.38155244228676L1182.6106666666667,303.8072636511173L1184.2125,304.96768679536854L1184.4413333333334,303.1424071450083L1184.6701666666668,304.0182973420053L1186.9585,304.7318386480468L1191.764,303.2434982684408L1192.9081666666666,303.14726525706976L1194.0523333333333,302.8129313359435L1195.4253333333334,302.15175041972253L1197.7136666666665,302.94988873850497L1198.8578333333332,302.99468967468255L1200.2308333333333,302.39359472483824L1201.1461666666667,302.6896133320953L1201.375,303.6332511602298L1203.2056666666667,303.08801506152486L1203.8921666666668,302.63341482991416L1204.121,303.1475053817894L1204.5786666666665,304.37098673527635L1205.2651666666668,303.95389032092805L1205.494,304.1050838454194L1205.7228333333333,302.7157098188178L1206.867,302.638438733469L1207.3246666666666,303.5538540077511L1208.0111666666667,302.94020012571235L1208.24,302.63308362694875L1208.4688333333334,302.20709755737954L1208.6976666666667,303.1387232942544L1209.1553333333334,303.53809163589256L1209.8418333333334,302.15431335937365L1210.0706666666665,302.59548685176003L1211.4436666666666,302.0249484850337L1212.8166666666666,302.15020273169097L1213.2743333333333,303.091145956756L1213.9608333333333,303.5563205982693L1216.7068333333334,303.627206355658L1218.5375,304.26032547374183L1218.7663333333335,303.5690859569288L1218.9951666666668,302.737913847755L1220.3681666666666,303.9466237311307L1221.97,304.05757530240675L1223.1141666666667,304.25800478284634L1224.7160000000001,303.783973359019L1227.6908333333333,302.84987949308777L1229.0638333333334,303.2380496917786L1229.5215,300.2234065209998L1230.208,300.234187011431L1231.8098333333332,301.2792212274733L1233.1828333333333,302.66780479592455L1233.8693333333333,302.4663196315907L1234.327,303.613074845704L1234.5558333333333,302.2444101015523L1238.9036666666666,301.62540689944L1239.1325,302.5583130111621L1240.9631666666667,302.49592945518054L1243.7091666666668,301.98302670444224L1244.3956666666666,302.7427287109207L1245.0821666666668,302.06978387877405L1248.057,302.7436174109284L1249.8876666666667,301.73553428379915L1251.7183333333332,301.758390196134L1251.9471666666668,300.8598833846863L1252.6336666666666,300.11964773939945L1253.0913333333333,302.22266292456925L1253.3201666666666,303.6628812067755L1256.5238333333334,304.7416697927146L1258.3545,305.4731396310227L1261.787,303.9943023844181L1263.3888333333334,304.7104964687597L1264.7618333333335,304.776343156944L1265.4483333333333,304.3245685398878L1265.6771666666666,305.0673208415688L1267.0501666666667,305.9789588320363L1270.025,304.911857120282L1270.4826666666668,304.0193665218869L1270.7115,303.7967546339344L1270.9403333333332,304.19523820611903L1272.3133333333333,303.01961801846664L1273.4575,304.09146772861385L1276.4323333333332,304.31271027946417L1280.0936666666666,304.01879725112883L1281.6955,303.54062817844374L1282.8396666666667,304.46282836408983L1283.0685,303.07037363416896L1284.4415,304.07477623204556L1286.501,304.10282295930483L1287.1875,302.8953270792252L1287.4163333333333,303.07029568429505L1287.874,302.1715483145458L1289.2469999999998,303.62451535919564L1289.4758333333334,302.1966783670143L1289.9335,303.8273437301848L1291.0776666666668,304.3012039828618L1291.7641666666666,305.8294147353363L1295.1966666666667,305.13197987681576L1296.3408333333334,304.4355060661194L1297.7138333333335,304.616445970795L1299.3156666666666,304.1243684722551L1300.231,305.1683201809864L1300.9175,304.4166490328396L1304.35,304.91582618308576L1306.1806666666666,305.0157877096683L1307.096,304.3526290589065L1307.3248333333333,303.725448127597L1311.4438333333335,302.8456762766894L1312.1303333333333,304.2004213414226L1312.3591666666666,303.98443823347293L1312.8168333333333,304.30382633978013L1313.2745,304.77227282985376L1313.5033333333333,304.01822004595L1314.4186666666667,302.4404630772984L1314.6475,302.6488880463073L1317.1646666666668,302.3123434393185L1318.5376666666666,302.44829518846143L1319.453,302.48228556663673L1324.7161666666666,302.2108878538065L1327.691,304.1853814271124L1329.5216666666668,303.0969968406577L1330.6658333333332,302.4748735051286L1330.8946666666668,303.58939123278446L1331.3523333333333,304.37503931597223L1331.5811666666666,304.9811383585653L1331.81,303.95954068306213L1333.8695,304.1312955844589L1334.0983333333334,304.3768414156549L1337.5308333333332,303.89781431537347L1338.2173333333333,303.9772412072508L1340.7345,304.93630788868L1340.9633333333334,304.4564585098346L1341.421,304.39205135159017L1341.6498333333334,304.8150478437681L1343.9381666666666,305.7471506497347L1345.54,306.0018352688005L1346.4553333333333,305.8052956116587L1347.3706666666667,305.56743265702664L1349.4301666666668,305.1683712334295L1350.5743333333335,305.1148185450352L1351.032,304.82149019947747L1351.4896666666666,304.950038713879L1353.5491666666667,305.2320735708872L1354.6933333333334,305.4587094221115L1355.8375,306.38869990310667L1359.0411666666666,305.6573348605728L1359.27,305.67881380105587L1359.7276666666667,305.7070592795883L1360.8718333333334,305.69287963837826L1362.9313333333334,304.48163800317315L1364.3043333333335,304.2524661831753L1366.135,304.06880248860693" style="fill: none;" fill="none"></path></g></g></g></g><g opacity="0.2"><g><g><g><path stroke="rgb(255, 112, 67)" stroke-width="2px" d="M115.56083333333333,74.45313549041748L118.53566666666666,75.10008430480957L119.90866666666666,74.33123874664307L123.57,75.41582107543945L124.02766666666668,75.75823402404785L124.71416666666667,75.92426490783691L125.17183333333332,76.41370582580566L126.54483333333333,77.3347806930542L127.23133333333332,77.31191539764404L130.66383333333332,78.46020126342773L131.35033333333334,79.02892398834229L135.927,83.33504104614258L137.75766666666667,87.04326152801514L138.44416666666666,87.64839363098145L138.673,88.61362838745117L140.27483333333333,93.35892391204834L143.24966666666666,107.7753381729126L146.2245,126.07859516143799L148.74166666666667,154.0505375862122L149.88583333333332,168.81187534332273L150.57233333333332,173.5003552436829L152.63183333333333,197.6493902206421L152.86066666666667,194.97301769256592L155.149,214.59917879104614L156.29316666666665,207.07595586776733L156.75083333333333,216.81590223312378L156.97966666666667,214.67289876937866L157.895,213.71719121932983L159.72566666666665,223.62087035179138L161.55633333333333,216.0685830116272L161.78516666666667,225.80775690078735L162.92933333333335,227.04834079742432L165.4465,226.79209113121033L166.8195,234.80514121055603L167.96366666666668,225.7907109260559L168.65016666666668,231.98956847190857L171.39616666666666,228.8245017528534L172.76916666666665,238.40363144874573L173.91333333333336,239.00750827789307L175.51516666666666,238.18965554237366L176.4305,237.8776717185974L176.88816666666665,243.35137367248535L181.23600000000002,243.90631413459778L182.38016666666667,239.82571506500244L182.609,245.2008683681488L183.75316666666666,243.64062094688416L184.8973333333333,250.07455587387085L185.35500000000002,244.4733567237854L187.18566666666666,242.40474915504456L187.4145,244.6390528678894L189.93166666666667,249.94318985939026L191.9911666666667,255.45392560958862L193.82183333333333,250.65432500839233L197.48316666666668,246.7051305770874L198.39849999999998,255.62816405296326L200.68683333333334,255.134526014328L210.75549999999998,252.89990043640137L210.98433333333335,255.39214038848877L212.815,259.60366773605347L214.8745,256.50029611587524L215.33216666666667,255.72447896003723L215.561,256.9984016418457L216.2475,254.81201076507568L217.6205,256.20016980171204L219.68,260.09902453422546L220.3665,260.2673342227936L220.59533333333334,258.34702920913696L222.88366666666667,258.1678533554077L226.77383333333333,258.0873291492462L227.2315,257.3839831352234L230.43516666666667,262.6752841472626L231.57933333333332,263.0415086746216L232.037,262.4383463859558L232.72350000000003,259.6389055252075L234.55416666666667,263.5793581008911L235.92716666666666,265.94034790992737L236.38483333333332,264.3286278247833L237.0713333333333,259.8190019130707L238.44433333333333,258.48992443084717L239.58849999999998,263.26915097236633L241.87683333333334,265.25892090797424L243.24983333333333,265.37703251838684L244.62283333333335,266.82323026657104L245.53816666666668,264.17334723472595L246.91116666666667,261.727294921875L247.36883333333333,264.70838356018066L248.05533333333335,266.27328515052795L248.513,267.83552169799805L248.74183333333335,262.86752128601074L249.886,267.29287004470825L250.11483333333334,264.05065870285034L252.17433333333335,261.4622197151184L254.005,259.36718702316284L255.14916666666664,268.86621737480164L256.29333333333335,269.7843568325043L256.751,267.1903495788574L259.497,269.16688442230225L261.09883333333335,269.8339047431946L261.32766666666663,266.83149576187134L261.78533333333337,267.5660433769226L262.243,266.7948353290558L262.47183333333334,271.77961456775665L262.9295,270.1980049610138L265.6755,269.84630942344666L266.362,264.23384499549866L267.27733333333333,264.6883764266968L267.9638333333333,272.818372964859L268.6503333333333,266.3709454536438L269.5656666666667,262.0981414318085L269.7945,267.0459930896759L270.70983333333334,269.1579623222351L271.854,273.30703818798065L274.3711666666667,273.4033305644989L275.973,269.82030272483826L277.8036666666667,271.16363883018494L278.719,267.33899331092834L279.40549999999996,269.32763028144836L279.6343333333333,264.8232636451721L279.8631666666667,268.6593933105469L281.465,277.30112957954407L282.83799999999997,268.39602398872375L283.5245,271.84200167655945L284.43983333333335,269.78415083885193L285.35516666666666,270.05903005599976L286.27049999999997,270.23209047317505L286.4993333333333,270.18969440460205L287.4146666666667,272.2246638536453L289.4741666666667,268.94357442855835L290.3895,275.98896288871765L290.61833333333334,273.5595381259918L290.8471666666667,273.5467278957367L291.30483333333336,272.53012347221375L291.5336666666667,272.8848284482956L292.9066666666667,273.9478425979614L293.822,275.6961010694504L294.05083333333334,277.24566900730133L294.50849999999997,269.7018756866455L294.96616666666665,276.3330463171005L295.6526666666667,272.384463429451L295.8815,269.55495715141296L296.11033333333336,270.2149575948715L297.02566666666667,267.66546750068665L297.941,271.40147137641907L299.0851666666667,275.7822482585907L299.314,274.408251285553L299.54283333333336,276.58746778964996L304.806,272.34931576251984L305.72133333333335,272.41806292533875L306.17900000000003,279.3302893638611L307.3231666666667,274.75920009613037L312.81516666666664,274.1730387210846L313.2728333333333,275.1200655698776L314.41700000000003,274.7445133924484L314.87466666666666,279.0518889427185L315.79,273.49033069610596L316.24766666666665,272.6674826145172L318.0783333333333,271.6306554079056L319.4513333333333,277.031786441803L320.3666666666667,275.48170030117035L321.9685,279.21840584278107L322.4261666666667,278.4784219264984L323.7991666666667,275.89062666893005L324.2568333333333,277.92307913303375L324.9433333333333,271.33449125289917L325.62983333333335,271.0339207649231L327.46049999999997,274.9853103160858L327.6893333333333,278.46470725536346L328.37583333333333,277.61548233032227L329.97766666666666,277.2041870355606L330.6641666666667,281.7534989118576L332.7236666666667,273.8114619255066L333.639,279.5838804244995L334.3255,279.36868464946747L334.5543333333333,281.7879674434662L336.61383333333333,278.4926483631134L336.8426666666667,281.3412026166916L337.758,275.4598617553711L338.21566666666666,276.6205812692642L338.4445,278.0234752893448L339.35983333333337,278.32057929039L339.58866666666665,277.3858155012131L340.2751666666667,280.1037086248398L340.504,279.21607875823975L342.33466666666664,280.07485342025757L343.25,275.4596461057663L343.7076666666667,280.64870023727417L344.1653333333333,277.9245500564575L344.3941666666667,277.6653810739517L346.4536666666667,277.13432943820953L347.1401666666667,280.4580852985382L348.9708333333333,272.953955411911L349.4285,278.4183007478714L351.71683333333334,281.2676886320114L353.31866666666673,278.6959866285324L356.2935,279.35359239578247L357.6665,283.75359749794006L358.353,280.03607189655304L358.81066666666663,284.3787978887558L359.726,281.4749150276184L360.6413333333333,285.44855511188507L361.099,278.1639983654022L362.24316666666664,279.97852885723114L362.47200000000004,281.7399677038193L364.5315,278.3711700439453L365.90450000000004,275.80459213256836L366.81983333333335,281.4269152879715L367.04866666666663,283.26464581489563L369.33700000000005,282.20634055137634L370.48116666666664,284.12115454673767L373.68483333333336,281.67072808742523L374.14250000000004,279.2379205226898L378.71916666666664,276.5352966785431L378.94800000000004,282.54225182533264L379.86333333333334,286.71280574798584L380.0921666666666,280.73374342918396L380.321,279.6875467300415L384.44000000000005,282.06809628009796L387.186,288.88588428497314L387.4148333333333,281.9931403398514L388.78783333333337,278.35590076446533L389.2455,283.6801253557205L390.38966666666664,280.7443199157715L390.8473333333333,282.6719377040863L396.33933333333334,281.1473754644394L396.79699999999997,281.477979183197L399.0853333333334,279.69634330272675L399.77183333333335,282.9277946949005L401.60249999999996,280.3009572029114L402.289,279.21667420864105L402.97549999999995,286.0806852579117L405.9503333333334,285.3027083873749L407.55216666666666,280.95204520225525L408.92516666666666,285.97843194007874L410.527,282.9601035118103L411.9,286.96680557727814L414.1883333333334,285.85892021656036L415.3325,280.86296260356903L415.5613333333333,278.8423193693161L416.2478333333333,282.14433324337006L417.6208333333333,283.55274081230164L418.07849999999996,282.45247077941895L418.765,282.27836430072784L419.4515,286.951185464859L420.138,283.34328067302704L420.3668333333333,280.66339337825775L424.4858333333333,288.31084978580475L427.9183333333333,285.0045840740204L431.3508333333333,283.87889635562897L432.0373333333333,281.03424310684204L432.2661666666667,277.22811126708984L432.7238333333333,286.99573159217834L432.9526666666667,281.3086974620819L437.7581666666667,284.4339108467102L437.987,283.9504019021988L439.13116666666673,286.3891704082489L439.8176666666667,284.02382254600525L440.733,290.4807869195938L441.1906666666667,285.41921067237854L442.106,286.21192252635956L443.0213333333333,287.0740510225296L443.9366666666666,286.5250972509384L449.6575,288.9397644996643L449.8863333333333,282.5005284547806L452.4035,286.8531678915024L454.2341666666666,282.83913695812225L454.463,283.69495689868927L455.14950000000005,287.2653000354767L455.6071666666666,284.4728693962097L455.836,282.95962715148926L457.8955,285.6863007545471L459.49733333333336,288.0463796854019L462.92983333333336,285.5581501722336L463.15866666666665,287.24289178848267L463.84516666666667,287.53935849666595L468.19300000000004,285.2071273326874L469.33716666666663,292.861288189888L469.56600000000003,287.08347845077515L470.02366666666666,286.66713309288025L471.62550000000005,289.72439754009247L473.2273333333333,281.41393768787384L473.45616666666666,286.84055399894714L475.5156666666667,289.27204513549805L476.431,284.032821893692L476.88866666666667,286.65047013759613L477.804,289.1525688171387L479.8635,283.4827609062195L481.4653333333334,286.12374436855316L481.69416666666666,285.57499980926514L482.83833333333337,290.6890368461609L484.669,288.61972439289093L486.7285,286.7833585739136L486.95733333333334,288.39501106739044L487.87266666666665,286.77015566825867L489.01683333333335,281.012948513031L489.7033333333334,286.5544513463974L490.161,287.5315886735916L490.84749999999997,287.8904585838318L491.534,286.1313854455948L492.44933333333336,288.72099924087524L494.28,289.02642345428467L496.1106666666667,285.2097795009613L497.026,289.4575263261795L497.7125,290.555926322937L497.9413333333334,287.4908308982849L499.31433333333337,288.86205661296844L501.3738333333333,287.0966877937317L502.2891666666667,283.0081386566162L502.518,287.60423362255096L502.7468333333333,292.8964101076126L503.2045,284.6333416700363L503.89099999999996,286.9503357410431L505.4928333333333,285.2866505384445L507.5523333333333,288.7172977924347L509.84066666666666,288.83810019493103L510.756,291.7592318058014L511.2136666666667,287.87964713573456L511.9001666666667,290.8702082633972L513.0443333333333,291.9461967945099L513.2731666666667,285.2708340883255L513.7308333333333,285.7200289964676L513.9596666666666,289.80558478832245L514.1885,282.40593552589417L515.3326666666667,290.5879808664322L518.5363333333333,285.7206920385361L520.5958333333333,291.2254636287689L521.9688333333334,284.7187485694885L523.5706666666667,289.3851227760315L523.7995,285.00943779945374L525.859,286.82092022895813L527.4608333333333,291.36275839805603L530.2068333333333,287.18943643569946L531.8086666666667,289.8171751499176L532.2663333333334,290.91198313236237L533.1816666666666,290.1321748495102L535.47,291.0348776578903L535.6988333333334,287.2453637123108L536.3853333333333,296.80303144454956L537.5295,289.3323723077774L538.4448333333333,283.79711043834686L541.4196666666667,288.44227051734924L542.1061666666667,285.94828283786774L543.4791666666666,286.56077921390533L543.708,288.0326038599014L543.9368333333333,289.0223422050476L547.5981666666667,291.08028960227966L551.7171666666667,287.32782554626465L553.0901666666666,292.15356159210205L554.692,292.5434271097183L556.065,290.70653665065765L556.9803333333333,289.8260715007782L557.438,288.3047922849655L557.8956666666667,290.3653339147568L559.2686666666666,287.3332940340042L559.9551666666666,289.62497985363007L560.4128333333333,294.94920444488525L561.0993333333333,293.71298825740814L561.7858333333334,291.6792837381363L562.4723333333334,294.5210369825363L564.5318333333333,292.1379060745239L564.9895,290.3515387773514L567.7355,290.2832840681076L567.9643333333333,291.5241093635559L568.1931666666667,292.1809329986572L571.3968333333333,292.58629310131073L572.3121666666667,287.96526646614075L573.2275,285.7097647190094L574.1428333333333,290.5610439777374L574.3716666666667,288.6297504901886L575.0581666666667,288.29001545906067L575.5158333333334,293.31818211078644L575.9735,289.4291925430298L577.8041666666667,292.0703272819519L578.2618333333334,290.8275965452194L578.9483333333334,291.9170422554016L579.6348333333334,288.9974845647812L580.3213333333333,292.6076263189316L580.779,287.3452835083008L581.4655,285.86745607852936L585.8133333333334,291.91380429267883L588.5593333333333,293.3961732387543L588.7881666666667,294.6179634332657L589.0169999999999,294.45512866973877L589.4746666666667,291.9303674697876L589.7035,291.28302919864655L590.1611666666666,294.69279384613037L590.6188333333333,292.7552626132965L591.5341666666667,293.8034677505493L592.4495,290.9034150838852L593.5936666666666,291.0334357023239L594.0513333333333,295.97799146175385L595.6531666666667,289.77447974681854L596.3396666666667,293.5295605659485L597.4838333333333,295.30530631542206L598.3991666666667,291.94098579883575L599.5433333333333,290.72728729248047L600.001,295.03293764591217L600.2298333333333,293.07079339027405L602.747,288.31945645809174L603.6623333333333,293.21961736679077L604.3488333333333,294.7418203353882L605.0353333333333,293.37492048740387L605.2641666666667,293.58185398578644L605.9506666666667,296.3404372930527L606.1795,288.83012437820435L606.6371666666666,291.44962656497955L607.7813333333334,291.38644766807556L608.0101666666667,291.70909810066223L609.612,293.21527218818665L609.8408333333333,293.58369505405426L610.7561666666667,291.5646997690201L611.2138333333334,288.9021191596985L611.6715,291.60986065864563L612.5868333333333,294.32251703739166L614.8751666666667,294.7837883234024L615.3328333333333,286.3622946739197L615.7905000000001,294.1912636756897L616.0193333333333,285.7885090112686L616.9346666666667,292.7900723218918L617.6211666666667,292.50046133995056L619.4518333333333,292.3899039030075L620.3671666666667,294.63901340961456L623.5708333333333,291.53045332431793L624.4861666666667,290.8695902824402L624.9438333333334,292.28591895103455L626.0880000000001,294.8464779853821L626.3168333333333,290.88607943058014L626.7745,292.8653372526169L627.2321666666667,293.4069492816925L627.461,296.3241637945175L627.9186666666667,296.6003304719925L628.3763333333334,292.12204134464264L628.6051666666666,294.7876281738281L630.207,291.28972721099854L630.8935,292.4328181743622L632.0376666666666,292.1523449420929L636.3855,292.0827158689499L638.6738333333334,291.96645498275757L640.0468333333333,290.89144814014435L640.7333333333333,293.82036566734314L641.4198333333334,296.9565031528473L642.1063333333334,295.31935572624207L642.3351666666666,290.0561728477478L642.5640000000001,293.5441925525665L644.8523333333334,294.29915285110474L645.0811666666666,298.26721984148026L645.31,290.7965075969696L645.7676666666666,295.13559007644653L648.5136666666666,289.1559934616089L648.7425,291.4683430194855L649.2001666666666,297.3216317296028L651.0308333333334,293.9061555862427L653.0903333333333,292.33143067359924L656.9805,293.4906277656555L660.1841666666667,291.7960692644119L661.0994999999999,292.70885610580444L661.3283333333334,294.82974100112915L661.786,289.8397024869919L663.6166666666667,292.5362205505371L664.0743333333334,292.64763736724854L664.9896666666667,296.39707911014557L667.278,290.8622614145279L669.1086666666666,291.1498188972473L669.3375,292.02590668201447L671.8546666666667,294.53727185726166L673.6853333333333,290.40480744838715L675.0583333333333,296.7249405384064L675.2871666666667,294.8041752576828L675.7448333333333,294.416775226593L676.2025,291.8985221385956L677.3466666666667,296.1395934820175L681.6945,293.75606989860535L683.0675,293.6659895181656L683.2963333333333,295.4414745569229L685.5846666666666,292.0386267900467L686.0423333333333,291.10142970085144L686.9576666666666,293.0897898674011L687.1864999999999,295.45857203006744L689.7036666666667,292.20195722579956L690.3901666666667,294.41379475593567L691.7631666666667,292.5113146305084L692.9073333333334,296.6176371574402L693.365,294.9040628671646L693.8226666666666,288.85317635536194L694.2803333333334,298.24953013658524L696.3398333333333,295.426575422287L697.2551666666667,296.2566204071045L698.1705,293.00884079933167L698.6281666666667,292.4634404182434L699.3146666666667,294.9633311033249L701.3741666666667,296.48869478702545L701.6030000000001,290.6811994314194L703.8913333333334,294.0888075828552L704.349,294.2344901561737L707.095,295.80262327194214L707.3238333333334,295.25149369239807L707.5526666666666,290.09074437618256L708.4680000000001,295.7487816810608L709.3833333333334,298.4840683937073L710.7563333333334,294.89349603652954L710.9851666666667,293.5871647596359L711.6716666666666,296.1033353805542L714.6465,295.7213877439499L715.333,292.85124599933624L716.0195,294.5735750198364L716.2483333333332,296.197780251503L718.0790000000001,294.80692398548126L719.452,294.83342957496643L720.825,294.42646980285645L721.9691666666668,296.4701038599014L726.317,296.4687842130661L727.2323333333333,295.288076877594L727.69,294.0082286596298L728.8341666666668,295.9240758419037L729.9783333333332,296.7964653968811L732.9531666666668,297.2500376701355L733.8684999999999,296.7160313129425L734.5550000000001,299.06030666828156L737.9875,294.7156881093979L740.5046666666667,295.2738085985184L740.7334999999999,293.0869188308716L741.4200000000001,298.35393995046616L742.793,296.08717131614685L744.3948333333334,292.34609162807465L744.6236666666666,294.7706980705261L744.8525,295.0524845123291L745.0813333333333,296.54206001758575L745.3101666666666,298.150931596756L747.3696666666667,296.4159082174301L752.6328333333333,291.89666497707367L752.8616666666667,296.6718006134033L753.0905,294.742547750473L754.6923333333333,298.48419231176376L757.2094999999999,296.30894923210144L757.6671666666666,296.99773728847504L760.4131666666666,293.6794627904892L760.642,293.08327209949493L761.3285,292.10620880126953L761.7861666666666,295.1616064310074L762.0150000000001,297.87795943021774L762.4726666666667,293.7269893884659L766.8205,297.53387439250946L767.9646666666667,297.20190435647964L768.6511666666667,294.2960339784622L769.3376666666667,294.9929008483887L771.3971666666666,299.84559148550034L771.6260000000001,297.76775765419006L773.4566666666667,296.74029672145844L773.6855,295.651243686676L775.0585,294.67362999916077L775.7449999999999,298.1602672934532L777.1179999999999,300.2345171570778L777.5756666666667,296.8395953178406L778.0333333333333,292.57743215560913L778.7198333333334,295.6407895088196L781.9235,299.11784970760345L782.3811666666667,295.6178276538849L782.6099999999999,296.8450251817703L782.8388333333334,297.4221823811531L785.3559999999999,297.06684494018555L787.6443333333333,297.773255109787L789.4749999999999,294.0361375808716L793.3651666666666,298.8072289824486L794.967,295.54617404937744L795.1958333333334,295.9252152442932L795.8823333333333,295.54165184497833L798.1706666666668,297.54875099658966L799.5436666666667,299.06279146671295L800.459,303.17196893692017L801.6031666666667,295.3268905878067L802.0608333333332,294.6626350879669L802.5185,295.561327457428L802.9761666666667,298.80135011672974L803.4338333333333,294.75860238075256L804.3491666666666,298.21962082386017L804.578,293.6195476055145L805.2645,295.01236402988434L806.6375,298.3063634634018L807.0951666666666,296.2279132604599L807.7816666666668,296.2756780385971L809.6123333333334,298.78212028741837L810.0699999999999,297.53306007385254L810.2988333333333,296.1126791238785L810.5276666666667,298.5567036867142L812.3583333333333,296.8780710697174L815.7908333333332,299.48401629924774L816.2485,298.2167127728462L816.7061666666666,293.593225479126L817.1638333333333,300.24868565797806L817.6215000000001,297.62640899419785L819.6809999999999,300.42437410354614L820.5963333333334,292.3971072435379L823.5711666666666,293.4298017024994L824.4865000000001,299.37046229839325L828.8343333333333,297.3238960504532L832.2668333333332,296.79800391197205L832.4956666666666,299.7070671916008L833.8686666666666,296.0872002840042L834.0975000000001,298.4383796453476L834.5551666666667,298.89153349399567L835.2416666666666,303.29140824079514L836.3858333333333,295.1300057172775L837.3011666666666,296.85574972629547L837.7588333333333,295.7202773094177L841.4201666666667,294.49660420417786L843.0219999999999,298.8760904073715L843.9373333333334,297.1043019890785L845.5391666666667,292.1534425020218L845.768,297.5678713917732L847.3698333333333,298.290807723999L848.0563333333333,298.4278675317764L853.5483333333334,297.0388137102127L854.2348333333333,297.71465957164764L855.8366666666666,298.721112370491L856.5231666666667,297.85687404870987L856.752,297.45190984010696L857.2096666666666,296.39177799224854L857.4385000000001,295.53655672073364L859.0403333333334,297.5145721435547L862.0151666666667,295.98914408683777L863.1593333333334,295.8372913599014L865.2188333333334,300.0088157057762L865.6764999999999,293.8677248954773L866.1341666666667,299.33008432388306L867.736,301.6134483218193L870.7108333333333,299.17861944437027L871.1684999999999,298.5742131471634L872.5414999999999,295.72301638126373L874.3721666666667,302.5610818862915L875.7451666666667,299.10237604379654L875.974,299.51488798856735L876.2028333333333,296.90565168857574L877.1181666666668,297.17640137672424L878.2623333333335,295.39215195178986L879.8641666666667,298.06663995981216L881.6948333333333,297.2001099586487L882.6101666666667,296.74305832386017L883.5255,298.4349035024643L883.9831666666668,293.70245039463043L886.5003333333334,295.59615647792816L886.958,301.04780101776123L887.4156666666667,297.1957197189331L888.1021666666667,296.73433578014374L889.2463333333333,301.4767441749573L891.9923333333332,296.8052523136139L893.1365,295.95976424217224L894.2806666666667,299.40082705020905L898.3996666666667,297.1352541446686L899.315,295.56513833999634L900.0015,298.6796303987503L901.1456666666667,298.81219857931137L902.7475,296.43550980091095L903.6628333333333,295.55004608631134L904.1205,296.4984633922577L905.4934999999999,299.9853662252426L905.7223333333333,296.4129470586777L907.0953333333333,299.37420880794525L908.6971666666667,298.2448920607567L910.0701666666668,296.21810281276703L910.7566666666667,298.9081240296364L912.1296666666667,301.8229390382767L914.6468333333333,298.37259846925735L915.1045,299.2780435681343L917.3928333333333,294.6205222606659L918.0793333333332,299.3691008090973L918.537,299.6803974509239L919.6811666666666,296.29828906059265L923.3425,300.3132421374321L923.8001666666665,295.04435098171234L924.9443333333332,298.90233689546585L925.1731666666666,304.80043083429337L926.0885,298.4816801548004L926.5461666666666,299.13461887836456L928.148,297.93386739492416L929.7498333333334,301.7808165550232L932.4958333333334,294.49037289619446L933.6400000000001,294.7380641698837L936.3860000000001,296.1809016466141L936.6148333333334,300.0638530254364L937.9878333333334,299.8388081789017L938.2166666666667,298.6919851899147L941.4203333333334,300.1770481467247L942.3356666666667,297.9361976981163L942.7933333333333,297.59838259220123L943.2510000000001,300.69162833690643L943.9375,298.50732958316803L944.6239999999999,299.3310418725014L946.6835,300.2082642316818L948.0565,300.3449635505676L948.5141666666666,299.6497398018837L951.0313333333334,300.69346779584885L951.2601666666666,299.44873183965683L952.6331666666666,300.6949532032013L954.2349999999999,302.5447472333908L959.727,300.3340780735016L961.0999999999999,303.8630712032318L961.5576666666667,299.0813534259796L966.3631666666666,300.4829390645027L967.0496666666667,298.7014560699463L967.9649999999999,296.85695028305054L968.1938333333334,300.5876433849335L968.4226666666667,297.2346782684326L969.7956666666668,304.6950554251671L970.4821666666667,295.79744124412537L970.9398333333334,299.06108397245407L972.9993333333333,301.2627650499344L974.6011666666667,298.7853727340698L975.7453333333333,300.4535946249962L977.5759999999999,300.5902826786041L978.4913333333334,301.98495465517044L979.4066666666668,299.46757543087006L982.3815000000001,298.3871194124222L982.8391666666666,297.3642579317093L983.5256666666668,297.58962947130203L986.2716666666668,300.4074327349663L987.187,299.5162881016731L988.3311666666666,300.3421987295151L988.7888333333333,303.0133264660835L991.0771666666667,297.61156940460205L991.5348333333333,297.41851472854614L991.9925000000001,297.8984075188637L994.9673333333334,298.69009745121L998.6286666666667,302.5669865012169L999.7728333333333,305.87714034318924L1001.3746666666666,302.0825473666191L1007.0955,296.7881419658661L1007.3243333333334,299.4194566011429L1007.5531666666667,300.48588413000107L1008.6973333333334,300.40478217601776L1009.155,305.0297049880028L1011.4433333333334,300.5736390352249L1013.274,299.89616614580154L1014.6469999999999,300.1879400610924L1014.8758333333333,299.83194118738174L1015.7911666666666,300.33351480960846L1018.3083333333334,298.77844297885895L1019.6813333333333,301.425110578537L1021.0543333333334,301.4971214532852L1021.7408333333333,301.34822022914886L1025.1733333333334,302.3993800878525L1026.0886666666665,300.3860576748848L1027.6905000000002,301.17434388399124L1028.6058333333333,302.41671574115753L1029.75,301.37224584817886L1030.8941666666667,301.3026425242424L1031.8094999999998,302.6728495359421L1032.0383333333334,299.80978560447693L1034.5555,299.6295331120491L1034.7843333333333,302.55519819259644L1037.3015,301.05295729637146L1037.7591666666667,301.79997396469116L1037.988,300.4890094399452L1039.5898333333332,301.6075356602669L1040.0475,301.8900720477104L1040.2763333333335,294.6399017572403L1040.5051666666668,295.63358294963837L1040.734,297.09222400188446L1042.107,299.59253311157227L1047.1413333333335,300.6689996123314L1051.0315,300.7544097304344L1052.1756666666665,298.3856629729271L1052.4044999999999,301.71561473608017L1052.8621666666668,302.56919288635254L1054.6928333333333,301.4858400821686L1057.4388333333334,299.4706476330757L1067.9651666666666,300.3508456349373L1069.1093333333333,301.2322441935539L1071.1688333333334,302.8642272949219L1071.3976666666667,299.48905992507935L1073.9148333333333,302.38447934389114L1074.1436666666666,302.66267055273056L1074.6013333333333,301.31282955408096L1075.059,301.3650457262993L1075.7455,304.86049407720566L1075.9743333333333,301.67883521318436L1076.432,303.72821295261383L1081.6951666666666,304.1146570444107L1082.8393333333333,300.6880009174347L1083.5258333333334,301.79103577136993L1084.2123333333334,302.6417847275734L1085.3564999999999,300.03817945718765L1087.8736666666666,305.0267904996872L1089.9331666666667,299.58037626743317L1090.6196666666667,301.25755405426025L1090.8485,303.7119297981262L1092.9080000000001,298.8004569411278L1094.281,303.0545654296875L1097.9423333333332,300.2618451118469L1099.3153333333332,299.6238731145859L1100.2306666666666,303.82718324661255L1100.9171666666666,297.6022320985794L1102.2901666666667,302.51011776924133L1102.7478333333333,302.152081489563L1104.8073333333332,300.3504368662834L1105.7226666666668,303.10822999477386L1107.0956666666666,305.8384103178978L1108.2398333333333,303.4573699235916L1109.6128333333334,305.4447419643402L1111.6723333333332,304.6460321545601L1113.2741666666666,301.29158967733383L1114.1895,304.5147916674614L1116.249,296.1357536315918L1119.6815,302.93674993515015L1121.2833333333333,299.1540965437889L1121.9698333333333,304.6291583776474L1122.4275,304.6935313940048L1122.6563333333334,302.1209297776222L1123.5716666666667,300.4835135936737L1123.8005,299.8933643102646L1124.0293333333334,303.6404644846916L1126.7753333333333,302.9739913344383L1128.1483333333333,302.2891654372215L1128.3771666666667,301.72385931015015L1128.8348333333333,302.91330206394196L1130.2078333333334,301.8873699903488L1130.8943333333334,301.26747554540634L1132.2673333333332,303.5287451148033L1133.1826666666668,300.0297015309334L1134.7845,303.3843532204628L1137.0728333333334,301.2024008631706L1138.4458333333334,300.396109521389L1139.3611666666666,304.9827915430069L1140.0476666666666,305.1418926715851L1141.8783333333333,302.54588824510574L1142.336,304.7412044405937L1145.3108333333332,302.23739022016525L1146.2261666666666,305.6584539413452L1146.455,303.7165356874466L1150.8028333333332,304.7707194685936L1151.0316666666668,301.48268258571625L1151.7181666666665,303.05024921894073L1153.32,298.1944284439087L1153.7776666666666,300.7815316915512L1155.6083333333333,300.74604445695877L1156.066,302.70281034708023L1156.2948333333334,300.79475712776184L1159.2696666666668,302.5431379079819L1159.7273333333333,303.0984034538269L1159.9561666666666,300.1201343536377L1162.0156666666667,296.9064692258835L1162.7021666666667,301.8578839302063L1165.2193333333335,302.77054846286774L1165.9058333333332,301.64106917381287L1166.3635000000002,301.8305994272232L1166.8211666666666,302.28506326675415L1169.5671666666667,303.2528230547905L1173.4573333333333,301.79271107912064L1174.6015,305.72558695077896L1176.8898333333334,300.6871511936188L1178.2628333333332,302.2309142947197L1179.8646666666666,303.19849383831024L1181.2376666666667,301.92352670431137L1181.6953333333333,304.87783294916153L1182.6106666666667,304.4458304643631L1184.2125,306.70832151174545L1184.4413333333334,300.4044876694679L1184.6701666666668,305.33213263750076L1186.9585,305.80215060710907L1191.764,301.01098769903183L1192.9081666666666,303.0029157400131L1194.0523333333333,302.31143045425415L1195.4253333333334,301.1599790453911L1197.7136666666665,304.1470962166786L1198.8578333333332,303.061891078949L1200.2308333333333,301.4919523000717L1201.1461666666667,303.13364124298096L1201.375,305.0487079024315L1203.2056666666667,302.2701609134674L1203.8921666666668,301.95151448249817L1204.121,303.91864120960236L1204.5786666666665,306.20620876550674L1205.2651666666668,303.32824569940567L1205.494,304.3318741321564L1205.7228333333333,300.6316487789154L1206.867,302.52253210544586L1207.3246666666666,304.9269769191742L1208.0111666666667,302.01971930265427L1208.24,302.17240887880325L1208.4688333333334,301.5681184530258L1208.6976666666667,304.53616189956665L1209.1553333333334,304.13714414834976L1209.8418333333334,300.07864594459534L1210.0706666666665,303.25724709033966L1211.4436666666666,301.16914093494415L1212.8166666666666,302.33808410167694L1213.2743333333333,304.5025607943535L1213.9608333333333,304.25408256053925L1216.7068333333334,303.7335349917412L1218.5375,305.21000415086746L1218.7663333333335,302.5322266817093L1218.9951666666668,301.4911556839943L1220.3681666666666,305.7596885561943L1221.97,304.22400265932083L1223.1141666666667,304.5586490035057L1224.7160000000001,303.07292622327805L1227.6908333333333,301.448738694191L1229.0638333333334,303.82030498981476L1229.5215,295.70144176483154L1230.208,300.25035774707794L1231.8098333333332,302.84677255153656L1233.1828333333333,304.75068014860153L1233.8693333333333,302.1640918850899L1234.327,305.33320766687393L1234.5558333333333,300.19141298532486L1238.9036666666666,300.6969020962715L1239.1325,303.95767217874527L1240.9631666666667,302.4023541212082L1243.7091666666668,301.2136725783348L1244.3956666666666,303.8822817206383L1245.0821666666668,301.0603666305542L1248.057,303.75436770915985L1249.8876666666667,300.2234095931053L1251.7183333333332,301.79267406463623L1251.9471666666668,299.5121231675148L1252.6336666666666,299.0092942714691L1253.0913333333333,305.3771857023239L1253.3201666666666,305.823208630085L1256.5238333333334,306.35985267162323L1258.3545,306.57034438848495L1261.787,301.7760465145111L1263.3888333333334,305.78478759527206L1264.7618333333335,304.87511318922043L1265.4483333333333,303.6469066143036L1265.6771666666666,306.18144929409027L1267.0501666666667,307.3464158177376L1270.025,303.31120455265045L1270.4826666666668,302.6806306242943L1270.7115,303.46283680200577L1270.9403333333332,304.7929635643959L1272.3133333333333,301.25618773698807L1273.4575,305.6992422938347L1276.4323333333332,304.6445741057396L1280.0936666666666,303.5779277086258L1281.6955,302.82337456941605L1282.8396666666667,305.84612864255905L1283.0685,300.98169153928757L1284.4415,305.5813801288605L1286.501,304.1448930501938L1287.1875,301.0840832591057L1287.4163333333333,303.3327485918999L1287.874,300.823427259922L1289.2469999999998,305.80396592617035L1289.4758333333334,300.0549228787422L1289.9335,306.2733417749405L1291.0776666666668,305.01199436187744L1291.7641666666666,308.121730864048L1295.1966666666667,304.08582758903503L1296.3408333333334,303.39079535007477L1297.7138333333335,304.8878558278084L1299.3156666666666,303.38625222444534L1300.231,306.7342477440834L1300.9175,303.28914231061935L1304.35,305.6645919084549L1306.1806666666666,305.16572999954224L1307.096,303.3578910827637L1307.3248333333333,302.7846767306328L1311.4438333333335,301.52601850032806L1312.1303333333333,306.23253893852234L1312.3591666666666,303.66046357154846L1312.8168333333333,304.7829084992409L1313.2745,305.4749425649643L1313.5033333333333,302.8871408700943L1314.4186666666667,300.073827624321L1314.6475,302.9615254998207L1317.1646666666668,301.8075265288353L1318.5376666666666,302.65222281217575L1319.453,302.5332711338997L1324.7161666666666,301.80379128456116L1327.691,307.1471217870712L1329.5216666666668,301.46441996097565L1330.6658333333332,301.54168850183487L1330.8946666666668,305.26116782426834L1331.3523333333333,305.55351144075394L1331.5811666666666,305.89028692245483L1331.81,302.42714416980743L1333.8695,304.38892793655396L1334.0983333333334,304.7451601624489L1337.5308333333332,303.1792736649513L1338.2173333333333,304.09638154506683L1340.7345,306.3749079108238L1340.9633333333334,303.73668444156647L1341.421,304.2954406142235L1341.6498333333334,305.44954258203506L1343.9381666666666,307.14530485868454L1345.54,306.38386219739914L1346.4553333333333,305.51048612594604L1347.3706666666667,305.2106382250786L1349.4301666666668,304.5697790980339L1350.5743333333335,305.03448951244354L1351.032,304.3814976811409L1351.4896666666666,305.14286148548126L1353.5491666666667,305.65512585639954L1354.6933333333334,305.7986631989479L1355.8375,307.78368562459946L1359.0411666666666,304.560287296772L1359.27,305.71103221178055L1359.7276666666667,305.74942749738693L1360.8718333333334,305.67161017656326L1362.9313333333334,302.66477555036545L1364.3043333333335,303.9087084531784L1366.135,303.79330694675446" style="fill: none;" fill="none"></path></g></g></g></g></g></g><g transform="translate(58, 378)" clip-path="url(#clip_1)"><clipPath id="clip_1"><rect width="1373" height="22"></rect></clipPath><g><g><line x1="0" y1="0" x2="0" y2="5" style="visibility: inherit;" fill="rgb(0, 0, 0)" stroke="rgb(204, 204, 204)" stroke-width="1px"></line><line x1="114.41666666666666" y1="0" x2="114.41666666666666" y2="5" style="visibility: inherit;" fill="rgb(0, 0, 0)" stroke="rgb(204, 204, 204)" stroke-width="1px"></line><line x1="228.83333333333331" y1="0" x2="228.83333333333331" y2="5" style="visibility: inherit;" fill="rgb(0, 0, 0)" stroke="rgb(204, 204, 204)" stroke-width="1px"></line><line x1="343.25" y1="0" x2="343.25" y2="5" style="visibility: inherit;" fill="rgb(0, 0, 0)" stroke="rgb(204, 204, 204)" stroke-width="1px"></line><line x1="457.66666666666663" y1="0" x2="457.66666666666663" y2="5" style="visibility: inherit;" fill="rgb(0, 0, 0)" stroke="rgb(204, 204, 204)" stroke-width="1px"></line><line x1="572.0833333333334" y1="0" x2="572.0833333333334" y2="5" style="visibility: inherit;" fill="rgb(0, 0, 0)" stroke="rgb(204, 204, 204)" stroke-width="1px"></line><line x1="686.5" y1="0" x2="686.5" y2="5" style="visibility: inherit;" fill="rgb(0, 0, 0)" stroke="rgb(204, 204, 204)" stroke-width="1px"></line><line x1="800.9166666666667" y1="0" x2="800.9166666666667" y2="5" style="visibility: inherit;" fill="rgb(0, 0, 0)" stroke="rgb(204, 204, 204)" stroke-width="1px"></line><line x1="915.3333333333333" y1="0" x2="915.3333333333333" y2="5" style="visibility: inherit;" fill="rgb(0, 0, 0)" stroke="rgb(204, 204, 204)" stroke-width="1px"></line><line x1="1029.75" y1="0" x2="1029.75" y2="5" style="visibility: inherit;" fill="rgb(0, 0, 0)" stroke="rgb(204, 204, 204)" stroke-width="1px"></line><line x1="1144.1666666666667" y1="0" x2="1144.1666666666667" y2="5" style="visibility: inherit;" fill="rgb(0, 0, 0)" stroke="rgb(204, 204, 204)" stroke-width="1px"></line><line x1="1258.5833333333333" y1="0" x2="1258.5833333333333" y2="5" style="visibility: inherit;" fill="rgb(0, 0, 0)" stroke="rgb(204, 204, 204)" stroke-width="1px"></line><line x1="1373" y1="0" x2="1373" y2="5" style="visibility: inherit;" fill="rgb(0, 0, 0)" stroke="rgb(204, 204, 204)" stroke-width="1px"></line></g><g transform="translate(0, 8)"><text x="0" y="0" dx="0em" dy="0.95em" style="text-anchor: middle; visibility: hidden; font-family: &quot;Helvetica Neue&quot;, sans-serif; font-size: 12px; font-weight: 200;" fill="rgb(50, 49, 63)" stroke="none" stroke-width="1px">-500</text><text x="114.41666666666666" y="0" dx="0em" dy="0.95em" style="text-anchor: middle; visibility: inherit; font-family: &quot;Helvetica Neue&quot;, sans-serif; font-size: 12px; font-weight: 200;" fill="rgb(50, 49, 63)" stroke="none" stroke-width="1px">0</text><text x="228.83333333333331" y="0" dx="0em" dy="0.95em" style="text-anchor: middle; visibility: inherit; font-family: &quot;Helvetica Neue&quot;, sans-serif; font-size: 12px; font-weight: 200;" fill="rgb(50, 49, 63)" stroke="none" stroke-width="1px">500</text><text x="343.25" y="0" dx="0em" dy="0.95em" style="text-anchor: middle; visibility: inherit; font-family: &quot;Helvetica Neue&quot;, sans-serif; font-size: 12px; font-weight: 200;" fill="rgb(50, 49, 63)" stroke="none" stroke-width="1px">1k</text><text x="457.66666666666663" y="0" dx="0em" dy="0.95em" style="text-anchor: middle; visibility: inherit; font-family: &quot;Helvetica Neue&quot;, sans-serif; font-size: 12px; font-weight: 200;" fill="rgb(50, 49, 63)" stroke="none" stroke-width="1px">1.5k</text><text x="572.0833333333334" y="0" dx="0em" dy="0.95em" style="text-anchor: middle; visibility: inherit; font-family: &quot;Helvetica Neue&quot;, sans-serif; font-size: 12px; font-weight: 200;" fill="rgb(50, 49, 63)" stroke="none" stroke-width="1px">2k</text><text x="686.5" y="0" dx="0em" dy="0.95em" style="text-anchor: middle; visibility: inherit; font-family: &quot;Helvetica Neue&quot;, sans-serif; font-size: 12px; font-weight: 200;" fill="rgb(50, 49, 63)" stroke="none" stroke-width="1px">2.5k</text><text x="800.9166666666667" y="0" dx="0em" dy="0.95em" style="text-anchor: middle; visibility: inherit; font-family: &quot;Helvetica Neue&quot;, sans-serif; font-size: 12px; font-weight: 200;" fill="rgb(50, 49, 63)" stroke="none" stroke-width="1px">3k</text><text x="915.3333333333333" y="0" dx="0em" dy="0.95em" style="text-anchor: middle; visibility: inherit; font-family: &quot;Helvetica Neue&quot;, sans-serif; font-size: 12px; font-weight: 200;" fill="rgb(50, 49, 63)" stroke="none" stroke-width="1px">3.5k</text><text x="1029.75" y="0" dx="0em" dy="0.95em" style="text-anchor: middle; visibility: inherit; font-family: &quot;Helvetica Neue&quot;, sans-serif; font-size: 12px; font-weight: 200;" fill="rgb(50, 49, 63)" stroke="none" stroke-width="1px">4k</text><text x="1144.1666666666667" y="0" dx="0em" dy="0.95em" style="text-anchor: middle; visibility: inherit; font-family: &quot;Helvetica Neue&quot;, sans-serif; font-size: 12px; font-weight: 200;" fill="rgb(50, 49, 63)" stroke="none" stroke-width="1px">4.5k</text><text x="1258.5833333333333" y="0" dx="0em" dy="0.95em" style="text-anchor: middle; visibility: inherit; font-family: &quot;Helvetica Neue&quot;, sans-serif; font-size: 12px; font-weight: 200;" fill="rgb(50, 49, 63)" stroke="none" stroke-width="1px">5k</text><text x="1373" y="0" dx="0em" dy="0.95em" style="text-anchor: middle; visibility: hidden; font-family: &quot;Helvetica Neue&quot;, sans-serif; font-size: 12px; font-weight: 200;" fill="rgb(50, 49, 63)" stroke="none" stroke-width="1px">5.5k</text></g><line x1="0" y1="0" x2="1373" y2="0" fill="rgb(0, 0, 0)" stroke="rgb(204, 204, 204)" stroke-width="1px"></line></g></g></g></g></svg>