<svg viewBox="0 0 1431 400" xmlns="http://www.w3.org/2000/svg"><g><g><g><g><g><line x1="58" y1="378" x2="53" y2="378" style="visibility: inherit;" fill="rgb(0, 0, 0)" stroke="rgb(204, 204, 204)" stroke-width="1px"></line><line x1="58" y1="324" x2="53" y2="324" style="visibility: inherit;" fill="rgb(0, 0, 0)" stroke="rgb(204, 204, 204)" stroke-width="1px"></line><line x1="58" y1="270" x2="53" y2="270" style="visibility: inherit;" fill="rgb(0, 0, 0)" stroke="rgb(204, 204, 204)" stroke-width="1px"></line><line x1="58" y1="216" x2="53" y2="216" style="visibility: inherit;" fill="rgb(0, 0, 0)" stroke="rgb(204, 204, 204)" stroke-width="1px"></line><line x1="58" y1="162" x2="53" y2="162" style="visibility: inherit;" fill="rgb(0, 0, 0)" stroke="rgb(204, 204, 204)" stroke-width="1px"></line><line x1="58" y1="108" x2="53" y2="108" style="visibility: inherit;" fill="rgb(0, 0, 0)" stroke="rgb(204, 204, 204)" stroke-width="1px"></line><line x1="58" y1="54" x2="53" y2="54" style="visibility: inherit;" fill="rgb(0, 0, 0)" stroke="rgb(204, 204, 204)" stroke-width="1px"></line><line x1="58" y1="0" x2="53" y2="0" style="visibility: inherit;" fill="rgb(0, 0, 0)" stroke="rgb(204, 204, 204)" stroke-width="1px"></line></g><g transform="translate(48, 0)"><text x="0" y="378" dx="0em" dy="0.3em" style="text-anchor: end; visibility: hidden; font-family: &quot;Helvetica Neue&quot;, sans-serif; font-size: 12px; font-weight: 200;" fill="rgb(50, 49, 63)" stroke="none" stroke-width="1px">-0.5</text><text x="0" y="324" dx="0em" dy="0.3em" style="text-anchor: end; visibility: inherit; font-family: &quot;Helvetica Neue&quot;, sans-serif; font-size: 12px; font-weight: 200;" fill="rgb(50, 49, 63)" stroke="none" stroke-width="1px">0</text><text x="0" y="270" dx="0em" dy="0.3em" style="text-anchor: end; visibility: inherit; font-family: &quot;Helvetica Neue&quot;, sans-serif; font-size: 12px; font-weight: 200;" fill="rgb(50, 49, 63)" stroke="none" stroke-width="1px">0.5</text><text x="0" y="216" dx="0em" dy="0.3em" style="text-anchor: end; visibility: inherit; font-family: &quot;Helvetica Neue&quot;, sans-serif; font-size: 12px; font-weight: 200;" fill="rgb(50, 49, 63)" stroke="none" stroke-width="1px">1</text><text x="0" y="162" dx="0em" dy="0.3em" style="text-anchor: end; visibility: inherit; font-family: &quot;Helvetica Neue&quot;, sans-serif; font-size: 12px; font-weight: 200;" fill="rgb(50, 49, 63)" stroke="none" stroke-width="1px">1.5</text><text x="0" y="108" dx="0em" dy="0.3em" style="text-anchor: end; visibility: inherit; font-family: &quot;Helvetica Neue&quot;, sans-serif; font-size: 12px; font-weight: 200;" fill="rgb(50, 49, 63)" stroke="none" stroke-width="1px">2</text><text x="0" y="54" dx="0em" dy="0.3em" style="text-anchor: end; visibility: inherit; font-family: &quot;Helvetica Neue&quot;, sans-serif; font-size: 12px; font-weight: 200;" fill="rgb(50, 49, 63)" stroke="none" stroke-width="1px">2.5</text><text x="0" y="0" dx="0em" dy="0.3em" style="text-anchor: end; visibility: hidden; font-family: &quot;Helvetica Neue&quot;, sans-serif; font-size: 12px; font-weight: 200;" fill="rgb(50, 49, 63)" stroke="none" stroke-width="1px">3</text></g><line x1="58" y1="0" x2="58" y2="378" fill="rgb(0, 0, 0)" stroke="rgb(204, 204, 204)" stroke-width="1px"></line></g></g><g transform="translate(58, 0)" clip-path="url(#clip_0)"><clipPath id="clip_0"><rect width="1373" height="378"></rect></clipPath><g><g><g><line x1="0" y1="0" x2="0" y2="378" fill="rgb(0, 0, 0)" stroke="rgb(60, 60, 60)" stroke-width="1px" opacity="0.25"></line><line x1="124.81818181818183" y1="0" x2="124.81818181818183" y2="378" fill="rgb(0, 0, 0)" stroke="rgb(60, 60, 60)" stroke-width="1px" opacity="0.25"></line><line x1="249.63636363636365" y1="0" x2="249.63636363636365" y2="378" fill="rgb(0, 0, 0)" stroke="rgb(60, 60, 60)" stroke-width="1px" opacity="0.25"></line><line x1="374.45454545454544" y1="0" x2="374.45454545454544" y2="378" fill="rgb(0, 0, 0)" stroke="rgb(60, 60, 60)" stroke-width="1px" opacity="0.25"></line><line x1="499.2727272727273" y1="0" x2="499.2727272727273" y2="378" fill="rgb(0, 0, 0)" stroke="rgb(60, 60, 60)" stroke-width="1px" opacity="0.25"></line><line x1="624.0909090909091" y1="0" x2="624.0909090909091" y2="378" fill="rgb(0, 0, 0)" stroke="rgb(60, 60, 60)" stroke-width="1px" opacity="0.25"></line><line x1="748.9090909090909" y1="0" x2="748.9090909090909" y2="378" fill="rgb(0, 0, 0)" stroke="rgb(60, 60, 60)" stroke-width="1px" opacity="0.25"></line><line x1="873.7272727272727" y1="0" x2="873.7272727272727" y2="378" fill="rgb(0, 0, 0)" stroke="rgb(60, 60, 60)" stroke-width="1px" opacity="0.25"></line><line x1="998.5454545454546" y1="0" x2="998.5454545454546" y2="378" fill="rgb(0, 0, 0)" stroke="rgb(60, 60, 60)" stroke-width="1px" opacity="0.25"></line><line x1="1123.3636363636365" y1="0" x2="1123.3636363636365" y2="378" fill="rgb(0, 0, 0)" stroke="rgb(60, 60, 60)" stroke-width="1px" opacity="0.25"></line><line x1="1248.1818181818182" y1="0" x2="1248.1818181818182" y2="378" fill="rgb(0, 0, 0)" stroke="rgb(60, 60, 60)" stroke-width="1px" opacity="0.25"></line><line x1="1373" y1="0" x2="1373" y2="378" fill="rgb(0, 0, 0)" stroke="rgb(60, 60, 60)" stroke-width="1px" opacity="0.25"></line></g><g><line x1="0" y1="378" x2="1373" y2="378" fill="rgb(0, 0, 0)" stroke="rgb(60, 60, 60)" stroke-width="1px" opacity="0.25"></line><line x1="0" y1="324" x2="1373" y2="324" fill="rgb(0, 0, 0)" stroke="rgb(60, 60, 60)" stroke-width="1px" opacity="0.25"></line><line x1="0" y1="270" x2="1373" y2="270" fill="rgb(0, 0, 0)" stroke="rgb(60, 60, 60)" stroke-width="1px" opacity="0.25"></line><line x1="0" y1="216" x2="1373" y2="216" fill="rgb(0, 0, 0)" stroke="rgb(60, 60, 60)" stroke-width="1px" opacity="0.25"></line><line x1="0" y1="162" x2="1373" y2="162" fill="rgb(0, 0, 0)" stroke="rgb(60, 60, 60)" stroke-width="1px" opacity="0.25"></line><line x1="0" y1="108" x2="1373" y2="108" fill="rgb(0, 0, 0)" stroke="rgb(60, 60, 60)" stroke-width="1px" opacity="0.25"></line><line x1="0" y1="54" x2="1373" y2="54" fill="rgb(0, 0, 0)" stroke="rgb(60, 60, 60)" stroke-width="1px" opacity="0.25"></line><line x1="0" y1="0" x2="1373" y2="0" fill="rgb(0, 0, 0)" stroke="rgb(60, 60, 60)" stroke-width="1px" opacity="0.25"></line></g></g></g><g><g><line x1="0" y1="324" x2="1373" y2="324" fill="rgb(0, 0, 0)" stroke="rgb(153, 153, 153)" stroke-width="1.5px"></line></g></g><g><g><line x1="124.81818181818183" y1="0" x2="124.81818181818183" y2="378" fill="rgb(0, 0, 0)" stroke="rgb(153, 153, 153)" stroke-width="1.5px"></line></g></g><g><g><g><g><g><path stroke="rgb(255, 112, 67)" stroke-width="2px" d="M131.0590909090909,74.45313549041748L147.28545454545454,74.85747849941254L154.77454545454546,74.58898882963217L174.74545454545452,74.96896688377154L177.2418181818182,75.31129302025505L180.98636363636362,75.56848114440828L183.48272727272726,75.9163079411855L190.97181818181818,76.49338980118665L194.71636363636364,76.82413317090368L213.4390909090909,77.48254155161607L217.18363636363634,78.10334678943292L223.42454545454544,78.77216909339711L233.41000000000003,79.90122589642408L242.14727272727274,81.27582915266294L252.13272727272727,83.58388731709624L255.87727272727273,85.21014862884016L257.12545454545455,86.57177100946785L265.8627272727273,89.286907919687L282.0890909090909,96.68273069264148L298.31545454545454,108.44150639963055L312.04545454545456,126.68551909226909L318.2863636363636,143.5362833853213L322.0309090909091,155.522006783546L333.26454545454544,172.3730400050058L334.51272727272726,181.4130567810579L346.99454545454546,194.687528228876L353.23545454545456,199.64290435621228L355.7318181818182,206.512107725315L356.98,209.7764253456996L361.97272727272724,211.352732043632L371.95818181818186,216.25998801781554L381.94363636363636,216.18342600924692L383.19181818181823,220.03315854969537L389.4327272727273,222.83923152918425L403.1627272727273,224.42037539717566L410.65181818181816,228.574281765373L416.8927272727273,227.46085342275552L420.6372727272727,229.27233944914315L435.61545454545455,229.09320437022816L443.1045454545455,232.81737520661343L449.3454545454545,235.29342843711123L458.08272727272725,236.45191927977368L463.07545454545453,237.02222025546783L465.57181818181823,239.55388162271342L489.28727272727275,241.29485462764816L495.5281818181818,240.70719880255322L496.7763636363636,242.5046666288587L503.01727272727277,242.95904835607908L509.2581818181818,245.80525136323413L511.75454545454545,245.27249350745035L521.74,244.12539576648248L522.9881818181818,244.33085860704583L531.7254545454546,245.7299811714626L536.7181818181818,247.41526464663542L547.9518181818182,250.63072903181876L557.9372727272728,250.6401674224482L577.9081818181818,249.06615268430352L582.9009090909091,251.69095723176778L590.39,251.15643406119807L595.3827272727273,252.74767084245013L597.8790909090909,251.883965321327L650.3027272727272,252.29033936735675L651.550909090909,253.53105977580958L654.0472727272728,254.27911235932118L661.5363636363636,256.40893451001415L672.77,256.44547915235853L675.2663636363636,256.15707907543003L676.5145454545454,256.4936081019963L680.2590909090909,255.82096916722804L687.7481818181817,255.97264942102163L698.9818181818181,257.62319946630316L702.7263636363637,258.6808533688993L703.9745454545454,258.54732370499437L716.4563636363637,258.3955355651597L737.6754545454545,258.27225299879433L740.1718181818181,257.9169450533659L757.6463636363636,259.8202806909246L763.8872727272727,261.1087718844034L766.3836363636365,261.64060168502436L770.1281818181818,260.8399232210976L780.1136363636365,261.935697173015L787.6027272727273,263.53755746777995L790.0990909090909,263.8539856105813L793.8436363636363,262.2399921315771L801.3327272727272,260.7399650512851L807.5736363636363,261.7516394197176L820.0554545454546,263.1545520150203L827.5445454545455,264.0435442163669L835.0336363636363,265.15541863644853L840.0263636363636,264.76259007575953L847.5154545454546,263.5484720142057L850.0118181818183,264.0124366325957L851.26,264.388863232304L853.7563636363636,265.14263199959356L856.2527272727273,266.2197878789554L857.5009090909091,264.8788812417775L863.7418181818183,265.8444767629498L864.99,265.12694953891L876.2236363636364,263.66105760939337L883.7127272727273,264.7804101813282L886.209090909091,262.615120918062L892.45,265.11555950075785L898.690909090909,266.98307843345646L901.1872727272728,267.06598689161683L916.1654545454545,267.906345903891L924.9027272727272,268.67736943961245L926.1509090909091,267.939019968516L928.6472727272727,267.78982933187865L931.1436363636365,267.3918317307495L932.3918181818182,269.1469448655523L934.8881818181818,269.56736890373696L949.8663636363635,269.6789451116208L953.6109090909091,267.50090506517193L958.6036363636364,266.3758936097819L962.3481818181818,268.9528853518127L966.0927272727272,267.92010939254516L971.0854545454546,265.5913222082505L972.3336363636363,266.1731905608207L977.3263636363636,267.3670992653864L983.5672727272727,269.74307483442414L997.2972727272727,271.20717712645404L1002.29,267.8350908065121L1006.0345454545455,268.62917557384253L1016.02,269.6429608763795L1021.0127272727273,268.72137385019903L1024.7572727272727,268.9638764226988L1026.0054545454545,267.3076313116881L1027.2536363636364,267.8483361112316L1035.990909090909,271.6294534985566L1043.48,270.33608169462343L1045.9763636363637,271.70193426076213L1047.2245454545455,271.75796122708107L1052.2172727272728,270.96843707178937L1057.21,270.60467426547353L1062.2027272727273,270.4556407485542L1063.4509090909091,270.3492622109733L1068.4436363636364,271.0994228680421L1079.6772727272728,270.2370834922486L1084.67,272.5378352508362L1085.918181818182,272.9465164008985L1087.1663636363637,273.1866009988338L1089.6627272727271,272.92400998818573L1090.9109090909092,272.9083373722297L1098.4,273.3241394625224L1103.3927272727271,274.27292410529355L1104.6409090909092,275.46202206609667L1107.1372727272728,273.1579635143162L1109.6336363636365,274.4279966354299L1113.378181818182,273.61058335303835L1114.6263636363635,271.9883328723882L1115.8745454545456,271.27898276138154L1117.1227272727272,272.50030353240874L1120.8672727272728,270.5663691197199L1125.86,270.90041002239957L1132.1009090909092,272.853145316876L1133.3490909090908,273.4751877043468L1134.5972727272729,274.7200997384681L1142.0863636363636,274.19049142076335L1163.3054545454545,273.45402115746595L1168.2981818181818,273.03963786461503L1170.7945454545454,275.5558984643135L1177.0354545454545,275.23721911704024L1206.9918181818182,274.81154695865797L1209.4881818181818,274.9349544031458L1215.729090909091,274.85877799886686L1218.2254545454546,276.5360223764075L1223.2181818181818,275.3177457042869L1225.7145454545455,274.257640468379L1235.7,273.20684644418964L1243.1890909090907,274.736822443235L1248.1818181818182,275.03477358640913L1256.9190909090908,276.7082264889579L1259.4154545454544,277.4163046639741L1266.9045454545455,276.8060334659565L1269.4009090909092,277.25285173278735L1273.1454545454544,274.8855075408321L1276.89,273.3448728304685L1286.8754545454544,274.00104782471544L1288.1236363636365,275.78651159697466L1291.868181818182,276.5180998903137L1300.6054545454544,276.79253474841244L1304.35,278.7769204137905L1315.5836363636363,276.79073701847693L1320.5763636363636,277.90799438088595L1324.3209090909093,278.4922704883186L1325.5690909090908,279.8105492703776L1336.8027272727272,279.28338890747193L1338.050909090909,280.1065143911598L1343.0436363636363,278.2478533368443L1345.54,277.59694450981226L1346.7881818181818,277.76755682162525L1351.780909090909,277.98876580913117L1353.0290909090909,277.74758568596394L1356.7736363636363,278.6900348615143L1358.0218181818182,278.9004524202045L1368.0072727272727,279.37021282022573L1373,277.8059861344419L1375.4963636363634,278.9430717755748" style="fill: none;" fill="none"></path></g></g></g></g><g opacity="0.2"><g><g><g><path stroke="rgb(255, 112, 67)" stroke-width="2px" d="M131.0590909090909,74.45313549041748L147.28545454545454,75.10008430480957L154.77454545454546,74.33123874664307L174.74545454545452,75.41582107543945L177.2418181818182,75.75823402404785L180.98636363636362,75.92426490783691L183.48272727272726,76.41370582580566L190.97181818181818,77.3347806930542L194.71636363636364,77.31191539764404L213.4390909090909,78.46020126342773L217.18363636363634,79.02892398834229L223.42454545454544,79.77176284790039L233.41000000000003,81.59112453460693L242.14727272727274,83.33504104614258L252.13272727272727,87.04326152801514L255.87727272727273,87.64839363098145L257.12545454545455,88.61362838745117L265.8627272727273,93.35892391204834L282.0890909090909,107.7753381729126L298.31545454545454,126.07859516143799L312.04545454545456,154.0505375862122L318.2863636363636,168.81187534332273L322.0309090909091,173.5003552436829L333.26454545454544,197.6493902206421L334.51272727272726,194.97301769256592L346.99454545454546,214.59917879104614L353.23545454545456,207.07595586776733L355.7318181818182,216.81590223312378L356.98,214.67289876937866L361.97272727272724,213.71719121932983L371.95818181818186,223.62087035179138L381.94363636363636,216.0685830116272L383.19181818181823,225.80775690078735L389.4327272727273,227.04834079742432L403.1627272727273,226.79209113121033L410.65181818181816,234.80514121055603L416.8927272727273,225.7907109260559L420.6372727272727,231.98956847190857L435.61545454545455,228.8245017528534L443.1045454545455,238.40363144874573L449.3454545454545,239.00750827789307L458.08272727272725,238.18965554237366L463.07545454545453,237.8776717185974L465.57181818181823,243.35137367248535L489.28727272727275,243.90631413459778L495.5281818181818,239.82571506500244L496.7763636363636,245.2008683681488L503.01727272727277,243.64062094688416L509.2581818181818,250.07455587387085L511.75454545454545,244.4733567237854L521.74,242.40474915504456L522.9881818181818,244.6390528678894L531.7254545454546,247.82866501808167L536.7181818181818,249.94318985939026L547.9518181818182,255.45392560958862L557.9372727272728,250.65432500839233L577.9081818181818,246.7051305770874L582.9009090909091,255.62816405296326L590.39,250.35464930534363L595.3827272727273,255.134526014328L597.8790909090909,250.58840703964233L650.3027272727272,252.89990043640137L651.550909090909,255.39214038848877L654.0472727272728,255.40119123458862L661.5363636363636,259.60366773605347L672.77,256.50029611587524L675.2663636363636,255.72447896003723L676.5145454545454,256.9984016418457L680.2590909090909,254.81201076507568L687.7481818181817,256.20016980171204L698.9818181818181,260.09902453422546L702.7263636363637,260.2673342227936L703.9745454545454,258.34702920913696L716.4563636363637,258.1678533554077L737.6754545454545,258.0873291492462L740.1718181818181,257.3839831352234L757.6463636363636,262.6752841472626L763.8872727272727,263.0415086746216L766.3836363636365,262.4383463859558L770.1281818181818,259.6389055252075L780.1136363636365,263.5793581008911L787.6027272727273,265.94034790992737L790.0990909090909,264.3286278247833L793.8436363636363,259.8190019130707L801.3327272727272,258.48992443084717L807.5736363636363,263.26915097236633L820.0554545454546,265.25892090797424L827.5445454545455,265.37703251838684L835.0336363636363,266.82323026657104L840.0263636363636,264.17334723472595L847.5154545454546,261.727294921875L850.0118181818183,264.70838356018066L851.26,264.95350313186646L853.7563636363636,266.27328515052795L856.2527272727273,267.83552169799805L857.5009090909091,262.86752128601074L863.7418181818183,267.29287004470825L864.99,264.05065870285034L876.2236363636364,261.4622197151184L883.7127272727273,266.45943903923035L886.209090909091,259.36718702316284L892.45,268.86621737480164L898.690909090909,269.7843568325043L901.1872727272728,267.1903495788574L916.1654545454545,269.16688442230225L924.9027272727272,269.8339047431946L926.1509090909091,266.83149576187134L928.6472727272727,267.5660433769226L931.1436363636365,266.7948353290558L932.3918181818182,271.77961456775665L934.8881818181818,270.1980049610138L949.8663636363635,269.84630942344666L953.6109090909091,264.23384499549866L958.6036363636364,264.6883764266968L962.3481818181818,272.818372964859L966.0927272727272,266.3709454536438L971.0854545454546,262.0981414318085L972.3336363636363,267.0459930896759L977.3263636363636,269.1579623222351L983.5672727272727,273.30703818798065L997.2972727272727,273.4033305644989L1002.29,262.7769613265991L1006.0345454545455,269.82030272483826L1016.02,271.16363883018494L1021.0127272727273,267.33899331092834L1024.7572727272727,269.32763028144836L1026.0054545454545,264.8232636451721L1027.2536363636364,268.6593933105469L1035.990909090909,277.30112957954407L1043.48,268.39602398872375L1045.9763636363637,273.7507131099701L1047.2245454545455,271.84200167655945L1052.2172727272728,269.78415083885193L1057.21,270.05903005599976L1062.2027272727273,270.23209047317505L1063.4509090909091,270.18969440460205L1068.4436363636364,272.2246638536453L1079.6772727272728,268.94357442855835L1084.67,275.98896288871765L1085.918181818182,273.5595381259918L1087.1663636363637,273.5467278957367L1089.6627272727271,272.53012347221375L1090.9109090909092,272.8848284482956L1098.4,273.9478425979614L1103.3927272727271,275.6961010694504L1104.6409090909092,277.24566900730133L1107.1372727272728,269.7018756866455L1109.6336363636365,276.3330463171005L1113.378181818182,272.384463429451L1114.6263636363635,269.55495715141296L1115.8745454545456,270.2149575948715L1117.1227272727272,274.3322846889496L1120.8672727272728,267.66546750068665L1125.86,271.40147137641907L1132.1009090909092,275.7822482585907L1133.3490909090908,274.408251285553L1134.5972727272729,276.58746778964996L1142.0863636363636,273.39607894420624L1163.3054545454545,272.34931576251984L1168.2981818181818,272.41806292533875L1170.7945454545454,279.3302893638611L1177.0354545454545,274.75920009613037L1206.9918181818182,274.1730387210846L1209.4881818181818,275.1200655698776L1215.729090909091,274.7445133924484L1218.2254545454546,279.0518889427185L1223.2181818181818,273.49033069610596L1225.7145454545455,272.6674826145172L1235.7,271.6306554079056L1243.1890909090907,277.031786441803L1248.1818181818182,275.48170030117035L1256.9190909090908,279.21840584278107L1259.4154545454544,278.4784219264984L1266.9045454545455,275.89062666893005L1269.4009090909092,277.92307913303375L1273.1454545454544,271.33449125289917L1276.89,271.0339207649231L1286.8754545454544,274.9853103160858L1288.1236363636365,278.46470725536346L1291.868181818182,277.61548233032227L1300.6054545454544,277.2041870355606L1304.35,281.7534989118576L1315.5836363636363,273.8114619255066L1320.5763636363636,279.5838804244995L1324.3209090909093,279.36868464946747L1325.5690909090908,281.7879674434662L1336.8027272727272,278.4926483631134L1338.050909090909,281.3412026166916L1343.0436363636363,275.4598617553711L1345.54,276.6205812692642L1346.7881818181818,278.0234752893448L1351.780909090909,278.32057929039L1353.0290909090909,277.3858155012131L1356.7736363636363,280.1037086248398L1358.0218181818182,279.21607875823975L1368.0072727272727,280.07485342025757L1373,275.4596461057663L1375.4963636363634,280.64870023727417" style="fill: none;" fill="none"></path></g></g></g></g></g></g><g transform="translate(58, 378)" clip-path="url(#clip_1)"><clipPath id="clip_1"><rect width="1373" height="22"></rect></clipPath><g><g><line x1="0" y1="0" x2="0" y2="5" style="visibility: inherit;" fill="rgb(0, 0, 0)" stroke="rgb(204, 204, 204)" stroke-width="1px"></line><line x1="124.81818181818183" y1="0" x2="124.81818181818183" y2="5" style="visibility: inherit;" fill="rgb(0, 0, 0)" stroke="rgb(204, 204, 204)" stroke-width="1px"></line><line x1="249.63636363636365" y1="0" x2="249.63636363636365" y2="5" style="visibility: inherit;" fill="rgb(0, 0, 0)" stroke="rgb(204, 204, 204)" stroke-width="1px"></line><line x1="374.45454545454544" y1="0" x2="374.45454545454544" y2="5" style="visibility: inherit;" fill="rgb(0, 0, 0)" stroke="rgb(204, 204, 204)" stroke-width="1px"></line><line x1="499.2727272727273" y1="0" x2="499.2727272727273" y2="5" style="visibility: inherit;" fill="rgb(0, 0, 0)" stroke="rgb(204, 204, 204)" stroke-width="1px"></line><line x1="624.0909090909091" y1="0" x2="624.0909090909091" y2="5" style="visibility: inherit;" fill="rgb(0, 0, 0)" stroke="rgb(204, 204, 204)" stroke-width="1px"></line><line x1="748.9090909090909" y1="0" x2="748.9090909090909" y2="5" style="visibility: inherit;" fill="rgb(0, 0, 0)" stroke="rgb(204, 204, 204)" stroke-width="1px"></line><line x1="873.7272727272727" y1="0" x2="873.7272727272727" y2="5" style="visibility: inherit;" fill="rgb(0, 0, 0)" stroke="rgb(204, 204, 204)" stroke-width="1px"></line><line x1="998.5454545454546" y1="0" x2="998.5454545454546" y2="5" style="visibility: inherit;" fill="rgb(0, 0, 0)" stroke="rgb(204, 204, 204)" stroke-width="1px"></line><line x1="1123.3636363636365" y1="0" x2="1123.3636363636365" y2="5" style="visibility: inherit;" fill="rgb(0, 0, 0)" stroke="rgb(204, 204, 204)" stroke-width="1px"></line><line x1="1248.1818181818182" y1="0" x2="1248.1818181818182" y2="5" style="visibility: inherit;" fill="rgb(0, 0, 0)" stroke="rgb(204, 204, 204)" stroke-width="1px"></line><line x1="1373" y1="0" x2="1373" y2="5" style="visibility: inherit;" fill="rgb(0, 0, 0)" stroke="rgb(204, 204, 204)" stroke-width="1px"></line></g><g transform="translate(0, 8)"><text x="0" y="0" dx="0em" dy="0.95em" style="text-anchor: middle; visibility: hidden; font-family: &quot;Helvetica Neue&quot;, sans-serif; font-size: 12px; font-weight: 200;" fill="rgb(50, 49, 63)" stroke="none" stroke-width="1px">-100</text><text x="124.81818181818183" y="0" dx="0em" dy="0.95em" style="text-anchor: middle; visibility: inherit; font-family: &quot;Helvetica Neue&quot;, sans-serif; font-size: 12px; font-weight: 200;" fill="rgb(50, 49, 63)" stroke="none" stroke-width="1px">0</text><text x="249.63636363636365" y="0" dx="0em" dy="0.95em" style="text-anchor: middle; visibility: inherit; font-family: &quot;Helvetica Neue&quot;, sans-serif; font-size: 12px; font-weight: 200;" fill="rgb(50, 49, 63)" stroke="none" stroke-width="1px">100</text><text x="374.45454545454544" y="0" dx="0em" dy="0.95em" style="text-anchor: middle; visibility: inherit; font-family: &quot;Helvetica Neue&quot;, sans-serif; font-size: 12px; font-weight: 200;" fill="rgb(50, 49, 63)" stroke="none" stroke-width="1px">200</text><text x="499.2727272727273" y="0" dx="0em" dy="0.95em" style="text-anchor: middle; visibility: inherit; font-family: &quot;Helvetica Neue&quot;, sans-serif; font-size: 12px; font-weight: 200;" fill="rgb(50, 49, 63)" stroke="none" stroke-width="1px">300</text><text x="624.0909090909091" y="0" dx="0em" dy="0.95em" style="text-anchor: middle; visibility: inherit; font-family: &quot;Helvetica Neue&quot;, sans-serif; font-size: 12px; font-weight: 200;" fill="rgb(50, 49, 63)" stroke="none" stroke-width="1px">400</text><text x="748.9090909090909" y="0" dx="0em" dy="0.95em" style="text-anchor: middle; visibility: inherit; font-family: &quot;Helvetica Neue&quot;, sans-serif; font-size: 12px; font-weight: 200;" fill="rgb(50, 49, 63)" stroke="none" stroke-width="1px">500</text><text x="873.7272727272727" y="0" dx="0em" dy="0.95em" style="text-anchor: middle; visibility: inherit; font-family: &quot;Helvetica Neue&quot;, sans-serif; font-size: 12px; font-weight: 200;" fill="rgb(50, 49, 63)" stroke="none" stroke-width="1px">600</text><text x="998.5454545454546" y="0" dx="0em" dy="0.95em" style="text-anchor: middle; visibility: inherit; font-family: &quot;Helvetica Neue&quot;, sans-serif; font-size: 12px; font-weight: 200;" fill="rgb(50, 49, 63)" stroke="none" stroke-width="1px">700</text><text x="1123.3636363636365" y="0" dx="0em" dy="0.95em" style="text-anchor: middle; visibility: inherit; font-family: &quot;Helvetica Neue&quot;, sans-serif; font-size: 12px; font-weight: 200;" fill="rgb(50, 49, 63)" stroke="none" stroke-width="1px">800</text><text x="1248.1818181818182" y="0" dx="0em" dy="0.95em" style="text-anchor: middle; visibility: inherit; font-family: &quot;Helvetica Neue&quot;, sans-serif; font-size: 12px; font-weight: 200;" fill="rgb(50, 49, 63)" stroke="none" stroke-width="1px">900</text><text x="1373" y="0" dx="0em" dy="0.95em" style="text-anchor: middle; visibility: hidden; font-family: &quot;Helvetica Neue&quot;, sans-serif; font-size: 12px; font-weight: 200;" fill="rgb(50, 49, 63)" stroke="none" stroke-width="1px">1k</text></g><line x1="0" y1="0" x2="1373" y2="0" fill="rgb(0, 0, 0)" stroke="rgb(204, 204, 204)" stroke-width="1px"></line></g></g></g></g></svg>