<svg viewBox="0 0 1431 400" xmlns="http://www.w3.org/2000/svg"><g><g><g><g><g><line x1="70" y1="378" x2="65" y2="378" style="visibility: inherit;" fill="rgb(0, 0, 0)" stroke="rgb(204, 204, 204)" stroke-width="1px"></line><line x1="70" y1="346.5" x2="65" y2="346.5" style="visibility: inherit;" fill="rgb(0, 0, 0)" stroke="rgb(204, 204, 204)" stroke-width="1px"></line><line x1="70" y1="315" x2="65" y2="315" style="visibility: inherit;" fill="rgb(0, 0, 0)" stroke="rgb(204, 204, 204)" stroke-width="1px"></line><line x1="70" y1="283.5" x2="65" y2="283.5" style="visibility: inherit;" fill="rgb(0, 0, 0)" stroke="rgb(204, 204, 204)" stroke-width="1px"></line><line x1="70" y1="252" x2="65" y2="252" style="visibility: inherit;" fill="rgb(0, 0, 0)" stroke="rgb(204, 204, 204)" stroke-width="1px"></line><line x1="70" y1="220.5" x2="65" y2="220.5" style="visibility: inherit;" fill="rgb(0, 0, 0)" stroke="rgb(204, 204, 204)" stroke-width="1px"></line><line x1="70" y1="189.00000000000003" x2="65" y2="189.00000000000003" style="visibility: inherit;" fill="rgb(0, 0, 0)" stroke="rgb(204, 204, 204)" stroke-width="1px"></line><line x1="70" y1="157.50000000000003" x2="65" y2="157.50000000000003" style="visibility: inherit;" fill="rgb(0, 0, 0)" stroke="rgb(204, 204, 204)" stroke-width="1px"></line><line x1="70" y1="126.00000000000006" x2="65" y2="126.00000000000006" style="visibility: inherit;" fill="rgb(0, 0, 0)" stroke="rgb(204, 204, 204)" stroke-width="1px"></line><line x1="70" y1="94.50000000000006" x2="65" y2="94.50000000000006" style="visibility: inherit;" fill="rgb(0, 0, 0)" stroke="rgb(204, 204, 204)" stroke-width="1px"></line><line x1="70" y1="63" x2="65" y2="63" style="visibility: inherit;" fill="rgb(0, 0, 0)" stroke="rgb(204, 204, 204)" stroke-width="1px"></line><line x1="70" y1="31.5" x2="65" y2="31.5" style="visibility: inherit;" fill="rgb(0, 0, 0)" stroke="rgb(204, 204, 204)" stroke-width="1px"></line><line x1="70" y1="0" x2="65" y2="0" style="visibility: inherit;" fill="rgb(0, 0, 0)" stroke="rgb(204, 204, 204)" stroke-width="1px"></line></g><g transform="translate(60, 0)"><text x="0" y="378" dx="0em" dy="0.3em" style="text-anchor: end; visibility: hidden; font-family: &quot;Helvetica Neue&quot;, sans-serif; font-size: 12px; font-weight: 200;" fill="rgb(50, 49, 63)" stroke="none" stroke-width="1px">-0.05</text><text x="0" y="346.5" dx="0em" dy="0.3em" style="text-anchor: end; visibility: inherit; font-family: &quot;Helvetica Neue&quot;, sans-serif; font-size: 12px; font-weight: 200;" fill="rgb(50, 49, 63)" stroke="none" stroke-width="1px">0</text><text x="0" y="315" dx="0em" dy="0.3em" style="text-anchor: end; visibility: inherit; font-family: &quot;Helvetica Neue&quot;, sans-serif; font-size: 12px; font-weight: 200;" fill="rgb(50, 49, 63)" stroke="none" stroke-width="1px">0.05</text><text x="0" y="283.5" dx="0em" dy="0.3em" style="text-anchor: end; visibility: inherit; font-family: &quot;Helvetica Neue&quot;, sans-serif; font-size: 12px; font-weight: 200;" fill="rgb(50, 49, 63)" stroke="none" stroke-width="1px">0.1</text><text x="0" y="252" dx="0em" dy="0.3em" style="text-anchor: end; visibility: inherit; font-family: &quot;Helvetica Neue&quot;, sans-serif; font-size: 12px; font-weight: 200;" fill="rgb(50, 49, 63)" stroke="none" stroke-width="1px">0.15</text><text x="0" y="220.5" dx="0em" dy="0.3em" style="text-anchor: end; visibility: inherit; font-family: &quot;Helvetica Neue&quot;, sans-serif; font-size: 12px; font-weight: 200;" fill="rgb(50, 49, 63)" stroke="none" stroke-width="1px">0.2</text><text x="0" y="189.00000000000003" dx="0em" dy="0.3em" style="text-anchor: end; visibility: inherit; font-family: &quot;Helvetica Neue&quot;, sans-serif; font-size: 12px; font-weight: 200;" fill="rgb(50, 49, 63)" stroke="none" stroke-width="1px">0.25</text><text x="0" y="157.50000000000003" dx="0em" dy="0.3em" style="text-anchor: end; visibility: inherit; font-family: &quot;Helvetica Neue&quot;, sans-serif; font-size: 12px; font-weight: 200;" fill="rgb(50, 49, 63)" stroke="none" stroke-width="1px">0.3</text><text x="0" y="126.00000000000006" dx="0em" dy="0.3em" style="text-anchor: end; visibility: inherit; font-family: &quot;Helvetica Neue&quot;, sans-serif; font-size: 12px; font-weight: 200;" fill="rgb(50, 49, 63)" stroke="none" stroke-width="1px">0.35</text><text x="0" y="94.50000000000006" dx="0em" dy="0.3em" style="text-anchor: end; visibility: inherit; font-family: &quot;Helvetica Neue&quot;, sans-serif; font-size: 12px; font-weight: 200;" fill="rgb(50, 49, 63)" stroke="none" stroke-width="1px">0.4</text><text x="0" y="63" dx="0em" dy="0.3em" style="text-anchor: end; visibility: inherit; font-family: &quot;Helvetica Neue&quot;, sans-serif; font-size: 12px; font-weight: 200;" fill="rgb(50, 49, 63)" stroke="none" stroke-width="1px">0.45</text><text x="0" y="31.5" dx="0em" dy="0.3em" style="text-anchor: end; visibility: inherit; font-family: &quot;Helvetica Neue&quot;, sans-serif; font-size: 12px; font-weight: 200;" fill="rgb(50, 49, 63)" stroke="none" stroke-width="1px">0.5</text><text x="0" y="0" dx="0em" dy="0.3em" style="text-anchor: end; visibility: hidden; font-family: &quot;Helvetica Neue&quot;, sans-serif; font-size: 12px; font-weight: 200;" fill="rgb(50, 49, 63)" stroke="none" stroke-width="1px">0.55</text></g><line x1="70" y1="0" x2="70" y2="378" fill="rgb(0, 0, 0)" stroke="rgb(204, 204, 204)" stroke-width="1px"></line></g></g><g transform="translate(70, 0)" clip-path="url(#clip_0)"><clipPath id="clip_0"><rect width="1361" height="378"></rect></clipPath><g><g><g><line x1="0" y1="0" x2="0" y2="378" fill="rgb(0, 0, 0)" stroke="rgb(60, 60, 60)" stroke-width="1px" opacity="0.25"></line><line x1="151.2222222222222" y1="0" x2="151.2222222222222" y2="378" fill="rgb(0, 0, 0)" stroke="rgb(60, 60, 60)" stroke-width="1px" opacity="0.25"></line><line x1="302.4444444444444" y1="0" x2="302.4444444444444" y2="378" fill="rgb(0, 0, 0)" stroke="rgb(60, 60, 60)" stroke-width="1px" opacity="0.25"></line><line x1="453.66666666666663" y1="0" x2="453.66666666666663" y2="378" fill="rgb(0, 0, 0)" stroke="rgb(60, 60, 60)" stroke-width="1px" opacity="0.25"></line><line x1="604.8888888888888" y1="0" x2="604.8888888888888" y2="378" fill="rgb(0, 0, 0)" stroke="rgb(60, 60, 60)" stroke-width="1px" opacity="0.25"></line><line x1="756.1111111111112" y1="0" x2="756.1111111111112" y2="378" fill="rgb(0, 0, 0)" stroke="rgb(60, 60, 60)" stroke-width="1px" opacity="0.25"></line><line x1="907.3333333333333" y1="0" x2="907.3333333333333" y2="378" fill="rgb(0, 0, 0)" stroke="rgb(60, 60, 60)" stroke-width="1px" opacity="0.25"></line><line x1="1058.5555555555557" y1="0" x2="1058.5555555555557" y2="378" fill="rgb(0, 0, 0)" stroke="rgb(60, 60, 60)" stroke-width="1px" opacity="0.25"></line><line x1="1209.7777777777776" y1="0" x2="1209.7777777777776" y2="378" fill="rgb(0, 0, 0)" stroke="rgb(60, 60, 60)" stroke-width="1px" opacity="0.25"></line><line x1="1361" y1="0" x2="1361" y2="378" fill="rgb(0, 0, 0)" stroke="rgb(60, 60, 60)" stroke-width="1px" opacity="0.25"></line></g><g><line x1="0" y1="378" x2="1361" y2="378" fill="rgb(0, 0, 0)" stroke="rgb(60, 60, 60)" stroke-width="1px" opacity="0.25"></line><line x1="0" y1="346.5" x2="1361" y2="346.5" fill="rgb(0, 0, 0)" stroke="rgb(60, 60, 60)" stroke-width="1px" opacity="0.25"></line><line x1="0" y1="315" x2="1361" y2="315" fill="rgb(0, 0, 0)" stroke="rgb(60, 60, 60)" stroke-width="1px" opacity="0.25"></line><line x1="0" y1="283.5" x2="1361" y2="283.5" fill="rgb(0, 0, 0)" stroke="rgb(60, 60, 60)" stroke-width="1px" opacity="0.25"></line><line x1="0" y1="252" x2="1361" y2="252" fill="rgb(0, 0, 0)" stroke="rgb(60, 60, 60)" stroke-width="1px" opacity="0.25"></line><line x1="0" y1="220.5" x2="1361" y2="220.5" fill="rgb(0, 0, 0)" stroke="rgb(60, 60, 60)" stroke-width="1px" opacity="0.25"></line><line x1="0" y1="189.00000000000003" x2="1361" y2="189.00000000000003" fill="rgb(0, 0, 0)" stroke="rgb(60, 60, 60)" stroke-width="1px" opacity="0.25"></line><line x1="0" y1="157.50000000000003" x2="1361" y2="157.50000000000003" fill="rgb(0, 0, 0)" stroke="rgb(60, 60, 60)" stroke-width="1px" opacity="0.25"></line><line x1="0" y1="126.00000000000006" x2="1361" y2="126.00000000000006" fill="rgb(0, 0, 0)" stroke="rgb(60, 60, 60)" stroke-width="1px" opacity="0.25"></line><line x1="0" y1="94.50000000000006" x2="1361" y2="94.50000000000006" fill="rgb(0, 0, 0)" stroke="rgb(60, 60, 60)" stroke-width="1px" opacity="0.25"></line><line x1="0" y1="63" x2="1361" y2="63" fill="rgb(0, 0, 0)" stroke="rgb(60, 60, 60)" stroke-width="1px" opacity="0.25"></line><line x1="0" y1="31.5" x2="1361" y2="31.5" fill="rgb(0, 0, 0)" stroke="rgb(60, 60, 60)" stroke-width="1px" opacity="0.25"></line><line x1="0" y1="0" x2="1361" y2="0" fill="rgb(0, 0, 0)" stroke="rgb(60, 60, 60)" stroke-width="1px" opacity="0.25"></line></g></g></g><g><g><line x1="0" y1="346.5" x2="1361" y2="346.5" fill="rgb(0, 0, 0)" stroke="rgb(153, 153, 153)" stroke-width="1.5px"></line></g></g><g><g><line x1="151.2222222222222" y1="0" x2="151.2222222222222" y2="378" fill="rgb(0, 0, 0)" stroke="rgb(153, 153, 153)" stroke-width="1.5px"></line></g></g><g><g><g><g><g><path stroke="rgb(255, 112, 67)" stroke-width="2px" d="M184.94477777777777,-12.485171145697677L185.85211111111113,5.6706283073572195L186.6082222222222,3.375622193143329L188.87655555555557,8.547666472860499L189.7838888888889,19.169144380624573L190.54000000000002,15.435378557089962L191.59855555555555,26.631486835376336L192.20344444444444,29.79811064817028L192.5058888888889,32.17930753551798L195.3791111111111,38.69956327851264L196.1352222222222,38.427634770907446L197.04255555555557,38.926432905853915L197.7986666666667,35.57015164538262L198.1011111111111,38.99529659929834L199.31088888888888,43.4934994014867L201.12555555555556,44.33860695581808L202.48655555555555,37.924389910905006L203.69633333333334,42.434372921583076L206.1158888888889,48.60095094468727L206.72077777777776,60.08415333568229L208.233,64.43428032490948L214.88677777777778,66.60953932343875L215.038,67.24541705453294L217.60877777777776,72.64387510781467L217.91122222222222,79.42766725163631L218.06244444444442,76.05706128561485L218.51611111111112,67.461197788015L220.78444444444443,84.7376544323642L221.23811111111112,84.51002911609874L221.38933333333333,89.67273826529185L222.90155555555555,92.05856341796908L225.47233333333332,88.40935811208334L225.77477777777779,94.45733654979887L228.95044444444443,96.22408583452722L229.4041111111111,93.07774073297037L230.6138888888889,87.8597973729029L231.5212222222222,94.74885013966889L231.82366666666667,91.31142177146154L232.27733333333333,93.8494639036744L233.1846666666667,94.22800731883586L233.94077777777778,91.74964170590721L235.45299999999997,100.62693331799323L236.36033333333333,99.83180135584723L237.87255555555555,98.17784611044436L238.77988888888888,98.31017577444385L239.08233333333334,103.93101632472798L239.83844444444443,114.4161917917545L239.98966666666666,114.63765548185205L240.897,111.40373267242728L242.25799999999998,105.55066259807L244.98,103.97530679765737L245.28244444444445,103.46443737067813L247.0971111111111,105.52732658695004L248.15566666666666,112.58027165121331L248.3068888888889,110.51881137482223L248.60933333333335,112.72288429136216L249.063,124.35994412538497L249.36544444444445,121.59458292744807L251.1801111111111,113.56758528484261L251.63377777777777,120.92669623812054L252.23866666666666,120.61510952544222L252.69233333333335,122.48332719941143L253.146,111.87349865996367L253.75088888888888,106.83207527496535L254.507,115.83474535762144L255.26311111111113,115.62423381220623L259.1948888888889,120.70070534355239L259.79977777777776,126.02359381560564L260.4046666666667,122.36107601668886L260.5558888888889,127.95329469410453L261.6144444444444,130.36637552957458L262.9754444444444,127.79897108304931L263.58033333333333,134.06888074057363L264.18522222222225,134.40057946668307L264.9413333333333,129.63587695018197L265.54622222222224,133.06958430800285L266.90722222222223,129.58090835686593L267.51211111111115,135.60623556301636L267.6633333333333,134.54241374686745L267.81455555555556,129.66206011507145L268.117,131.59757908185267L269.17555555555555,132.75887544155088L269.9316666666667,136.26270515441877L270.23411111111113,135.10349475574478L270.9902222222222,132.25968753833766L271.29266666666666,122.83776182853697L271.8975555555555,127.18149658992007L272.50244444444445,119.43677206608123L273.4097777777778,120.24128041131775L273.56100000000004,126.99477981009176L277.0391111111111,132.57897976921853L277.644,137.00935923985753L282.63433333333336,135.36307918984963L283.3904444444444,130.24844183897542L283.6928888888889,131.3520104311441L284.6002222222222,135.7723534239849L285.81,134.32571791014198L286.71733333333333,131.27050780296992L287.3222222222222,135.8664307537119L288.3807777777778,137.83020300522094L288.68322222222224,138.277943127481L289.59055555555557,138.00623688288206L289.893,140.20505374185848L292.0101111111111,143.2241240829981L292.16133333333335,140.8625318581317L293.6735555555556,137.9619168981585L294.1272222222222,143.34666343597613L295.48822222222225,146.6396506313565L296.0931111111111,146.56055112386244L296.698,147.2183578950435L298.059,158.78073998345556L298.2102222222222,160.49195899995337L299.11755555555555,160.90450746078596L299.26877777777776,163.1697604552466L300.0248888888889,150.7001678404545L301.83955555555553,154.41078125580162L302.74688888888886,155.83263573136335L303.2005555555555,151.46201654128078L304.56155555555557,150.16448676497845L305.01522222222223,145.3803440088696L306.225,142.47528146235146L308.0396666666667,141.6365077884674L309.09822222222226,146.59648277709965L311.0641111111111,149.3054130932694L311.97144444444444,146.9982204950455L312.4251111111111,150.57339845398684L312.72755555555557,151.1713094371535L313.33244444444443,146.33856537687646L313.9373333333333,149.15450035779398L314.23977777777776,158.74408528356983L314.9958888888889,162.60243821829098L315.1471111111111,163.12340190821615L316.5081111111111,163.08086101301745L317.41544444444446,159.7972829347148L318.0203333333333,170.5336560490903L318.1715555555556,164.0655165483461L319.6837777777778,163.69643301784438L320.4398888888889,157.45131115328934L322.55699999999996,161.9351532233457L326.0351111111111,171.30374799804096L326.64,171.7291183867228L326.79122222222225,165.82136995781497L326.94244444444445,164.9597195576968L329.6644444444444,166.86901482292072L331.4791111111111,165.66090743749174L331.63033333333334,166.0109232485821L332.53766666666667,168.43891574266735L333.59622222222225,165.21519106223099L337.528,172.06857143398474L337.8304444444445,172.27947899434778L339.3426666666667,168.83282759626994L341.00611111111107,166.6770952632445L341.4597777777778,165.48942180218802L341.91344444444445,169.97632174338403L344.93788888888895,169.2378165998787L345.8452222222222,171.96771420709675L346.90377777777775,174.98109062714806L347.8111111111111,177.62713298918862L349.3233333333333,181.06001092029848L350.2306666666667,176.80581229348923L350.6843333333333,170.96889384639232L351.8941111111111,169.9707812312363L352.34777777777776,171.39098190326206L352.8014444444445,164.98580753242203L353.2551111111111,173.36917183062573L353.4063333333333,171.62925408638205L356.12833333333333,169.16533769581727L360.665,159.90889178165207L361.1186666666666,170.41051603822953L361.2698888888889,169.4846345989051L361.57233333333335,172.55515084315198L361.72355555555555,174.99367166548288L365.0504444444444,175.8881805240471L366.8651111111111,178.30114790793417L367.16755555555557,181.10868492720223L367.77244444444443,179.90024623273433L368.37733333333335,171.9830466091551L368.9822222222223,174.8166320550393L372.7627777777778,179.50791737007805L372.91400000000004,176.23071167807407L374.57744444444444,174.0871704217233L375.78722222222217,179.11106575706228L376.3921111111111,179.86483720051427L376.69455555555555,180.52887978021607L378.2067777777778,181.6931789986152L379.26533333333333,184.832151917926L381.53366666666665,178.00689384240601L381.6848888888889,178.2175384813469L382.13855555555557,177.04859104477893L385.7678888888889,175.5944541855069L385.91911111111114,179.32899006387066L388.33866666666665,179.84700276959228L388.4898888888889,178.80862814490968L389.8508888888889,185.32079004231082L390.7582222222222,182.63774191727035L391.3631111111111,181.48886568182584L392.72411111111114,184.226422445976L393.78266666666667,183.2519798856993L393.9338888888889,184.71286350381493L395.89977777777773,189.845843731714L397.2607777777777,191.4935221548991L398.0168888888889,188.07959102845885L398.77299999999997,191.2084761813682L399.2266666666667,189.3537784311415L399.98277777777776,186.7075752194668L400.4364444444444,182.12291387176188L401.04133333333334,181.4308465925197L402.25111111111113,184.74782657667043L403.4608888888889,178.17011361148388L404.51944444444445,186.29869211212653L405.578,186.6395896941177L406.93899999999996,187.56022440610838L407.5438888888889,188.5558976722867L407.69511111111115,186.4291584249205L407.84633333333335,189.28634532426994L408.14877777777775,189.13644173225882L408.6024444444445,185.00711640406325L409.661,184.13513122015402L411.022,185.32074006803757L412.53422222222224,187.98226015810923L413.13911111111116,195.71357788470246L413.4415555555555,191.31909893647943L413.89522222222223,195.406685964442L414.6513333333333,197.39527395735786L415.105,199.11703489643693L415.2562222222222,189.59679042352658L415.4074444444445,186.3173729840125L418.28066666666666,194.28450347561866L419.6416666666667,199.3419601772978L420.549,180.41119264690604L421.60755555555556,181.42442550139742L421.75877777777777,185.22830201314162L423.11977777777776,186.92963247970508L424.1783333333333,193.0885502784L425.993,195.9452047758428L427.354,187.22272863466316L427.9588888888889,191.71827111529572L429.4711111111111,202.73213165931267L430.076,201.5305237408421L430.8321111111111,203.25531840538633L431.437,200.17827490696703L433.40288888888887,195.88569233256217L433.85655555555553,199.05853995941663L434.76388888888886,199.30454036749953L434.91511111111106,198.47141180728406L435.0663333333333,198.8297986405762L440.2078888888889,197.27544987307024L441.11522222222226,191.4055885082843L443.68600000000004,192.23748754300846L443.9884444444445,192.35750530265673L444.29088888888884,201.0514940029556L445.1982222222222,200.24802689589112L445.6518888888889,200.5188689877811L445.95433333333335,200.552326729907L446.408,198.9077951020082L448.67633333333333,198.43573409951213L448.9787777777778,198.36445370099835L450.7934444444444,202.00340357292828L450.94466666666665,198.2565622500726L451.09588888888885,198.69406590295725L453.8178888888889,205.96331933398778L454.4227777777778,201.6957924679502L455.63255555555554,199.2982060620537L456.2374444444444,200.42491570170824L457.74966666666666,199.2753205958373L458.2033333333333,199.2394903816799L458.65700000000004,200.43856257903695L459.11066666666665,201.9077814859636L462.74,200.32085763469266L464.55466666666666,199.62764324578598L464.70588888888886,199.1886207928238L465.1595555555556,205.35071903884278L465.3107777777778,203.7094341541521L465.6132222222222,203.58886774928524L465.91566666666665,208.8667538318107L466.5205555555556,206.40883363205612L467.12544444444444,208.44634731363308L467.88155555555556,205.9895406708184L468.18399999999997,204.97429896265646L470.45233333333334,207.842508643093L471.0572222222222,212.3312644059791L474.989,209.86797961564864L475.44266666666664,207.8042105375052L475.5938888888889,205.5600085936976L476.1987777777778,207.47639630335524L476.5012222222222,204.67646479665015L477.25733333333335,205.44992945229276L478.61833333333334,201.99278657218971L479.2232222222222,208.74532294619775L479.8281111111111,213.35901217668473L480.433,213.93644835358393L481.9452222222222,214.08987201336345L482.24766666666665,213.82985999037817L482.5501111111111,214.68340191751713L482.70133333333337,216.7032380670905L483.30622222222223,216.72273262563945L483.7598888888889,216.63001150026082L484.9696666666667,213.6672950156579L485.5745555555556,211.12942033815682L487.69166666666666,208.4035225499171L488.599,209.21256794860946L489.3551111111111,206.24836433131097L489.5063333333334,208.90830531238674L489.8087777777778,214.65048170399166L490.26244444444444,207.17424334473313L490.5648888888889,209.0918419801408L490.86733333333336,209.40500424165808L491.0185555555555,206.57643569624L492.07711111111115,214.25193440386994L492.53077777777776,207.36755518596976L493.2868888888889,209.08468457747463L496.1601111111111,215.1709653657017L497.6723333333333,208.1755667520367L498.5796666666667,209.22752649741193L499.48699999999997,204.64032523129478L500.0918888888889,205.21777277168093L500.24311111111115,204.4755310474423L501.90655555555554,211.79656244865583L502.05777777777774,211.70873244733528L504.3261111111112,212.35766223747086L505.8383333333333,213.26138894366355L507.1993333333333,213.874588707728L509.7701111111111,210.86305288055112L512.4921111111111,211.0729728554402L512.6433333333333,216.68126994459118L512.9457777777777,216.82125073723967L514.458,208.89799236090766L515.0628888888889,214.83664104242197L516.575111111111,217.97990950881882L517.7848888888889,216.65095179640915L517.9361111111111,217.7182172260503L519.5995555555555,213.67563051711443L520.8093333333334,214.40683840948896L521.7166666666667,216.14745375656224L521.8678888888888,218.50499387468778L522.1703333333334,215.3248166554325L522.4727777777778,213.11187566001135L523.2288888888888,217.0033405821259L527.0094444444445,219.40228141550634L527.1606666666667,215.92383392575033L528.6728888888889,218.77613165332465L528.9753333333333,222.0209774634456L529.5802222222222,220.34197878010366L529.7314444444445,217.9978341887432L531.8485555555555,214.19986788213478L532.7558888888889,216.81228023636476L533.5120000000001,217.3770916334876L533.8144444444445,218.54934993219905L534.1168888888889,222.39438437719662L534.4193333333334,224.24953597366525L536.3852222222223,229.29240270602534L536.9901111111111,225.5204738387336L537.2925555555555,225.6481614594978L537.7462222222223,223.65444877656236L539.2584444444444,221.4425474698063L540.7706666666667,223.1090866860578L541.0731111111111,222.3165355287093L542.8877777777778,224.68762414229502L543.039,224.47441251619216L543.1902222222222,227.82450114216542L544.4,225.2668258579143L545.3073333333333,222.9111058492403L547.8781111111111,224.53805593126663L548.7854444444445,224.63440777941733L548.9366666666666,228.44137846281643L550.1464444444445,226.04748150617192L551.0537777777778,226.197929065885L551.9611111111111,223.01469185439458L552.7172222222222,227.6360196738703L556.1953333333333,221.96242645199672L556.4977777777779,222.7624421764349L557.2538888888889,222.11455321603626L558.01,223.68289525683886L559.9758888888889,224.23493296728236L561.0344444444444,221.30810205236497L563.3027777777777,224.1846049433674L565.1174444444445,221.59450085197244L565.5711111111111,225.95419107219192L566.4784444444444,228.21696641648182L567.6882222222222,233.00330530765277L567.8394444444444,229.81563959814682L568.1418888888888,234.64061886249527L569.502888888889,229.16123167382804L572.981,235.32070268217998L573.1322222222223,236.48354527368713L573.2834444444444,223.54748209127527L574.342,223.7530880320593L576.0054444444445,220.87311725309638L576.3078888888889,220.31230769450158L578.1225555555556,225.35264896091635L578.2737777777778,225.58600504837526L578.7274444444445,227.04367694641405L579.0298888888889,230.91696937909876L579.1811111111111,226.83061871547196L583.5665555555555,229.0468540764969L585.3812222222223,234.26064905983935L585.5324444444444,229.36227663435182L586.7422222222223,230.99066621111416L586.8934444444444,236.1874252083694L587.8007777777777,233.19567454593155L588.2544444444444,234.60059391699298L589.1617777777777,236.31452049757283L589.7666666666667,233.32114971843504L592.3374444444445,235.57279040317027L592.6398888888889,234.65203765571292L592.791111111111,236.36202931130035L592.9423333333333,236.81033710076872L594.6057777777778,240.36279729267636L597.3277777777778,239.826332672004L599.8985555555555,239.37584197733645L600.9571111111111,234.13210387357384L601.1083333333333,235.95089329080767L601.562,236.67194484947316L603.9815555555556,227.56452641056893L604.5864444444445,232.38601378897977L605.3425555555556,238.47064857661815L605.645,235.1963890253311L605.9474444444445,235.44540031306778L606.2498888888889,231.82053345175288L606.5523333333333,233.70941963035884L607.1572222222222,231.79586918496503L607.3084444444445,229.2517306646312L608.9718888888889,235.7822681570414L609.4255555555555,231.48584113743087L610.6353333333333,236.69987346068726L611.089,236.54338289103336L611.2402222222222,235.69528195143596L612.45,234.71017425585308L614.7183333333334,235.1431083758385L615.3232222222223,237.81560597894853L615.6256666666667,234.26919778632086L617.894,231.52319703368522L619.8598888888889,234.88027512948622L623.3380000000001,242.11762300682608L625.6063333333333,239.75755940409033L625.7575555555555,243.04545817692L626.6648888888889,242.04081078719446L626.8161111111111,238.90281663150404L627.5722222222223,239.1402280438591L628.3283333333334,237.70528439930968L628.9332222222222,237.5115718856567L629.2356666666667,237.20295220703568L631.6552222222222,241.848519301955L633.3186666666667,241.8651869991685L634.3772222222221,239.26667497749716L634.5284444444444,240.9950987827515L635.587,238.11343979428622L636.0406666666667,232.4687389587785L639.67,239.4746404680863L640.1236666666666,238.96894600351186L641.1822222222222,237.52504385924058L641.6358888888889,242.0685931647761L641.7871111111111,243.81852258473296L642.0895555555555,236.63895067709484L642.2407777777778,243.83147909127354L645.2652222222222,243.66098976065328L646.0213333333334,242.68311746078498L647.3823333333333,235.39579929803472L647.6847777777778,234.05968617138063L647.9872222222222,241.60927293739795L649.0457777777777,238.6228203418379L651.0116666666667,236.51485635295663L652.2214444444444,236.8467846480319L653.4312222222222,242.25731173558887L654.3385555555556,244.38402083756839L654.4897777777777,248.01919450308273L655.2458888888889,242.30770609346266L656.002,238.44283030967256L657.0605555555555,235.20359171951023L658.8752222222222,235.87333017304067L661.446,224.11276995965557L661.7484444444444,229.70414153235384L662.050888888889,237.9503781646325L662.5045555555555,245.56843785344563L663.2606666666667,250.45336838900448L665.8314444444444,249.239812209245L666.5875555555556,254.12960497977522L669.9144444444445,253.42526152397505L670.3681111111111,254.61032700935192L671.1242222222222,253.26688378095145L672.1827777777778,246.838922232625L672.7876666666667,246.0286481918318L673.0901111111111,245.62968452819723L673.9974444444445,242.75553432731948L674.1486666666667,247.5503018118687L675.056,240.81545074091838L676.1145555555555,243.1165197807937L677.021888888889,243.547310526275L677.4755555555555,250.11930480903587L680.0463333333333,250.95071996036887L680.3487777777777,249.4769099997504L681.861,251.71416117233179L682.3146666666667,251.72866981912938L682.6171111111111,251.24325738960079L683.3732222222221,246.70436932214244L685.7927777777778,249.9644348595628L686.0952222222221,247.45011527383858L687.0025555555555,246.8533951940807L687.6074444444445,250.5476563276453L687.9098888888889,253.65735427746793L690.027,255.11249734288228L691.8416666666666,248.71477007464034L692.5977777777777,248.53096911666074L694.4124444444444,253.21393284414577L695.471,245.30892604121192L695.6222222222221,252.34838872867005L698.3442222222221,246.95190206597556L698.6466666666666,246.38441414493505L698.949111111111,247.3774862102162L699.4027777777777,245.86659857103177L699.8564444444445,247.64864095728964L702.4272222222222,243.07001182247026L704.0906666666666,245.14306649451748L704.241888888889,242.7941731267291L705.1492222222222,245.73305036146152L706.2077777777777,246.3256176800651L709.8371111111111,252.76153547114865L710.7444444444445,252.63572602597918L711.0468888888889,252.84372732119584L714.2225555555556,250.85801208661098L714.6762222222222,249.56595772889912L715.2811111111112,255.48149657480516L715.4323333333333,255.18051313300487L715.5835555555556,255.59093334042765L716.490888888889,255.20374640085544L716.9445555555556,258.74291032706645L717.2470000000001,261.1999998459514L718.6080000000001,255.96969715173825L719.6665555555555,255.05935566077102L720.4226666666666,252.52574546605032L721.6324444444444,249.31320041101984L722.2373333333333,249.45404974032527L722.8422222222222,251.27010764723474L724.8081111111111,252.78261839178475L725.1105555555556,256.28841987149286L725.5642222222222,254.2910654955886L727.3788888888889,255.27384347997798L727.9837777777777,254.79339148570713L728.7398888888888,257.1367718098737L729.0423333333333,254.5057825397359L730.5545555555556,255.48813585942426L730.8570000000001,253.49996966424845L731.1594444444445,257.2993379134134L733.1253333333333,258.3702771602986L735.5448888888889,259.1914929949592L736.301,261.2257180573553L737.3595555555556,263.76867279779975L741.1401111111111,258.378578909469L741.2913333333333,257.3250034738972L741.4425555555556,255.04045223530497L742.5011111111112,254.15951324305757L744.0133333333333,257.08969055892123L745.2231111111112,260.3628791885441L746.2816666666666,255.940802998356L746.8865555555556,253.3548447889161L748.5500000000001,253.23129779112767L749.4573333333333,256.90591986186763L750.3646666666667,255.17494673256556L753.0866666666667,258.88161331847L753.6915555555556,263.4206335034054L755.355,261.50844948804865L756.1111111111112,257.3019890386849L756.8672222222223,257.8593765496605L757.4721111111112,260.6794024943944L757.6233333333333,260.359067680814L759.2867777777777,261.09604944132457L759.4380000000001,262.12190380896743L761.1014444444444,266.56952036741745L761.4038888888888,269.1493687291346L761.5551111111112,265.81492321845303L762.6136666666667,262.54092653486975L763.0673333333333,265.1136736327044L763.2185555555557,262.124945751049L763.3697777777778,260.50620066596144L767.6039999999999,266.5371724574153L770.1747777777778,264.7302662854424L770.9308888888888,264.7026817277092L771.0821111111112,262.21040218323583L771.3845555555556,262.99266335517234L772.5943333333333,259.98543514698787L781.3652222222222,262.34118884736324L783.6335555555556,256.6421764608266L785.2969999999999,259.32235372758157L785.4482222222223,258.61596744475514L785.7506666666667,257.0555630160436L786.0531111111112,265.78317138153704L786.5067777777778,267.66948407052985L786.6579999999999,264.2156239221039L786.9604444444444,265.8524831813301L790.4385555555555,265.1934092212752L791.1946666666668,265.26101658159706L791.6483333333333,258.4940674627675L792.102,255.8997847631486L792.8581111111112,262.1422139462776L794.5215555555554,264.3504398022262L795.8825555555555,270.50973224962763L796.3362222222222,270.75690477684145L796.4874444444445,267.18244138714675L797.8484444444445,265.3520270547688L798.7557777777778,261.5967537737739L801.1753333333334,263.295073770097L802.0826666666667,268.15754388130375L802.6875555555555,264.3040550968449L804.0485555555555,266.7364387405753L804.351,266.65816600876093L805.712,267.6280457780185L806.3168888888889,267.5447345736875L807.2242222222222,266.8415344693216L807.9803333333333,269.78453976142123L808.8876666666667,269.5706487192375L810.2486666666667,271.102162664751L811.3072222222223,272.064431086552L811.912111111111,268.29499079905264L813.273111111111,264.31091445757335L815.5414444444444,268.85500758334035L816.6,267.2618208256008L817.5073333333333,265.88782802382957L818.1122222222223,270.21291852688705L818.2634444444444,271.0131605964655L821.1366666666668,273.9187708557698L821.2878888888889,271.4028556144865L821.5903333333333,274.3114001212497L822.4976666666666,271.2194474493253L822.9513333333333,267.9929761025183L827.0343333333334,271.5175555964036L827.9416666666666,272.88579651234886L828.5465555555555,276.84821963023154L829.0002222222223,269.41811696118714L830.21,269.91266203776956L830.5124444444444,268.6309359005449L833.0832222222223,274.25940833278645L833.2344444444444,275.22945301406475L836.1076666666667,269.9458073536926L836.2588888888889,273.32241365673383L836.7125555555556,272.4270975015297L837.771111111111,273.37730562816466L838.0735555555556,273.5450629420901L839.2833333333334,274.2857503371134L839.5857777777778,271.9671355829653L839.737,269.87422440922364L841.7028888888889,274.5316389529473L842.0053333333334,276.1489205913881L843.5175555555555,276.92532026512265L843.9712222222222,279.9557324930599L845.6346666666666,277.73510171679084L846.0883333333334,274.4352030438627L846.3907777777779,274.17586417689597L846.6932222222222,276.26224453863307L848.5078888888889,274.010676483016L851.0786666666667,277.0333633719092L853.347,279.5580586193922L854.2543333333334,275.6363446711852L855.3128888888889,276.89047517176596L856.5226666666666,271.8134519326456L857.1275555555555,274.4406159202914L858.1861111111111,276.46592951301693L858.3373333333334,277.65233112862086L858.4885555555555,281.05409890109524L860.0007777777779,281.3732749861135L863.1764444444444,279.9480499173196L863.9325555555555,274.8389506903286L864.6886666666667,276.0719344119427L865.596,278.8161686778186L867.1082222222221,282.44340043187844L867.8643333333334,279.4361908550305L868.7716666666666,276.24419128389616L869.3765555555556,278.4094817131248L869.5277777777777,272.462915616601L870.7375555555556,275.4194963260706L871.1912222222222,276.925931953443L871.3424444444445,278.646276261242L871.6448888888889,278.34550570001113L872.0985555555555,279.5951591226453L872.2497777777777,282.6238680716154L873.4595555555555,280.97786727164964L873.9132222222222,281.37660943636166L874.0644444444445,285.10610067349L874.366888888889,282.63874134124114L874.6693333333334,281.1112425130653L875.123,280.5520721973209L875.2742222222222,283.2303773046272L876.1815555555555,284.30471550111395L877.088888888889,282.9455352823998L877.3913333333334,282.8451507449785L877.845,283.8860333419227L880.8694444444445,283.4363717172375L881.1718888888889,280.5101865490574L882.0792222222221,283.6256247794806L883.1377777777777,283.7650385878193L884.9524444444445,285.6498883951728L887.8256666666666,284.68288435870556L888.1281111111111,284.80704906782L890.5476666666666,286.9312032413512L891.0013333333333,282.83850994420226L891.3037777777778,281.3035694522391L891.455,278.9182260550696L894.3282222222222,278.0249558101677L897.9575555555556,277.084412474071L898.4112222222222,280.36548719324765L900.3771111111112,284.9223558993226L901.5868888888888,280.85798707551277L902.7966666666666,278.614962923208L902.9478888888888,281.10943847160286L903.4015555555555,282.3544800237462L903.7040000000001,281.27162766788274L903.8552222222222,281.81505938371345L905.9723333333333,280.96548152566146L907.1821111111111,287.13924392223475L910.509,280.98469719386173L911.4163333333333,281.1635541385178L911.87,281.4370724598029L912.9285555555556,282.4973062657987L914.8944444444445,283.9053433885381L915.1968888888888,282.28542049826416L915.3481111111112,282.11892662108676L916.4066666666666,281.7291822055622L919.1286666666667,285.5059059035566L921.5482222222222,286.4301028354041L922.6067777777778,287.5881394805355L923.3628888888888,289.1138526893761L923.5141111111111,289.54439113718905L924.4214444444444,289.9825718771376L926.3873333333333,291.0155127567624L926.6897777777777,290.38704882398696L927.5971111111112,281.8758596857515L928.0507777777777,284.9539882826881L931.5288888888888,286.4712678186939L932.2850000000001,291.3016161556748L934.2508888888889,293.5325677296941L934.8557777777778,291.09476969846634L937.5777777777778,288.73821361189215L938.7875555555556,288.8987208266564L942.2656666666667,291.33208966013837L942.7193333333333,290.2145684466186L942.8705555555556,290.6789160552873L943.1729999999999,290.65082743068064L943.4754444444444,290.21531710207177L943.6266666666667,289.09583705770797L944.2315555555556,290.7412495857944L946.9535555555556,293.6341521588844L947.5584444444444,294.5398135809828L951.0365555555557,289.51606970600665L953.0024444444444,291.8289892826818L955.4219999999999,288.69542739119186L957.0854444444444,288.8075959523085L957.2366666666667,292.27365958330415L959.505,292.5802838423096L959.9586666666667,292.2845415603067L961.6221111111112,294.12075334375777L961.7733333333333,292.06836783639L962.227,293.567898987242L964.7977777777778,291.9169034233739L965.4026666666667,293.0664666754634L967.3685555555555,290.3402287878174L968.4271111111112,291.78205857977736L968.7295555555555,292.3313681859104L970.8466666666667,296.0881950663524L971.6027777777778,294.2281798009275L973.7198888888889,291.97650671507114L973.8711111111111,291.2952348977637L974.1735555555555,293.16379842104385L974.9296666666668,295.58375735844294L979.1638888888889,296.4439395115681L980.5248888888889,297.19268617903634L981.5834444444445,294.5176576904979L982.1883333333334,292.45335897401134L983.0956666666667,294.49018932339646L984.0029999999999,295.9439129111594L984.759111111111,295.36872408255493L985.2127777777778,295.4316898433242L985.5152222222223,296.3757102100774L987.7835555555555,298.5207521026566L989.1445555555555,294.55798689754215L990.3543333333333,296.23638355869895L991.8665555555555,294.1590185173681L992.925111111111,294.9777614956099L993.6812222222222,295.8270178130268L993.9836666666666,294.93992122954126L994.4373333333334,296.6567947801709L995.7983333333334,293.7676254771209L996.1007777777778,295.28690153134204L997.008111111111,296.94789728386604L998.8227777777778,294.55996967472674L999.5788888888889,296.212849695194L1000.7886666666666,295.38612341207755L1001.0911111111111,295.49311608864366L1002.6033333333334,294.23575378533303L1002.9057777777779,289.40677364513937L1005.1741111111111,288.3732896199564L1006.8375555555556,292.10052813593984L1007.14,287.72538293304706L1007.7448888888889,291.57266920746963L1009.5595555555556,290.2468454357481L1010.0132222222223,291.34794331291295L1015.1547777777779,294.90339355289325L1016.2133333333334,297.719546065446L1016.667,300.4009312484958L1017.271888888889,301.95268119539605L1019.389,297.15414700606937L1021.0524444444445,295.8895266872613L1022.111,296.25182237756064L1023.1695555555556,294.40043665487656L1024.6817777777778,295.6260426254218L1025.1354444444444,299.9725285775152L1025.8915555555554,299.1182022217922L1026.6476666666665,297.4630162134178L1027.555,300.54117978301093L1027.8574444444444,301.23649991563826L1029.3696666666667,301.74861322648445L1029.520888888889,302.5083755064435L1032.0916666666667,300.90788031866714L1032.5453333333335,298.2008267715607L1033.6038888888888,295.98671653121914L1035.4185555555555,296.9020590439451L1037.686888888889,295.67217864722085L1037.9893333333334,293.3027358897333L1039.047888888889,294.83895481513764L1040.5601111111112,291.37670190266863L1041.769888888889,296.41044603068883L1042.0723333333333,299.02168594169177L1042.3747777777778,297.0170457861874L1042.8284444444446,298.7011900426181L1043.1308888888889,297.697700260951L1044.491888888889,301.4304308646166L1046.0041111111111,302.4271298142221L1046.1553333333334,299.69484953832307L1047.6675555555555,298.8887364253502L1048.2724444444445,298.00033904225234L1048.4236666666666,299.6172995454705L1051.296888888889,300.52999664465403L1052.053,300.2329988188733L1052.3554444444444,299.21369129462175L1052.5066666666667,300.78838554050407L1052.9603333333332,301.7177780450933L1054.3213333333333,301.59571737537107L1057.0433333333333,298.3929548650343L1060.0677777777778,298.74365598495956L1060.8238888888889,301.26441992244816L1061.4287777777777,302.44944547368107L1062.184888888889,300.2331520661892L1063.0922222222223,299.9421134975661L1063.2434444444445,302.79564961714203L1063.3946666666666,302.2249622399965L1063.8483333333334,300.7893240663623L1064.3020000000001,303.13716535647006L1066.419111111111,301.95455581473885L1067.1752222222221,300.5523163171266L1067.628888888889,302.83878640482754L1070.1996666666666,304.791784060895L1070.350888888889,305.83870892697547L1070.9557777777777,305.6530357657312L1071.7118888888888,307.7419668798708L1072.7704444444446,304.4293159821667L1074.1314444444445,303.4307736563109L1074.4338888888888,303.91938030764004L1075.9461111111111,304.2547083559307L1076.8534444444444,300.57146088854506L1077.1558888888887,302.0002403412821L1078.0632222222223,304.2627566101886L1078.3656666666666,303.32782644884213L1078.668111111111,304.25096356783166L1079.7266666666667,304.5044384295574L1080.4827777777778,305.74272707073874L1080.7852222222223,301.6505641398966L1081.0876666666666,304.332574800142L1082.2974444444444,303.79862967460656L1084.5657777777778,303.09302201467335L1085.1706666666666,305.622640663967L1085.9267777777777,304.4983408895645L1086.3804444444445,305.01979745313605L1088.8,305.34025480082676L1090.3122222222223,302.885647033042L1090.4634444444443,301.49171490930695L1090.7658888888889,300.334426644225L1091.6732222222222,303.4308337675208L1091.8244444444445,303.9148708347484L1092.5805555555555,303.8256757416728L1093.639111111111,302.6609441672804L1094.3952222222222,303.79727155775083L1094.848888888889,306.69532365685853L1095.4537777777778,310.2864904736647L1096.361111111111,305.05842594117934L1098.327,305.40080069786916L1099.3855555555556,304.9312983470357L1102.2587777777778,309.1464959005831L1105.2832222222223,308.6927275073718L1105.7368888888889,308.78334735704607L1106.3417777777777,308.8935969225952L1106.493,308.3876573623651L1107.5515555555555,307.4788055528065L1110.1223333333332,309.28879745655416L1111.7857777777779,306.2986508241484L1113.4492222222223,307.1210193831438L1114.5077777777778,308.97905056468926L1115.4151111111112,311.5678632902639L1119.0444444444445,309.9901133923255L1122.5225555555555,309.3625073879076L1123.8835555555556,308.7661582141586L1126.1518888888888,310.43876202460933L1126.303111111111,309.0194212052632L1127.3616666666667,306.8374643774872L1127.9665555555555,307.4272274763611L1129.4787777777779,307.41306842215226L1129.9324444444444,309.584300990983L1130.0836666666667,311.21066474085103L1131.5958888888888,310.98878117898136L1132.2007777777778,307.563895544404L1133.4105555555554,310.29620125651013L1133.5617777777777,311.90814058935433L1134.1666666666667,311.0261970726001L1135.5276666666666,309.91078026994154L1135.6788888888889,311.1780812078958L1137.1911111111112,308.3247446319011L1137.3423333333333,309.37855240109843L1137.4935555555555,308.79859928729104L1138.7033333333334,310.07382816339714L1139.3082222222222,312.79615919152013L1141.7277777777779,312.0848066291756L1142.9375555555555,308.31014414319674L1144.9034444444444,310.12946048789786L1145.357111111111,309.67028340943796L1145.962,309.61296494155016L1146.2644444444445,310.4424235305124L1146.4156666666668,311.0424071211179L1146.8693333333333,307.85601927391053L1148.2303333333334,310.07081462175466L1148.3815555555555,312.59516593355426L1149.7425555555556,310.51283921324307L1150.1962222222223,310.2316581399625L1151.7084444444445,312.28085646279965L1152.4645555555555,310.9715028867025L1156.6987777777779,309.5522554734289L1157.9085555555555,313.40690640323993L1159.2695555555556,313.8072395546057L1159.572,313.67104304270856L1160.176888888889,314.2845270242507L1161.0842222222223,313.42858676947446L1161.3866666666668,311.67600821457677L1161.5378888888888,313.3182744056128L1162.5964444444444,312.0919699949111L1163.0501111111112,311.81550746155295L1163.8062222222222,313.07658954556297L1164.259888888889,312.7741074120731L1164.411111111111,313.3356289211351L1165.4696666666666,313.04620645901196L1166.0745555555554,307.1458020416536L1166.6794444444445,307.37672662482487L1168.1916666666666,308.53409620669976L1168.3428888888889,309.47030743090806L1170.1575555555555,310.2072862155944L1170.7624444444446,308.8011474292106L1171.821,310.8474622953311L1172.425888888889,311.2777286850438L1174.0893333333333,310.58387772339734L1175.904,309.87146870552397L1178.3235555555555,309.5557955042058L1181.4992222222222,311.97275631043516L1182.104111111111,314.55622631855726L1184.3724444444445,317.3360485854621L1185.1285555555555,319.49505736666174L1185.582222222222,319.5392723455265L1186.4895555555556,318.56727714385005L1187.0944444444444,319.7072319450701L1187.6993333333335,317.03257676140817L1188.909111111111,313.45352586910934L1189.8164444444444,313.4272936451781L1189.9676666666667,311.75804903020554L1190.118888888889,315.0025704259282L1192.5384444444444,316.4605861219529L1193.597,314.32764802353165L1193.8994444444445,311.1251679061447L1194.8067777777778,312.38849780551163L1196.0165555555554,311.9854126578067" style="fill: none;" fill="none"></path></g></g></g></g><g opacity="0.2"><g><g><g><path stroke="rgb(255, 112, 67)" stroke-width="2px" d="M184.94477777777777,-8.155693173408451L185.85211111111113,32.90431076288229L186.6082222222222,-0.0668857097625164L188.87655555555557,16.305731177330017L189.7838888888889,35.101359128952026L190.54000000000002,9.83473026752472L191.59855555555555,43.42564845085144L192.20344444444444,34.548046231269836L192.5058888888889,35.75110280513769L195.3791111111111,48.4799467921257L196.1352222222222,38.019742012023926L197.04255555555557,39.67463010549551L197.7986666666667,30.535729765892086L198.1011111111111,44.133014023303986L199.31088888888888,50.240803599357605L201.12555555555556,45.60626828670502L202.48655555555555,28.303064346313533L203.69633333333334,49.19934743642807L206.1158888888889,57.85081797838211L206.72077777777776,77.30895692110067L208.233,70.95947080850607L214.88677777777778,69.87242782115942L215.038,68.19923365116125L217.60877777777776,80.74156218767172L217.91122222222222,89.60335546731955L218.06244444444442,71.0011523365975L218.51611111111112,54.56740254163742L220.78444444444443,110.65233939886093L221.23811111111112,84.1685911417008L221.38933333333333,97.41680198907858L222.90155555555555,95.6373011469841L225.47233333333332,82.93555015325552L225.77477777777779,103.52930420637131L228.95044444444443,98.87420976161957L229.4041111111111,88.35822308063513L230.6138888888889,80.03288233280188L231.5212222222222,105.08242928981787L231.82366666666667,86.1552792191506L232.27733333333333,97.65652710199362L233.1846666666667,94.79582244157797L233.94077777777778,88.03209328651434L235.45299999999997,113.94287073612213L236.36033333333333,98.63910341262817L237.87255555555555,95.69691324234014L238.77988888888888,98.50867027044302L239.08233333333334,112.36227715015417L239.83844444444443,130.14395499229437L239.98966666666666,114.96985101699835L240.897,106.5528484582901L242.25799999999998,96.77105748653418L244.98,101.61227309703833L245.28244444444445,102.69813323020941L247.0971111111111,108.62166041135788L248.15566666666666,123.15968924760821L248.3068888888889,107.42662096023565L248.60933333333335,116.02899366617208L249.063,141.8155338764191L249.36544444444445,117.44654113054276L251.1801111111111,101.52708882093435L251.63377777777777,131.96536266803744L252.23866666666666,120.14772945642471L252.69233333333335,125.28565371036532L253.146,95.95875585079193L253.75088888888888,99.26994019746786L254.507,129.33875048160556L255.26311111111113,115.30846649408346L259.1948888888889,128.31541264057162L259.79977777777776,134.00792652368548L260.4046666666667,116.86729931831366L260.5558888888889,136.341622710228L261.6144444444444,133.98599678277972L262.9754444444444,123.94786441326144L263.58033333333333,143.47374522686007L264.18522222222225,134.89812755584722L264.9413333333333,122.48882317543033L265.54622222222224,138.22014534473425L266.90722222222223,124.34789443016055L267.51211111111115,144.64422637224203L267.6633333333333,132.94668102264407L267.81455555555556,122.3415296673775L268.117,134.50085753202444L269.17555555555555,134.5008199810982L269.9316666666667,141.5184497237206L270.23411111111113,133.36467915773395L270.9902222222222,127.99397671222692L271.29266666666666,108.70487326383596L271.8975555555555,133.69709873199466L272.50244444444445,107.81968528032303L273.4097777777778,121.44804292917257L273.56100000000004,137.12502890825274L277.0391111111111,140.95527970790866L277.644,143.65492844581607L282.63433333333336,132.89365911483767L283.3904444444444,122.57648581266406L283.6928888888889,133.00736331939703L284.6002222222222,142.40286791324618L285.81,132.15576463937765L286.71733333333333,126.68769264221194L287.3222222222222,142.76031517982486L288.3807777777778,140.77586138248446L288.68322222222224,138.94955331087115L289.59055555555557,137.5986775159836L289.893,143.50327903032309L292.0101111111111,147.75272959470752L292.16133333333335,137.3201435208321L293.6735555555556,133.61099445819858L294.1272222222222,151.42378324270254L295.48822222222225,151.5791314244271L296.0931111111111,146.44190186262134L296.698,148.2050680518151L298.059,176.12431311607367L298.2102222222222,163.05878752470022L299.11755555555555,161.52333015203482L299.26877777777776,166.56763994693762L300.0248888888889,131.99577891826632L301.83955555555553,159.97670137882236L302.74688888888886,157.96541744470602L303.2005555555555,144.90608775615698L304.56155555555557,148.21819210052496L305.01522222222223,138.2041298747063L306.225,138.11768764257437L308.0396666666667,140.37834727764135L309.09822222222226,154.03644526004794L311.0641111111111,153.36880856752398L311.97144444444444,143.53743159770968L312.4251111111111,155.93616539239886L312.72755555555557,152.0681759119034L313.33244444444443,139.0894492864609L313.9373333333333,153.37840282917026L314.23977777777776,173.1284626722336L314.9958888888889,168.38996762037283L315.1471111111111,163.90484744310382L316.5081111111111,163.01704967021948L317.41544444444446,154.8719158172608L318.0203333333333,186.63821572065356L318.1715555555556,154.3633072972298L319.6837777777778,163.1428077220917L320.4398888888889,148.0836283564568L322.55699999999996,168.6609163284302L326.0351111111111,185.3566401600838L326.64,172.3671739697457L326.79122222222225,156.95974731445315L326.94244444444445,163.66724395751956L329.6644444444444,169.7329577207566L331.4791111111111,163.84874635934833L331.63033333333334,166.53594696521762L332.53766666666667,172.0809044837952L333.59622222222225,160.3796040415764L337.528,182.34864199161532L337.8304444444445,172.5958403348923L339.3426666666667,163.66285049915317L341.00611111111107,163.44349676370626L341.4597777777778,163.70791161060336L341.91344444444445,176.70667165517813L344.93788888888895,168.1300588846207L345.8452222222222,176.06256061792376L346.90377777777775,179.50115525722507L347.8111111111111,181.5961965322495L349.3233333333333,186.20932781696325L350.2306666666667,170.42451435327533L350.6843333333333,162.21351617574695L351.8941111111111,168.47361230850225L352.34777777777776,173.5212829113007L352.8014444444445,155.37804597616199L353.2551111111111,185.94421827793124L353.4063333333333,169.0193774700165L356.12833333333333,165.46946310997012L360.665,146.02422291040426L361.1186666666666,186.16295242309573L361.2698888888889,168.09581243991855L361.57233333333335,177.16092520952228L361.72355555555555,178.65145289897924L365.0504444444444,177.22994381189352L366.8651111111111,181.92059898376468L367.16755555555557,185.31999045610434L367.77244444444443,178.08758819103244L368.37733333333335,160.1072471737862L368.9822222222223,179.06701022386554L372.7627777777778,186.54484534263614L372.91400000000004,171.31490314006808L374.57744444444444,170.87185853719714L375.78722222222217,186.64690876007083L376.3921111111111,180.99549436569217L376.69455555555555,181.5249436497689L378.2067777777778,183.43962782621387L379.26533333333333,189.5406112968922L381.53366666666665,167.769006729126L381.6848888888889,178.53350543975836L382.13855555555557,175.29516988992694L385.7678888888889,173.41324889659884L385.91911111111114,184.93079388141635L388.33866666666665,180.62402182817462L388.4898888888889,177.2510662078858L389.8508888888889,195.0890328884125L390.7582222222222,178.61316972970965L391.3631111111111,179.7655513286591L392.72411111111114,188.33275759220126L393.78266666666667,181.7903160452843L393.9338888888889,186.90418893098834L395.89977777777773,197.54531407356265L397.2607777777777,193.9650397896767L398.0168888888889,182.95869433879855L398.77299999999997,195.9018039107323L399.2266666666667,186.57173180580145L399.98277777777776,182.7382704019547L400.4364444444444,175.2459218502045L401.04133333333334,180.3927456736565L402.25111111111113,189.72329655289653L403.4608888888889,168.30354416370395L404.51944444444445,198.49155986309054L405.578,187.1509360671044L406.93899999999996,188.94117647409442L407.5438888888889,190.0494075715542L407.69511111111115,183.23904955387118L407.84633333333335,193.5721256732941L408.14877777777775,188.91158634424215L408.6024444444445,178.8131284117699L409.661,182.82715344429022L411.022,187.09915333986285L412.53422222222224,191.97454029321673L413.13911111111116,207.31055447459224L413.4415555555555,184.72738051414495L413.89522222222223,201.53806650638583L414.6513333333333,200.3781559467316L415.105,201.69967630505565L415.2562222222222,175.31642371416098L415.4074444444445,181.3982468247414L418.28066666666666,206.23519921302798L419.6416666666667,206.92814522981647L420.549,152.01504135131842L421.60755555555556,182.9442747831345L421.75877777777777,190.93411678075793L423.11977777777776,189.4816281795502L424.1783333333333,202.32692697644237L425.993,200.23018652200702L427.354,174.13901442289355L427.9588888888889,198.4615848362446L429.4711111111111,219.252922475338L430.076,199.72811186313632L430.8321111111111,205.84251040220263L431.437,195.56270965933803L433.40288888888887,189.44681847095492L433.85655555555553,203.8178113996983L434.76388888888886,199.67354097962382L434.91511111111106,197.22171896696094L435.0663333333333,199.3673788905144L440.2078888888889,194.94392672181132L441.11522222222226,182.60079646110538L443.68600000000004,193.4853360950947L443.9884444444445,192.53753194212916L444.29088888888884,214.09247705340388L445.1982222222222,199.04282623529437L445.6518888888889,200.9251321256161L445.95433333333335,200.6025133430958L446.408,196.4409976601601L448.67633333333333,197.727642595768L448.9787777777778,198.25753310322764L450.7934444444444,207.46182838082316L450.94466666666665,192.63630026578906L451.09588888888885,199.3503213822842L453.8178888888889,216.86719948053363L454.4227777777778,195.29450216889384L455.63255555555554,195.70182645320895L456.2374444444444,202.11498016119006L457.74966666666666,197.55092793703082L458.2033333333333,199.1857450604439L458.65700000000004,202.2371708750725L459.11066666666665,204.11160984635356L462.74,197.9404718577862L464.55466666666666,198.58782166242602L464.70588888888886,198.53008711338046L465.1595555555556,214.59386640787127L465.3107777777778,201.24750682711604L465.6132222222222,203.40801814198497L465.91566666666665,216.78358295559886L466.5205555555556,202.7219533324242L467.12544444444444,211.50261783599856L467.88155555555556,202.3043307065964L468.18399999999997,203.45143640041354L470.45233333333334,212.14482316374782L471.0572222222222,219.06439805030826L474.989,206.17305243015292L475.44266666666664,204.70855692029002L475.5938888888889,202.19370567798617L476.1987777777778,210.35097786784175L476.5012222222222,200.4765675365925L477.25733333333335,206.6101264357567L478.61833333333334,196.80707225203517L479.2232222222222,218.8741275072098L479.8281111111111,220.2795460224152L480.433,214.80260261893275L481.9452222222222,214.3200075030327L482.24766666666665,213.43984195590022L482.5501111111111,215.96371480822566L482.70133333333337,219.73299229145053L483.30622222222223,216.75197446346286L483.7598888888889,216.49092981219295L484.9696666666667,209.22322028875354L485.5745555555556,207.32260832190516L487.69166666666666,204.31467586755755L488.599,210.42613604664805L489.3551111111111,201.8020589053631L489.5063333333334,212.89821678400043L489.8087777777778,223.26374629139903L490.26244444444444,195.9598858058453L490.5648888888889,211.96823993325236L490.86733333333336,209.87474763393405L491.0185555555555,202.33358287811282L492.07711111111115,225.7651824653149L492.53077777777776,197.04098635911944L493.2868888888889,211.660378664732L496.1601111111111,224.30038654804233L497.6723333333333,197.68246883153918L498.5796666666667,210.80546611547473L499.48699999999997,197.75952333211902L500.0918888888889,206.08394408226016L500.24311111111115,203.3621684610844L501.90655555555554,222.7781095504761L502.05777777777774,211.5769874453545L504.3261111111112,213.3310569226742L505.8383333333333,214.6169790029526L507.1993333333333,214.79438835382464L509.7701111111111,206.3457491397858L512.4921111111111,211.38785281777385L512.6433333333333,225.09371557831767L512.9457777777777,217.03122192621234L514.458,197.01310479640964L515.0628888888889,223.74461406469348L516.575111111111,222.6948122084141L517.7848888888889,214.65751522779468L517.9361111111111,219.31911537051204L519.5995555555555,207.61175045371058L520.8093333333334,215.50365024805072L521.7166666666667,218.75837677717212L521.8678888888888,222.0413040518761L522.1703333333334,210.55455082654956L522.4727777777778,209.79246416687968L523.2288888888888,222.84053796529773L527.0094444444445,223.00069266557696L527.1606666666667,210.70616269111636L528.6728888888889,223.05457824468616L528.9753333333333,226.88824617862704L529.5802222222222,217.82348075509074L529.7314444444445,214.48161730170253L531.8485555555555,208.50291842222217L532.7558888888889,220.73089876770976L533.5120000000001,218.22430872917178L533.8144444444445,220.30773738026622L534.1168888888889,228.16193604469302L534.4193333333334,227.03226336836818L536.3852222222223,236.85670280456546L536.9901111111111,219.86258053779605L537.2925555555555,225.8396928906441L537.7462222222223,220.66387975215915L539.2584444444444,218.1246955096722L540.7706666666667,225.60889551043513L541.0731111111111,221.1277087926865L542.8877777777778,228.2442570626736L543.039,224.15459507703784L543.1902222222222,232.8496340811253L544.4,221.43031293153766L545.3073333333333,219.37752583622935L547.8781111111111,226.97848105430606L548.7854444444445,224.7789355516434L548.9366666666666,234.15183448791507L550.1464444444445,222.45663607120517L551.0537777777778,226.42360040545466L551.9611111111111,218.239836037159L552.7172222222222,234.56801140308383L556.1953333333333,213.45203661918643L556.4977777777779,223.96246576309207L557.2538888888889,221.14271977543834L558.01,226.03540831804278L559.9758888888889,225.06298953294757L561.0344444444444,216.9178556799889L563.3027777777777,228.49935927987102L565.1174444444445,217.70934471488002L565.5711111111111,232.49372640252116L566.4784444444444,231.61112943291667L567.6882222222222,240.1828136444092L567.8394444444444,225.0341410338879L568.1418888888888,241.87808775901797L569.502888888889,220.9421508908272L572.981,244.5599091947079L573.1322222222223,238.22780916094783L573.2834444444444,204.1433873176575L574.342,224.06149694323543L576.0054444444445,216.55316108465198L576.3078888888889,219.47109335660937L578.1225555555556,232.9131608605385L578.2737777777778,225.93603917956355L578.7274444444445,229.23018479347232L579.0298888888889,236.7269080281258L579.1811111111111,220.70109272003177L583.5665555555555,232.3712071180344L585.3812222222223,242.081341534853L585.5324444444444,222.01471799612048L586.7422222222223,233.43325057625773L586.8934444444444,243.98256370425227L587.8007777777777,228.70804855227473L588.2544444444444,236.70797297358516L589.1617777777777,238.88541036844256L589.7666666666667,228.83109354972842L592.3374444444445,238.95025143027308L592.6398888888889,233.27090853452685L592.791111111111,238.92701679468158L592.9423333333333,237.48279878497127L594.6057777777778,245.69148758053782L597.3277777777778,239.02163574099544L599.8985555555555,238.7001059353352L600.9571111111111,226.26649671792987L601.1083333333333,238.67907741665843L601.562,237.75352218747142L603.9815555555556,213.90339875221255L604.5864444444445,239.61824485659602L605.3425555555556,247.59760075807574L605.645,230.28499969840053L605.9474444444445,235.8189172446728L606.2498888888889,226.38323315978053L606.5523333333333,236.54274889826777L607.1572222222222,228.92554351687434L607.3084444444445,225.4355228841305L608.9718888888889,245.5780743956566L609.4255555555555,225.0412006080151L610.6353333333333,244.52092194557193L611.089,236.30864703655246L611.2402222222222,234.4231305420399L612.45,233.23251271247867L614.7183333333334,235.79250955581668L615.3232222222223,241.82435238361361L615.6256666666667,228.94958549737933L617.894,227.40419590473178L619.8598888888889,239.91589227318767L623.3380000000001,252.97364482283595L625.6063333333333,236.21746399998668L625.7575555555555,247.9773063361645L626.6648888888889,240.53383970260623L626.8161111111111,234.19582539796832L627.5722222222223,239.4963451623917L628.3283333333334,235.5528689324856L628.9332222222222,237.22100311517718L629.2356666666667,236.7400226891041L631.6552222222222,248.81686994433406L633.3186666666667,241.89018854498866L634.3772222222221,235.3689069449902L634.5284444444444,243.58773449063304L635.587,233.79095131158832L636.0406666666667,224.00168770551684L639.67,249.98349273204806L640.1236666666666,238.2104043066502L641.1822222222222,235.35919064283374L641.6358888888889,248.88391712307933L641.7871111111111,246.4434167146683L642.0895555555555,225.86959281563762L642.2407777777778,254.62027171254158L645.2652222222222,243.40525576472285L646.0213333333334,241.21630901098254L647.3823333333333,224.46482205390933L647.6847777777778,232.05551648139956L647.9872222222222,252.9336530864239L649.0457777777777,234.1431414484978L651.0116666666667,233.35291036963466L652.2214444444444,237.34467709064486L653.4312222222222,250.37310236692431L654.3385555555556,247.57408449053767L654.4897777777777,253.47195500135425L655.2458888888889,233.74047347903254L656.002,232.64551663398746L657.0605555555555,230.3447338342667L658.8752222222222,236.87793785333636L661.446,206.4719296395779L661.7484444444444,238.09119889140132L662.050888888889,250.3197331130505L662.5045555555555,256.99552738666534L663.2606666666667,257.78076419234276L665.8314444444444,247.41947793960574L666.5875555555556,261.4642941355705L669.9144444444445,252.36874634027484L670.3681111111111,256.3879252374172L671.1242222222222,251.2517189383507L672.1827777777778,237.1969799101353L672.7876666666667,244.81323713064197L673.0901111111111,245.0312390327454L673.9974444444445,238.4443090260029L674.1486666666667,254.7424530386925L675.056,230.7131741344929L676.1145555555555,246.56812334060672L677.021888888889,244.19349664449695L677.4755555555555,259.9772962331772L680.0463333333333,252.1978426873684L680.3487777777777,247.26619505882266L681.861,255.07003793120384L682.3146666666667,251.75043278932574L682.6171111111111,250.51513874530795L683.3732222222221,239.89603722095492L685.7927777777778,254.85453316569328L686.0952222222221,243.67863589525226L687.0025555555555,245.95831507444385L687.6074444444445,256.08904802799225L687.9098888888889,258.32190120220184L690.027,257.2952119410038L691.8416666666666,239.11817917227748L692.5977777777777,248.25526767969134L694.4124444444444,260.2383784353733L695.471,233.4514158368111L695.6222222222221,262.9075827598572L698.3442222222221,238.85717207193377L698.6466666666666,245.53318226337436L698.949111111111,248.86709430813792L699.4027777777777,243.60026711225512L699.8564444444445,250.32170453667644L702.4272222222222,236.2020681202412L704.0906666666666,248.2526485025883L704.241888888889,239.27083307504657L705.1492222222222,250.1413662135601L706.2077777777777,247.21446865797046L709.8371111111111,262.41541215777397L710.7444444444445,252.4470118582249L711.0468888888889,253.15572926402092L714.2225555555556,247.8794392347336L714.6762222222222,247.62787619233134L715.2811111111112,264.35480484366417L715.4323333333333,254.7290379703045L715.5835555555556,256.20656365156174L716.490888888889,254.62296599149707L716.9445555555556,264.051656216383L717.2470000000001,264.885634124279L718.6080000000001,248.12424311041835L719.6665555555555,253.69384342432022L720.4226666666666,248.7253301739693L721.6324444444444,244.49438282847407L722.2373333333333,249.66532373428348L722.8422222222222,253.9941945075989L724.8081111111111,255.0513845086098L725.1105555555556,261.5471220910549L725.5642222222222,251.2950339317322L727.3788888888889,256.74801045656204L727.9837777777777,254.07271349430087L728.7398888888888,260.6518422961235L729.0423333333333,250.55929863452914L730.5545555555556,256.96166583895683L730.8570000000001,250.51772037148478L731.1594444444445,262.9983902871609L733.1253333333333,259.9766860306263L735.5448888888889,260.42331674695015L736.301,264.2770556509495L737.3595555555556,267.58310490846634L741.1401111111111,250.293438076973L741.2913333333333,255.7446403205395L741.4425555555556,251.6136253774166L742.5011111111112,252.83810475468636L744.0133333333333,261.48495653271675L745.2231111111112,265.27266213297844L746.2816666666666,249.30768871307376L746.8865555555556,249.47590747475627L748.5500000000001,253.04597729444504L749.4573333333333,262.4178529679775L750.3646666666667,252.5784870386124L753.0866666666667,264.44161319732666L753.6915555555556,270.22916378080845L755.355,258.6401734650135L756.1111111111112,250.9922983646393L756.8672222222223,258.69545781612396L757.4721111111112,264.9094414114952L757.6233333333333,259.8785654604435L759.2867777777777,262.2015220820904L759.4380000000001,263.66068536043167L761.1014444444444,273.24094520509243L761.4038888888888,273.0191412717104L761.5551111111112,260.8132549524307L762.6136666666667,257.6299315094948L763.0673333333333,268.97279427945614L763.2185555555557,257.641853928566L763.3697777777778,258.0780830383301L767.6039999999999,275.5836301445961L770.1747777777778,262.019907027483L770.9308888888888,264.66130489110947L771.0821111111112,258.47198286652565L771.3845555555556,264.16605511307716L772.5943333333333,255.4745928347111L781.3652222222222,265.87481939792633L783.6335555555556,248.09365788102153L785.2969999999999,263.34261962771416L785.4482222222223,257.55638802051544L785.7506666666667,254.7149563729763L786.0531111111112,278.87458392977715L786.5067777777778,270.49895310401917L786.6579999999999,259.0348336994648L786.9604444444444,268.30777207016945L790.4385555555555,264.2047982811928L791.1946666666668,265.36242762207985L791.6483333333333,248.34364378452304L792.102,252.00836071372032L792.8581111111112,271.5058577209711L794.5215555555554,267.6627785861492L795.8825555555555,279.74867092072964L796.3362222222222,271.12766356766224L796.4874444444445,261.8207463026047L797.8484444444445,262.60640555620193L798.7557777777778,255.9638438522816L801.1753333333334,265.8425537645817L802.0826666666667,275.4512490481138L802.6875555555555,258.5238219201565L804.0485555555555,270.38501420617104L804.351,266.54075691103935L805.712,269.0828654319048L806.3168888888889,267.41976776719093L807.2242222222222,265.78673431277275L807.9803333333333,274.19904769957066L808.8876666666667,269.249812155962L810.2486666666667,273.39943358302116L811.3072222222223,273.50783371925354L811.912111111111,262.6408303678036L813.273111111111,258.33479994535446L815.5414444444444,275.6711472719908L816.6,264.87204068899155L817.5073333333333,263.8268388211727L818.1122222222223,276.70055428147316L818.2634444444444,272.2135237008333L821.1366666666668,278.2771862447262L821.2878888888889,267.62898275256157L821.5903333333333,278.6742168813944L822.4976666666666,266.5815184414387L822.9513333333333,263.1532690823078L827.0343333333334,276.80442483723164L827.9416666666666,274.9381578862667L828.5465555555555,282.7918543070555L829.0002222222223,258.2729629576206L830.21,270.6544796526432L830.5124444444444,266.70834669470787L833.0832222222223,282.7021169811487L833.2344444444444,276.68452003598213L836.1076666666667,262.0203388631344L836.2588888888889,278.3873231112957L836.7125555555556,271.0841232687235L837.771111111111,274.80261781811714L838.0735555555556,273.7966989129782L839.2833333333334,275.3967814296484L839.5857777777778,268.4892134517431L839.737,266.73485764861107L841.7028888888889,281.51776076853275L842.0053333333334,278.5748430490494L843.5175555555555,278.0899197757244L843.9712222222222,284.5013508349657L845.6346666666666,274.40415555238724L846.0883333333334,269.48535503447056L846.3907777777779,273.78685587644577L846.6932222222222,279.39181508123875L848.5078888888889,270.6333243995905L851.0786666666667,281.56739370524883L853.347,283.3451014906168L854.2543333333334,269.75377374887466L855.3128888888889,278.771670922637L856.5226666666666,264.1979170739651L857.1275555555555,278.3813619017601L858.1861111111111,279.50389990210533L858.3373333333334,279.43193355202675L858.4885555555555,286.1567505598068L860.0007777777779,281.8520391136408L863.1764444444444,277.8102123141289L863.9325555555555,267.17530184984207L864.6886666666667,277.9214099943638L865.596,282.9325200766325L867.1082222222221,287.88424806296825L867.8643333333334,274.9253764897585L868.7716666666666,271.4561919271946L869.3765555555556,281.6574173569679L869.5277777777777,263.5430664718151L870.7375555555556,279.854367390275L871.1912222222222,279.1855853945017L871.3424444444445,281.22679272294044L871.6448888888889,277.8943498581648L872.0985555555555,281.46963925659657L872.2497777777777,287.16693149507046L873.4595555555555,278.50886607170105L873.9132222222222,281.9747226834297L874.0644444444445,290.70033752918243L874.366888888889,278.93770234286785L874.6693333333334,278.81999427080154L875.123,279.71331672370434L875.2742222222222,287.24783496558666L876.1815555555555,285.9162227958441L877.088888888889,280.90676495432854L877.3913333333334,282.6945739388466L877.845,285.447357237339L880.8694444444445,282.76187928020954L881.1718888888889,276.12090879678726L882.0792222222221,288.2987821251154L883.1377777777777,283.9741593003273L884.9524444444445,288.4771631062031L887.8256666666666,283.23237830400467L888.1281111111111,284.99329613149166L890.5476666666666,290.11743450164795L891.0013333333333,276.6994699984789L891.3037777777778,279.00115871429443L891.455,275.3402109593153L894.3282222222222,276.6850504428148L897.9575555555556,275.6735974699259L898.4112222222222,285.2870992720127L900.3771111111112,291.75765895843506L901.5868888888888,274.761433839798L902.7966666666666,275.2504266947508L902.9478888888888,284.8511517941952L903.4015555555555,284.22204235196114L903.7040000000001,279.64734913408756L903.8552222222222,282.63020695745945L905.9723333333333,279.69111473858356L907.1821111111111,296.3998875170946L910.509,271.75287710130215L911.4163333333333,281.43183955550194L911.87,281.8473499417305L912.9285555555556,284.0876569747925L914.8944444444445,286.0173990726471L915.1968888888888,279.85553616285324L915.3481111111112,281.86918580532074L916.4066666666666,281.1445655822754L919.1286666666667,291.1709914505482L921.5482222222222,287.8163982331753L922.6067777777778,289.32519444823265L923.3628888888888,291.4024225026369L923.5141111111111,290.19019880890846L924.4214444444444,290.63984298706055L926.3873333333333,292.56492407619953L926.6897777777777,289.44435292482376L927.5971111111112,269.1090759783983L928.0507777777777,289.57118117809296L931.5288888888888,288.7471871227026L932.2850000000001,298.54713866114616L934.2508888888889,296.87899509072304L934.8557777777778,287.4380726516247L937.5777777777778,285.20337948203087L938.7875555555556,289.13948164880276L942.2656666666667,294.9821429103613L942.7193333333333,288.53828662633896L942.8705555555556,291.37543746829033L943.1729999999999,290.6086944937706L943.4754444444444,289.5620516091585L943.6266666666667,287.4166169911623L944.2315555555556,293.20936837792397L946.9535555555556,297.9735060185194L947.5584444444444,295.8983057141304L951.0365555555557,281.9804538935423L953.0024444444444,295.2983686476946L955.4219999999999,283.995084553957L957.0854444444444,288.97584879398346L957.2366666666667,297.47275502979755L959.505,293.0402202308178L959.9586666666667,291.8409281373024L961.6221111111112,296.87507101893425L961.7733333333333,288.98978957533836L962.227,295.81719571352005L964.7977777777778,289.44041007757187L965.4026666666667,294.79081155359745L967.3685555555555,286.2508719563484L968.4271111111112,293.94480326771736L968.7295555555555,293.15533259510994L970.8466666666667,301.72343538701534L971.6027777777778,291.43815690279007L973.7198888888889,288.59899708628654L973.8711111111111,290.2733271718025L974.1735555555555,295.9666437059641L974.9296666666668,299.2136957645416L979.1638888888889,297.73421274125576L980.5248888888889,298.3158061802387L981.5834444444445,290.50511495769024L982.1883333333334,289.3569108992815L983.0956666666667,297.5454348474741L984.0029999999999,298.12449829280376L984.759111111111,294.50594083964825L985.2127777777778,295.526138484478L985.5152222222223,297.7917407602072L987.7835555555555,301.73831494152546L989.1445555555555,288.61383908987045L990.3543333333333,298.7539785504341L991.8665555555555,291.04297095537186L992.925111111111,296.20587596297264L993.6812222222222,297.10090228915215L993.9836666666666,293.6092763543129L994.4373333333334,299.23210510611534L995.7983333333334,289.4338715225458L996.1007777777778,297.56581561267376L997.008111111111,299.439390912652L998.8227777777778,290.9780782610178L999.5788888888889,298.6921697258949L1000.7886666666666,294.1460339874029L1001.0911111111111,295.65360510349274L1002.6033333333334,292.3497103303671L1002.9057777777779,282.1633034348488L1005.1741111111111,286.82306358218193L1006.8375555555556,297.69138590991497L1007.14,281.1626651287079L1007.7448888888889,297.34359861910343L1009.5595555555556,288.2581097781658L1010.0132222222223,292.9995901286602L1015.1547777777779,300.23656891286373L1016.2133333333334,301.94377483427525L1016.667,304.42300902307034L1017.271888888889,304.2803061157465L1019.389,289.9563457220793L1021.0524444444445,293.9925962090492L1022.111,296.79526591300964L1023.1695555555556,291.6233580708504L1024.6817777777778,297.4644515812397L1025.1354444444444,306.4922575056553L1025.8915555555554,297.8367126882076L1026.6476666666665,294.9802372008562L1027.555,305.1584251374006L1027.8574444444444,302.2794801145792L1029.3696666666667,302.5167831927538L1029.520888888889,303.64801892638206L1032.0916666666667,298.50713753700256L1032.5453333333335,294.14024645090103L1033.6038888888888,292.66555117070675L1035.4185555555555,298.27507281303406L1037.686888888889,293.8273580521345L1037.9893333333334,289.7485717535019L1039.047888888889,297.1432832032442L1040.5601111111112,286.1833225339651L1041.769888888889,303.9610622227192L1042.0723333333333,302.93854580819607L1042.3747777777778,294.01008555293083L1042.8284444444446,301.2274064272642L1043.1308888888889,296.19246558845043L1044.491888888889,307.0295267701149L1046.0041111111111,303.9221782386303L1046.1553333333334,295.5964291244745L1047.6675555555555,297.67956675589085L1048.2724444444445,296.6677429676056L1048.4236666666666,302.04274030029774L1051.296888888889,301.8990422934294L1052.053,299.7875020802021L1052.3554444444444,297.6847300082445L1052.5066666666667,303.1504269093275L1052.9603333333332,303.11186680197716L1054.3213333333333,301.4126263707876L1057.0433333333333,293.58881109952927L1060.0677777777778,299.2697076648474L1060.8238888888889,305.045565828681L1061.4287777777777,304.22698380053043L1062.184888888889,296.9087119549513L1063.0922222222223,299.5055556446314L1063.2434444444445,307.0759537965059L1063.3946666666666,301.36893117427826L1063.8483333333334,298.63586680591106L1064.3020000000001,306.6589272916317L1066.419111111111,300.18064150214195L1067.1752222222221,298.4489570707083L1067.628888888889,306.26849153637886L1070.1996666666666,307.72128054499626L1070.350888888889,307.40909622609615L1070.9557777777777,305.37452602386475L1071.7118888888888,310.8753635510802L1072.7704444444446,299.4603396356106L1074.1314444444445,301.9329601675272L1074.4338888888888,304.65229028463364L1075.9461111111111,304.75770042836666L1076.8534444444444,295.0465896874666L1077.1558888888887,304.14340952038765L1078.0632222222223,307.6565310135484L1078.3656666666666,301.9254312068224L1078.668111111111,305.63566924631596L1079.7266666666667,304.88465072214603L1080.4827777777778,307.60016003251076L1080.7852222222223,295.51231974363327L1081.0876666666666,308.3555907905102L1082.2974444444444,302.99771198630333L1084.5657777777778,302.0346105247736L1085.1706666666666,309.4170686379075L1085.9267777777777,302.8118912279606L1086.3804444444445,305.8019822984934L1088.8,305.8209408223629L1090.3122222222223,299.2037353813648L1090.4634444444443,299.40081672370434L1090.7658888888889,298.59849424660206L1091.6732222222222,308.0754444524646L1091.8244444444445,304.6409264355898L1092.5805555555555,303.69188310205936L1093.639111111111,300.9138468056917L1094.3952222222222,305.50176264345646L1094.848888888889,311.04240180552006L1095.4537777777778,315.673240698874L1096.361111111111,297.2163291424513L1098.327,305.91436283290386L1099.3855555555556,304.2270448207855L1102.2587777777778,315.4692922309041L1105.2832222222223,308.01207491755486L1105.7368888888889,308.91927713155746L1106.3417777777777,309.05897127091885L1106.493,307.62874802201986L1107.5515555555555,306.11552783846855L1110.1223333333332,312.00378531217575L1111.7857777777779,301.8134308755398L1113.4492222222223,308.3545722216368L1114.5077777777778,311.7660973370075L1115.4151111111112,315.45108237862587L1119.0444444444445,307.6234885454178L1122.5225555555555,308.4210983812809L1123.8835555555556,307.8716344535351L1126.1518888888888,312.9476677402854L1126.303111111111,306.890409976244L1127.3616666666667,303.56452913582325L1127.9665555555555,308.31187212467194L1129.4787777777779,307.3918298408389L1129.9324444444444,312.8411498442292L1130.0836666666667,313.65021036565304L1131.5958888888888,310.6559558361769L1132.2007777777778,302.4265670925379L1133.4105555555554,314.39465982466936L1133.5617777777777,314.32604958862066L1134.1666666666667,309.70328179746866L1135.5276666666666,308.23765506595373L1135.6788888888889,313.07903261482716L1137.1911111111112,304.04473976790905L1137.3423333333333,310.95926405489445L1137.4935555555555,307.92866961658L1138.7033333333334,311.98667147755623L1139.3082222222222,316.87965573370457L1141.7277777777779,311.01777778565884L1142.9375555555555,302.64815041422844L1144.9034444444444,312.85843500494957L1145.357111111111,308.98151779174805L1145.962,309.52698723971844L1146.2644444444445,311.6866114139557L1146.4156666666668,311.9423825070262L1146.8693333333333,303.07643750309944L1148.2303333333334,313.39300764352083L1148.3815555555555,316.3816929012537L1149.7425555555556,307.38934913277626L1150.1962222222223,309.8098865300417L1151.7084444444445,315.35465394705534L1152.4645555555555,309.0074725225568L1156.6987777777779,307.4233843535185L1157.9085555555555,319.18888279795647L1159.2695555555556,314.40773928165436L1159.572,313.46674827486277L1160.176888888889,315.2047529965639L1161.0842222222223,312.14467638731L1161.3866666666668,309.0471403822303L1161.5378888888888,315.7816736921668L1162.5964444444444,310.25251337885857L1163.0501111111112,311.4008136615157L1163.8062222222222,314.96821267157793L1164.259888888889,312.32038421183825L1164.411111111111,314.17791118472815L1165.4696666666666,312.6120727658272L1166.0745555555554,298.29519541561604L1166.6794444444445,307.7231134995818L1168.1916666666666,310.2701505795121L1168.3428888888889,310.8746242672205L1170.1575555555555,311.3127543926239L1170.7624444444446,306.69193924963474L1171.821,313.916934594512L1172.425888888889,311.9231282696128L1174.0893333333333,309.54310128092766L1175.904,308.8028551787138L1178.3235555555555,309.08228570222855L1181.4992222222222,315.5981975197792L1182.104111111111,318.43143133074045L1184.3724444444445,321.50578198581934L1185.1285555555555,322.7335705384612L1185.582222222222,319.6055948138237L1186.4895555555556,317.1092843413353L1187.0944444444444,321.4171641469002L1187.6993333333335,313.0205939859152L1188.909111111111,308.0849495306611L1189.8164444444444,313.38794530928135L1189.9676666666667,309.2541821077466L1190.118888888889,319.8693525195122L1192.5384444444444,318.6476096659899L1193.597,311.1282408758998L1193.8994444444445,306.3214477300644L1194.8067777777778,314.283492654562L1196.0165555555554,311.38078493624926" style="fill: none;" fill="none"></path></g></g></g></g></g></g><g transform="translate(70, 378)" clip-path="url(#clip_1)"><clipPath id="clip_1"><rect width="1361" height="22"></rect></clipPath><g><g><line x1="0" y1="0" x2="0" y2="5" style="visibility: inherit;" fill="rgb(0, 0, 0)" stroke="rgb(204, 204, 204)" stroke-width="1px"></line><line x1="151.2222222222222" y1="0" x2="151.2222222222222" y2="5" style="visibility: inherit;" fill="rgb(0, 0, 0)" stroke="rgb(204, 204, 204)" stroke-width="1px"></line><line x1="302.4444444444444" y1="0" x2="302.4444444444444" y2="5" style="visibility: inherit;" fill="rgb(0, 0, 0)" stroke="rgb(204, 204, 204)" stroke-width="1px"></line><line x1="453.66666666666663" y1="0" x2="453.66666666666663" y2="5" style="visibility: inherit;" fill="rgb(0, 0, 0)" stroke="rgb(204, 204, 204)" stroke-width="1px"></line><line x1="604.8888888888888" y1="0" x2="604.8888888888888" y2="5" style="visibility: inherit;" fill="rgb(0, 0, 0)" stroke="rgb(204, 204, 204)" stroke-width="1px"></line><line x1="756.1111111111112" y1="0" x2="756.1111111111112" y2="5" style="visibility: inherit;" fill="rgb(0, 0, 0)" stroke="rgb(204, 204, 204)" stroke-width="1px"></line><line x1="907.3333333333333" y1="0" x2="907.3333333333333" y2="5" style="visibility: inherit;" fill="rgb(0, 0, 0)" stroke="rgb(204, 204, 204)" stroke-width="1px"></line><line x1="1058.5555555555557" y1="0" x2="1058.5555555555557" y2="5" style="visibility: inherit;" fill="rgb(0, 0, 0)" stroke="rgb(204, 204, 204)" stroke-width="1px"></line><line x1="1209.7777777777776" y1="0" x2="1209.7777777777776" y2="5" style="visibility: inherit;" fill="rgb(0, 0, 0)" stroke="rgb(204, 204, 204)" stroke-width="1px"></line><line x1="1361" y1="0" x2="1361" y2="5" style="visibility: inherit;" fill="rgb(0, 0, 0)" stroke="rgb(204, 204, 204)" stroke-width="1px"></line></g><g transform="translate(0, 8)"><text x="0" y="0" dx="0em" dy="0.95em" style="text-anchor: middle; visibility: hidden; font-family: &quot;Helvetica Neue&quot;, sans-serif; font-size: 12px; font-weight: 200;" fill="rgb(50, 49, 63)" stroke="none" stroke-width="1px">-1k</text><text x="151.2222222222222" y="0" dx="0em" dy="0.95em" style="text-anchor: middle; visibility: inherit; font-family: &quot;Helvetica Neue&quot;, sans-serif; font-size: 12px; font-weight: 200;" fill="rgb(50, 49, 63)" stroke="none" stroke-width="1px">0</text><text x="302.4444444444444" y="0" dx="0em" dy="0.95em" style="text-anchor: middle; visibility: inherit; font-family: &quot;Helvetica Neue&quot;, sans-serif; font-size: 12px; font-weight: 200;" fill="rgb(50, 49, 63)" stroke="none" stroke-width="1px">1k</text><text x="453.66666666666663" y="0" dx="0em" dy="0.95em" style="text-anchor: middle; visibility: inherit; font-family: &quot;Helvetica Neue&quot;, sans-serif; font-size: 12px; font-weight: 200;" fill="rgb(50, 49, 63)" stroke="none" stroke-width="1px">2k</text><text x="604.8888888888888" y="0" dx="0em" dy="0.95em" style="text-anchor: middle; visibility: inherit; font-family: &quot;Helvetica Neue&quot;, sans-serif; font-size: 12px; font-weight: 200;" fill="rgb(50, 49, 63)" stroke="none" stroke-width="1px">3k</text><text x="756.1111111111112" y="0" dx="0em" dy="0.95em" style="text-anchor: middle; visibility: inherit; font-family: &quot;Helvetica Neue&quot;, sans-serif; font-size: 12px; font-weight: 200;" fill="rgb(50, 49, 63)" stroke="none" stroke-width="1px">4k</text><text x="907.3333333333333" y="0" dx="0em" dy="0.95em" style="text-anchor: middle; visibility: inherit; font-family: &quot;Helvetica Neue&quot;, sans-serif; font-size: 12px; font-weight: 200;" fill="rgb(50, 49, 63)" stroke="none" stroke-width="1px">5k</text><text x="1058.5555555555557" y="0" dx="0em" dy="0.95em" style="text-anchor: middle; visibility: inherit; font-family: &quot;Helvetica Neue&quot;, sans-serif; font-size: 12px; font-weight: 200;" fill="rgb(50, 49, 63)" stroke="none" stroke-width="1px">6k</text><text x="1209.7777777777776" y="0" dx="0em" dy="0.95em" style="text-anchor: middle; visibility: inherit; font-family: &quot;Helvetica Neue&quot;, sans-serif; font-size: 12px; font-weight: 200;" fill="rgb(50, 49, 63)" stroke="none" stroke-width="1px">7k</text><text x="1361" y="0" dx="0em" dy="0.95em" style="text-anchor: middle; visibility: hidden; font-family: &quot;Helvetica Neue&quot;, sans-serif; font-size: 12px; font-weight: 200;" fill="rgb(50, 49, 63)" stroke="none" stroke-width="1px">8k</text></g><line x1="0" y1="0" x2="1361" y2="0" fill="rgb(0, 0, 0)" stroke="rgb(204, 204, 204)" stroke-width="1px"></line></g></g></g></g></svg>